<svg xmlns="http://www.w3.org/2000/svg" xmlns:xlink="http://www.w3.org/1999/xlink" width="500" zoomAndPan="magnify" viewBox="0 0 375 374.999991" height="500" preserveAspectRatio="xMidYMid meet" version="1.0"><defs><clipPath id="c553f944a8"><path d="M 22 0 L 353.8125 0 L 353.8125 375 L 22 375 Z M 22 0 " clip-rule="nonzero"/></clipPath></defs><g clip-path="url(#c553f944a8)"><path fill="#000000" d="M 71.796875 162.199219 C 78.5625 160.761719 85.339844 159.371094 92.09375 157.878906 C 128.292969 149.859375 164.6875 142.902344 201.242188 136.769531 C 232.828125 131.46875 264.492188 126.648438 296.253906 122.53125 C 299.238281 122.144531 302.230469 122.117188 305.230469 122.207031 C 307.824219 122.277344 309.660156 123.511719 310.058594 125.898438 C 311.8125 136.617188 315.75 146.914062 316.332031 157.855469 C 316.648438 163.742188 315.765625 164.914062 310.164062 166.660156 C 309.882812 166.75 309.644531 166.976562 309.332031 167.171875 C 313.183594 177.910156 314.117188 189.238281 315.953125 200.386719 C 321.890625 236.628906 326.242188 273.113281 332.667969 309.28125 C 333.136719 311.917969 333.488281 314.589844 333.691406 317.261719 C 334.070312 322.152344 332.570312 324.601562 327.992188 326.429688 C 325.953125 327.238281 323.761719 327.652344 321.644531 328.277344 C 290.820312 337.507812 259.515625 344.84375 228.105469 351.746094 C 206.210938 356.558594 184.09375 360.066406 161.980469 363.566406 C 144.839844 366.28125 127.730469 369.121094 110.5625 371.675781 C 100.113281 373.226562 89.65625 374.929688 79.050781 375.019531 C 73.507812 375.070312 72.511719 374.328125 71.601562 368.742188 C 70.207031 360.191406 69.042969 351.59375 67.824219 343.019531 C 65.46875 326.480469 62.582031 310.023438 60.570312 293.433594 C 58.1875 273.714844 55.433594 254.046875 53.007812 234.335938 C 52.238281 228.113281 51.832031 221.835938 52.238281 215.859375 C 51.417969 215.03125 50.773438 215.199219 50.171875 215.179688 C 44.15625 214.996094 42.972656 213.929688 41.984375 207.820312 C 40.421875 198.140625 39.832031 188.398438 39.917969 178.605469 C 39.945312 176.472656 39.582031 174.734375 38.199219 172.964844 C 35.375 169.347656 33.6875 165.039062 31.78125 160.886719 C 28.417969 153.585938 25.304688 146.191406 22.769531 138.539062 C 21.5625 134.898438 22.292969 132.097656 25.367188 129.855469 C 28.046875 127.910156 30.652344 125.847656 33.414062 124.03125 C 69.933594 100.054688 106.273438 75.792969 144.242188 54.117188 C 169.429688 39.730469 194.6875 25.457031 220.3125 11.875 C 227.136719 8.261719 233.984375 4.628906 241.328125 2.160156 C 246.929688 0.273438 245.6875 0.0273438 248.871094 4.628906 C 253.628906 11.484375 257.757812 18.777344 262.304688 25.785156 C 264.828125 29.671875 264.765625 33.753906 263.707031 37.914062 C 263.097656 40.292969 261.035156 41.757812 259.1875 43.230469 C 254.019531 47.375 248.695312 51.3125 243.171875 54.988281 C 189.179688 90.875 133.835938 124.601562 77.957031 157.464844 C 75.8125 158.726562 73.703125 160.050781 71.574219 161.335938 C 71.652344 161.609375 71.722656 161.910156 71.796875 162.199219 Z M 312.742188 70.855469 C 323.578125 64.359375 333.1875 56.25 342.738281 48.050781 C 344.027344 46.949219 345.148438 45.546875 346.019531 44.085938 C 346.957031 42.507812 345.96875 41.253906 344.121094 41.617188 C 341.296875 42.164062 338.835938 43.617188 336.4375 45.117188 C 329.242188 49.613281 322.042969 54.125 314.964844 58.796875 C 311.953125 60.78125 309.183594 63.132812 306.394531 65.445312 C 305.203125 66.429688 304.082031 67.628906 303.28125 68.945312 C 301.804688 71.351562 302.996094 73.386719 305.59375 73.457031 C 308.328125 73.296875 310.585938 72.144531 312.742188 70.855469 Z M 309.238281 21.703125 C 301.796875 31.292969 294.738281 41.148438 288.789062 51.761719 C 287.632812 53.816406 286.617188 55.984375 285.875 58.207031 C 285.320312 59.910156 284.367188 62.246094 286.363281 63.382812 C 288.761719 64.757812 289.996094 62.386719 291.1875 60.796875 C 298.777344 50.714844 305.636719 40.152344 311.425781 28.921875 C 313.015625 25.835938 314.453125 22.691406 315.421875 19.347656 C 315.695312 18.40625 315.953125 17.523438 314.65625 16.46875 C 312.378906 17.773438 310.773438 19.738281 309.238281 21.703125 Z M 349.011719 95.671875 C 350.847656 95.167969 353.75 95.035156 353.53125 92.453125 C 353.355469 90.390625 350.714844 90.285156 348.878906 89.984375 C 339.78125 88.539062 330.65625 88.804688 321.53125 89.667969 C 320.59375 89.757812 319.632812 89.914062 318.75 90.234375 C 316.96875 90.875 314.945312 91.503906 315.035156 93.898438 C 315.125 96.269531 317.195312 96.773438 318.972656 97.390625 C 319.703125 97.65625 320.515625 97.679688 321.292969 97.804688 C 324.273438 98.246094 327.257812 98.359375 329.816406 97.980469 C 336.550781 97.523438 342.886719 97.363281 349.011719 95.671875 Z M 349.011719 95.671875 " fill-opacity="1" fill-rule="evenodd"/></g><path fill="#ffffff" d="M 304.25 167.605469 C 306.378906 183.417969 308.328125 198.5625 310.480469 213.679688 C 313.121094 232.246094 315.828125 250.800781 318.722656 269.332031 C 321.160156 284.890625 323.90625 300.40625 327.707031 315.707031 C 328.609375 319.347656 328.609375 319.410156 324.910156 320.378906 C 295.347656 328.171875 265.578125 335.171875 235.714844 341.757812 C 202.277344 349.128906 168.429688 354.238281 134.691406 359.917969 C 116.953125 362.90625 99.1875 365.636719 81.335938 367.859375 C 79.789062 368.054688 78.246094 368.210938 76.480469 368.414062 C 76.207031 363.636719 76.003906 359.089844 75.679688 354.566406 C 74.671875 340.558594 72.058594 326.753906 70.25 312.851562 C 68.160156 296.757812 66.078125 280.660156 63.957031 264.570312 C 62.0625 250.203125 60.136719 235.832031 58.152344 221.472656 C 57.832031 219.15625 57.164062 216.890625 56.667969 214.652344 C 138.546875 195.425781 221.664062 183.109375 304.25 167.605469 Z M 190.148438 181.171875 C 192.003906 180.84375 192.71875 179.566406 193.6875 178.359375 C 203.035156 166.652344 212.398438 154.964844 221.71875 143.238281 C 222.546875 142.199219 223.921875 141.476562 224.019531 139.5625 C 213.191406 141.371094 202.515625 143.414062 191.757812 144.84375 C 186.011719 145.609375 181.925781 147.699219 178.101562 152.40625 C 168.871094 163.777344 158.742188 174.425781 148.996094 185.382812 C 147.964844 186.546875 146.570312 187.421875 145.980469 189.28125 C 160.804688 186.558594 175.464844 183.804688 190.148438 181.171875 Z M 211.550781 64.464844 C 213.941406 65.136719 215.601562 64.914062 217.578125 63.59375 C 226.765625 57.464844 236.039062 51.472656 245.246094 45.378906 C 246.214844 44.738281 247.585938 44.402344 247.882812 42.851562 C 232.96875 40.039062 218.382812 35.992188 203.714844 32.28125 C 200.359375 31.433594 197.828125 31.621094 194.871094 33.339844 C 185.753906 38.664062 176.460938 43.695312 167.265625 48.890625 C 166.09375 49.550781 164.601562 49.851562 163.789062 51.523438 C 179.921875 55.871094 195.769531 60.039062 211.550781 64.464844 Z M 122.785156 157.632812 C 113.40625 159.660156 104.050781 161.804688 94.632812 163.671875 C 91.722656 164.253906 89.507812 165.425781 87.355469 167.515625 C 75.476562 179.039062 64.25 191.183594 52.699219 203.023438 C 51.074219 204.699219 47.5 206.257812 48.867188 208.683594 C 49.839844 210.394531 53.5625 209.421875 55.953125 208.886719 C 65.636719 206.726562 75.261719 204.371094 84.925781 202.132812 C 86.355469 201.796875 87.441406 201.234375 88.421875 200.035156 C 99.613281 186.398438 111.464844 173.332031 123.21875 160.191406 C 123.933594 159.398438 124.941406 158.761719 125.082031 157.371094 C 124.296875 157.464844 123.519531 157.484375 122.785156 157.632812 Z M 164.46875 93.054688 C 148.449219 89.023438 132.34375 85.3125 116.636719 80.191406 C 114.84375 79.609375 113.671875 79.917969 112.285156 80.773438 C 107.476562 83.78125 102.648438 86.742188 97.828125 89.738281 C 93.441406 92.464844 89.074219 95.214844 84.460938 98.097656 C 85.835938 99.101562 87.035156 99.3125 88.238281 99.566406 C 103.019531 102.714844 117.78125 105.921875 132.582031 108.984375 C 135.609375 109.609375 138.503906 111.953125 141.515625 110.976562 C 144.425781 110.023438 146.933594 107.828125 149.617188 106.1875 C 155.898438 102.335938 162.183594 98.484375 169.109375 94.242188 C 167.0625 93.714844 165.765625 93.378906 164.46875 93.054688 Z M 251.46875 170.476562 C 262.808594 168.554688 274.148438 166.589844 285.496094 164.703125 C 287.375 164.394531 288.472656 163.425781 289.519531 161.867188 C 293.042969 156.636719 296.246094 151.058594 300.554688 146.542969 C 304.605469 142.304688 305.398438 138.207031 303.472656 133.082031 C 303.304688 132.644531 303.191406 132.175781 303.148438 131.707031 C 302.953125 129.347656 301.707031 128.480469 299.371094 128.773438 C 293.261719 129.53125 287.15625 130.21875 281.050781 130.871094 C 279.59375 131.03125 278.835938 131.921875 278.082031 132.960938 C 269.523438 144.871094 259.886719 155.941406 250.992188 167.585938 C 250.347656 168.433594 249.332031 169.074219 249.261719 170.300781 C 249.96875 170.855469 250.753906 170.601562 251.46875 170.476562 Z M 92.445312 136.097656 C 77.238281 132.0625 61.824219 128.78125 46.765625 124.144531 C 45.265625 123.6875 44.101562 123.84375 42.820312 124.753906 C 40.121094 126.65625 37.253906 128.332031 34.570312 130.273438 C 32.300781 131.902344 28.640625 132.785156 28.199219 135.417969 C 27.828125 137.660156 29.945312 140.292969 30.925781 142.78125 C 31.480469 144.183594 32.25 144.851562 33.953125 145.152344 C 46.359375 147.328125 58.742188 149.699219 71.117188 152.089844 C 72.554688 152.371094 73.761719 152.601562 75.140625 151.753906 C 82.632812 147.136719 90.1875 142.613281 97.996094 137.886719 C 95.90625 136.53125 94.105469 136.53125 92.445312 136.097656 Z M 92.445312 136.097656 " fill-opacity="1" fill-rule="evenodd"/><path fill="#666666" d="M 293.050781 286.328125 C 294.824219 286.53125 297.492188 285.78125 297.835938 287.421875 C 298.3125 289.695312 295.441406 289.925781 293.828125 290.488281 C 285.613281 293.363281 277 294.632812 268.515625 296.394531 C 235.792969 303.191406 202.882812 309.097656 170.238281 316.324219 C 148.390625 321.164062 126.5625 326.144531 104.714844 331.011719 C 101.492188 331.734375 98.269531 332.617188 94.910156 332.484375 C 93.796875 332.441406 92.570312 332.457031 92.242188 331.082031 C 91.933594 329.777344 92.800781 329.003906 93.882812 328.550781 C 95.632812 327.839844 97.398438 327.132812 99.207031 326.605469 C 117.96875 321.070312 137.074219 316.882812 156.15625 312.648438 C 185.402344 306.160156 214.648438 299.675781 244.082031 294.03125 C 259.109375 291.148438 274.191406 288.574219 289.390625 286.671875 C 290.640625 286.511719 291.894531 286.433594 293.050781 286.328125 Z M 287.519531 245.371094 C 284.992188 245.476562 282.460938 245.496094 279.953125 245.75 C 265.347656 247.265625 250.902344 249.824219 236.464844 252.425781 C 207.914062 257.582031 179.507812 263.496094 151.214844 269.949219 C 129.847656 274.824219 108.453125 279.574219 87.285156 285.242188 C 85.765625 285.648438 84.257812 286.125 82.78125 286.644531 C 81.863281 286.972656 80.980469 287.535156 81.132812 288.65625 C 81.300781 289.863281 82.394531 289.976562 83.328125 289.914062 C 85.210938 289.773438 87.097656 289.570312 88.960938 289.28125 C 104.238281 286.890625 119.210938 283.058594 134.3125 279.804688 C 158.503906 274.585938 182.535156 268.644531 206.847656 263.988281 C 229.605469 259.625 252.386719 255.386719 275.144531 250.96875 C 280.191406 249.992188 285.285156 248.941406 289.988281 246.695312 C 289.433594 245.40625 288.488281 245.335938 287.519531 245.371094 Z M 79.640625 231.453125 C 77.054688 229.75 74.664062 230.492188 74.328125 233.375 C 73.703125 238.820312 73.136719 244.3125 73.929688 249.824219 C 74.117188 251.101562 74.453125 252.546875 75.988281 252.554688 C 77.839844 252.566406 78.070312 250.996094 78.113281 249.515625 C 78.175781 247.480469 78.273438 245.433594 78.308594 243.386719 C 78.34375 241.441406 78.316406 239.5 78.316406 237.554688 C 80.726562 239.429688 82.28125 241.546875 83.824219 243.660156 C 84.804688 244.992188 85.984375 245.988281 87.769531 245.679688 C 89.558594 245.363281 90.179688 243.945312 90.804688 242.425781 C 91.492188 240.777344 91.035156 238.742188 92.535156 237.101562 C 93.71875 238.726562 94.714844 240.117188 95.738281 241.484375 C 96.972656 243.125 98.332031 244.648438 100.054688 245.8125 C 100.714844 246.253906 101.5 246.570312 102.214844 245.988281 C 102.78125 245.539062 102.613281 244.835938 102.445312 244.234375 C 100.867188 238.550781 98.113281 233.425781 94.324219 228.949219 C 91.800781 225.96875 88.757812 226.832031 87.75 230.625 C 87.152344 232.855469 86.78125 235.144531 86.144531 238.242188 C 83.558594 235.488281 82.023438 233.023438 79.640625 231.453125 Z M 165.324219 216.652344 C 167.117188 216.070312 168.882812 215.375 170.601562 214.597656 C 172.058594 213.9375 173.65625 213.019531 173.207031 211.152344 C 172.71875 209.148438 170.824219 209.316406 169.277344 209.609375 C 167.117188 210.003906 164.988281 210.605469 162.871094 211.203125 C 158.980469 212.304688 156.800781 215.046875 156.085938 218.910156 C 155.300781 223.113281 155.394531 227.378906 155.925781 231.613281 C 156.21875 233.964844 157.417969 236.0625 159.765625 236.511719 C 164.996094 237.5 170.097656 236.53125 174.945312 234.398438 C 175.914062 233.972656 176.894531 233.128906 176.507812 231.804688 C 176.152344 230.617188 174.953125 230.886719 174.113281 230.84375 C 170.972656 230.660156 167.832031 230.660156 164.679688 230.484375 C 163.683594 230.421875 162.394531 230.605469 162.199219 228.96875 C 162.023438 227.425781 162.675781 226.78125 164.132812 226.304688 C 166.753906 225.441406 169.480469 224.613281 171.210938 221.816406 C 168.296875 220.144531 165.5 221.730469 162.421875 221.519531 C 161.980469 218.820312 163.046875 217.410156 165.324219 216.652344 Z M 288.101562 209.679688 C 284.207031 210.269531 280.273438 210.703125 276.433594 211.558594 C 254.46875 216.476562 232.617188 221.921875 210.378906 225.617188 C 209.148438 225.820312 207.941406 226.261719 206.777344 226.738281 C 206.027344 227.035156 205.433594 227.769531 205.636719 228.597656 C 205.839844 229.382812 206.582031 229.925781 207.445312 229.804688 C 209.625 229.488281 211.808594 229.144531 213.960938 228.683594 C 235.503906 224.066406 257.054688 219.457031 278.597656 214.765625 C 283.335938 213.734375 288.164062 212.90625 293.519531 210.453125 C 291.144531 209.222656 289.609375 209.441406 288.101562 209.679688 Z M 129.757812 230.449219 C 128.9375 229.027344 128.433594 228.242188 128.011719 227.425781 C 126.777344 225.054688 125.621094 222.644531 124.339844 220.292969 C 123.644531 219.015625 122.664062 217.816406 120.976562 218.414062 C 119.273438 219.023438 119.460938 220.601562 119.539062 222.027344 C 119.558594 222.496094 119.644531 222.972656 119.761719 223.429688 C 121.199219 229.195312 124.191406 234.195312 127.835938 238.769531 C 129.988281 241.476562 133.070312 240.910156 134.726562 237.789062 C 135.308594 236.699219 135.628906 235.445312 135.902344 234.222656 C 136.953125 229.601562 137.191406 224.875 137.605469 220.179688 C 137.816406 217.859375 137.550781 215.542969 136 212.941406 C 130.675781 217.558594 132.230469 224.515625 129.757812 230.449219 Z M 113.910156 223.773438 C 109.894531 220.601562 105.640625 221.800781 103.882812 226.628906 C 102.199219 231.277344 103.070312 235.613281 106.214844 239.402344 C 108.605469 242.304688 112.074219 243.328125 115.039062 242.242188 C 118.003906 241.167969 119.875 238.144531 119.925781 233.964844 C 120.140625 229.582031 117.332031 226.464844 113.910156 223.773438 Z M 144.425781 215.019531 C 143.015625 221.792969 143.703125 228.492188 145.167969 235.15625 C 145.300781 235.761719 145.554688 236.363281 145.875 236.890625 C 146.464844 237.871094 147.25 238.734375 148.53125 238.453125 C 149.800781 238.179688 150.171875 237.09375 150.277344 235.957031 C 150.355469 235.171875 150.402344 234.378906 150.355469 233.59375 C 150.03125 227.769531 149.050781 222.011719 147.816406 216.316406 C 147.542969 215.046875 147.488281 213.398438 145.863281 212.746094 C 144.9375 213.222656 144.621094 214.09375 144.425781 215.019531 Z M 186.691406 226.859375 C 186.453125 228.808594 187.996094 230.738281 189.859375 230.828125 C 191.480469 230.90625 193.265625 229.371094 193.496094 227.707031 C 193.742188 225.847656 192.125 223.863281 190.265625 223.738281 C 188.621094 223.632812 186.902344 225.132812 186.691406 226.859375 Z M 190.070312 206.089844 C 188.402344 206.222656 187.527344 207.265625 187.335938 208.804688 C 187.148438 210.253906 188.730469 211.847656 190.238281 211.902344 C 191.816406 211.960938 193.203125 210.523438 193.160156 208.886719 C 193.125 207.203125 191.765625 205.960938 190.070312 206.089844 Z M 146.941406 207.238281 C 146.914062 206.160156 145.925781 205.710938 144.964844 205.898438 C 144.25 206.03125 143.550781 206.566406 143.710938 207.511719 C 143.871094 208.445312 144.601562 208.613281 145.054688 208.640625 C 146.316406 208.59375 146.96875 207.933594 146.941406 207.238281 Z M 146.941406 207.238281 " fill-opacity="1" fill-rule="evenodd"/></svg>