<svg xmlns="http://www.w3.org/2000/svg" xmlns:xlink="http://www.w3.org/1999/xlink" width="500" zoomAndPan="magnify" viewBox="0 0 375 374.999991" height="500" preserveAspectRatio="xMidYMid meet" version="1.0"><defs><clipPath id="51b720d02a"><path d="M 0 9.140625 L 375 9.140625 L 375 366.140625 L 0 366.140625 Z M 0 9.140625 " clip-rule="nonzero"/></clipPath></defs><g clip-path="url(#51b720d02a)"><path fill="#100f0d" d="M 341.089844 13.246094 C 344.304688 13.261719 346.253906 15.574219 345.375 18.339844 C 336.046875 47.640625 321.171875 71.109375 302.691406 90.777344 C 300.945312 92.632812 297.269531 93.4375 294.527344 92.613281 C 274.0625 86.535156 253.589844 80.449219 233.125 74.363281 C 230.382812 73.539062 229.226562 71.785156 230.519531 70.414062 C 244.289062 55.757812 255.375 38.269531 262.324219 16.433594 C 262.976562 14.390625 266.070312 12.703125 269.289062 12.714844 C 293.226562 12.890625 317.15625 13.070312 341.089844 13.246094 Z M 366.199219 16.53125 C 366.925781 16.539062 367.351562 17.101562 367.140625 17.769531 C 366.34375 20.308594 365.511719 22.8125 364.640625 25.273438 C 364.410156 25.925781 363.628906 26.421875 362.914062 26.390625 C 358.4375 26.1875 353.960938 25.984375 349.488281 25.78125 C 348.777344 25.75 348.371094 25.222656 348.585938 24.601562 C 349.421875 22.257812 350.214844 19.871094 350.972656 17.449219 C 351.171875 16.8125 351.921875 16.296875 352.644531 16.304688 C 357.160156 16.382812 361.679688 16.457031 366.199219 16.53125 Z M 357.632812 39.558594 C 358.34375 39.621094 358.707031 40.164062 358.433594 40.769531 C 357.402344 43.0625 356.332031 45.316406 355.234375 47.539062 C 354.945312 48.125 354.132812 48.535156 353.433594 48.453125 C 349.082031 47.960938 344.730469 47.472656 340.378906 46.984375 C 339.6875 46.90625 339.34375 46.390625 339.621094 45.832031 C 340.671875 43.71875 341.6875 41.5625 342.667969 39.375 C 342.929688 38.800781 343.714844 38.378906 344.417969 38.4375 C 348.824219 38.8125 353.226562 39.1875 357.632812 39.558594 Z M 346.921875 60.339844 C 347.609375 60.441406 347.910156 60.964844 347.582031 61.511719 C 346.335938 63.582031 345.054688 65.621094 343.742188 67.625 C 343.40625 68.144531 342.570312 68.472656 341.894531 68.355469 C 337.691406 67.605469 333.492188 66.855469 329.289062 66.105469 C 328.625 65.988281 328.34375 65.480469 328.664062 64.984375 C 329.914062 63.070312 331.132812 61.128906 332.324219 59.15625 C 332.636719 58.640625 333.441406 58.304688 334.121094 58.40625 C 338.386719 59.050781 342.65625 59.695312 346.921875 60.339844 Z M 334.277344 79.074219 C 334.9375 79.21875 335.167969 79.738281 334.796875 80.21875 C 333.359375 82.089844 331.890625 83.929688 330.394531 85.738281 C 330 86.214844 329.15625 86.464844 328.503906 86.308594 C 324.480469 85.324219 320.453125 84.339844 316.425781 83.355469 C 315.789062 83.203125 315.558594 82.710938 315.933594 82.257812 C 317.359375 80.53125 318.761719 78.777344 320.132812 76.996094 C 320.484375 76.535156 321.320312 76.269531 321.972656 76.40625 C 326.074219 77.296875 330.175781 78.183594 334.277344 79.074219 Z M 319.90625 95.992188 C 320.53125 96.171875 320.707031 96.679688 320.285156 97.125 C 318.675781 98.8125 317.042969 100.472656 315.386719 102.113281 C 314.949219 102.542969 314.089844 102.734375 313.472656 102.542969 C 309.644531 101.347656 305.8125 100.152344 301.980469 98.960938 C 301.375 98.765625 301.210938 98.277344 301.625 97.867188 C 303.203125 96.308594 304.761719 94.722656 306.292969 93.113281 C 306.695312 92.6875 307.539062 92.488281 308.160156 92.664062 C 312.078125 93.773438 315.988281 94.882812 319.90625 95.992188 Z M 290.839844 96.285156 C 293.554688 97.128906 294.285156 99.265625 292.425781 100.996094 C 272.710938 119.371094 249.738281 134.320312 225.453125 147.882812 C 223.160156 149.164062 219.679688 149.074219 217.710938 147.703125 C 202.957031 137.519531 188.207031 127.339844 173.453125 117.15625 C 171.480469 115.785156 171.265625 113.914062 172.960938 112.96875 C 191.058594 102.863281 208.175781 91.722656 222.867188 78.03125 C 224.242188 76.746094 227.539062 76.371094 230.257812 77.214844 C 250.449219 83.570312 270.644531 89.925781 290.839844 96.285156 Z M 304.015625 111.316406 C 304.613281 111.527344 304.726562 112.027344 304.261719 112.433594 C 302.507812 113.964844 300.730469 115.472656 298.933594 116.964844 C 298.464844 117.355469 297.597656 117.492188 297.019531 117.265625 C 293.402344 115.878906 289.785156 114.492188 286.167969 113.109375 C 285.59375 112.890625 285.492188 112.402344 285.9375 112.027344 C 287.652344 110.609375 289.34375 109.167969 291.019531 107.710938 C 291.460938 107.324219 292.304688 107.183594 292.890625 107.386719 C 296.601562 108.699219 300.308594 110.007812 304.015625 111.316406 Z M 286.816406 125.273438 C 287.378906 125.511719 287.4375 126.007812 286.941406 126.371094 C 285.0625 127.773438 283.160156 129.15625 281.246094 130.523438 C 280.746094 130.878906 279.890625 130.960938 279.34375 130.714844 C 275.957031 129.152344 272.570312 127.589844 269.183594 126.027344 C 268.648438 125.78125 268.59375 125.296875 269.070312 124.957031 C 270.898438 123.65625 272.710938 122.339844 274.507812 121.003906 C 274.976562 120.652344 275.8125 120.5625 276.363281 120.796875 C 279.851562 122.292969 283.332031 123.78125 286.816406 125.273438 Z M 268.527344 138.070312 C 269.054688 138.335938 269.054688 138.832031 268.535156 139.167969 C 266.550781 140.460938 264.550781 141.738281 262.535156 143.003906 C 262.007812 143.335938 261.167969 143.375 260.664062 143.097656 C 257.519531 141.375 254.375 139.648438 251.230469 137.925781 C 250.734375 137.65625 250.726562 137.171875 251.230469 136.859375 C 253.152344 135.65625 255.058594 134.4375 256.953125 133.203125 C 257.441406 132.882812 258.28125 132.832031 258.792969 133.097656 C 262.035156 134.753906 265.285156 136.410156 268.527344 138.070312 Z M 249.355469 149.9375 C 249.835938 150.226562 249.789062 150.726562 249.242188 151.042969 C 247.179688 152.25 245.101562 153.445312 243.019531 154.628906 C 242.46875 154.941406 241.640625 154.949219 241.175781 154.648438 C 238.285156 152.773438 235.398438 150.898438 232.507812 149.027344 C 232.050781 148.722656 232.097656 148.242188 232.621094 147.941406 C 234.609375 146.8125 236.589844 145.675781 238.558594 144.523438 C 239.074219 144.226562 239.890625 144.214844 240.367188 144.5 C 243.363281 146.3125 246.359375 148.125 249.355469 149.9375 Z M 162.878906 113.441406 C 163.320312 113.757812 163.367188 114.183594 162.984375 114.386719 C 161.53125 115.167969 160.074219 115.945312 158.613281 116.71875 C 158.226562 116.921875 157.566406 116.828125 157.144531 116.5 C 154.519531 114.484375 151.890625 112.46875 149.261719 110.453125 C 148.839844 110.128906 148.792969 109.714844 149.152344 109.523438 C 150.515625 108.804688 151.875 108.078125 153.226562 107.347656 C 153.585938 107.160156 154.230469 107.253906 154.667969 107.570312 C 157.40625 109.527344 160.144531 111.484375 162.878906 113.441406 Z M 229.503906 161.09375 C 229.945312 161.40625 229.847656 161.914062 229.292969 162.210938 C 227.167969 163.359375 225.035156 164.492188 222.898438 165.625 C 222.335938 165.921875 221.53125 165.894531 221.109375 165.574219 C 218.480469 163.558594 215.851562 161.542969 213.226562 159.527344 C 212.808594 159.207031 212.90625 158.710938 213.4375 158.429688 C 215.476562 157.351562 217.507812 156.265625 219.535156 155.175781 C 220.070312 154.886719 220.859375 154.910156 221.296875 155.222656 C 224.03125 157.179688 226.769531 159.136719 229.503906 161.09375 Z M 209.183594 171.765625 C 209.585938 172.101562 209.453125 172.613281 208.882812 172.902344 C 206.722656 174.011719 204.554688 175.113281 202.382812 176.214844 C 201.820312 176.5 201.042969 176.449219 200.664062 176.105469 C 198.304688 173.949219 195.941406 171.796875 193.582031 169.644531 C 193.207031 169.304688 193.34375 168.796875 193.878906 168.523438 C 195.949219 167.476562 198.011719 166.425781 200.074219 165.367188 C 200.613281 165.09375 201.378906 165.140625 201.769531 165.476562 C 204.238281 167.574219 206.710938 169.667969 209.183594 171.765625 Z M 188.617188 182.167969 C 188.972656 182.527344 188.796875 183.054688 188.230469 183.335938 C 186.054688 184.429688 183.875 185.519531 181.699219 186.609375 C 181.125 186.898438 180.390625 186.828125 180.054688 186.460938 C 177.960938 184.171875 175.871094 181.882812 173.777344 179.59375 C 173.445312 179.230469 173.609375 178.710938 174.152344 178.4375 C 176.230469 177.398438 178.304688 176.359375 180.382812 175.316406 C 180.921875 175.046875 181.65625 175.117188 182.007812 175.472656 C 184.210938 177.703125 186.414062 179.933594 188.617188 182.167969 Z M 168.007812 192.523438 C 168.320312 192.902344 168.105469 193.453125 167.535156 193.738281 C 165.371094 194.835938 163.207031 195.9375 161.046875 197.046875 C 160.476562 197.335938 159.773438 197.257812 159.480469 196.863281 C 157.65625 194.441406 155.832031 192.015625 154.007812 189.59375 C 153.71875 189.207031 153.917969 188.667969 154.460938 188.386719 C 156.519531 187.332031 158.585938 186.285156 160.652344 185.238281 C 161.195312 184.960938 161.894531 185.046875 162.199219 185.421875 C 164.136719 187.789062 166.074219 190.15625 168.007812 192.523438 Z M 147.5625 203.054688 C 147.835938 203.457031 147.589844 204.027344 147.03125 204.324219 C 144.890625 205.453125 142.761719 206.589844 140.636719 207.734375 C 140.078125 208.035156 139.417969 207.945312 139.167969 207.535156 C 137.605469 204.972656 136.046875 202.410156 134.488281 199.847656 C 134.238281 199.4375 134.472656 198.867188 135.003906 198.582031 C 137.027344 197.492188 139.058594 196.40625 141.097656 195.328125 C 141.632812 195.042969 142.289062 195.140625 142.554688 195.542969 C 144.226562 198.042969 145.894531 200.546875 147.5625 203.054688 Z M 126.265625 194.953125 C 127.335938 196.792969 126.339844 199.304688 124.046875 200.585938 C 99.757812 214.144531 76.789062 229.09375 57.074219 247.46875 C 55.214844 249.207031 53.46875 248.730469 53.140625 246.375 C 50.632812 228.851562 48.125 211.324219 45.621094 193.800781 C 45.289062 191.441406 46.113281 188.460938 47.488281 187.179688 C 62.179688 173.488281 79.296875 162.347656 97.394531 152.238281 C 99.089844 151.292969 101.347656 152.027344 102.421875 153.859375 C 110.371094 167.558594 118.320312 181.257812 126.265625 194.953125 Z M 127.488281 213.984375 C 127.714844 214.414062 127.460938 215.007812 126.910156 215.320312 C 124.820312 216.503906 122.742188 217.703125 120.679688 218.910156 C 120.140625 219.222656 119.527344 219.125 119.316406 218.691406 C 118.015625 215.984375 116.714844 213.273438 115.414062 210.566406 C 115.210938 210.136719 115.460938 209.53125 115.96875 209.234375 C 117.941406 208.082031 119.921875 206.941406 121.914062 205.8125 C 122.4375 205.515625 123.042969 205.625 123.265625 206.042969 C 124.675781 208.691406 126.082031 211.339844 127.488281 213.984375 Z M 108.011719 225.53125 C 108.195312 225.980469 107.917969 226.613281 107.390625 226.945312 C 105.378906 228.210938 103.378906 229.484375 101.390625 230.78125 C 100.867188 231.121094 100.3125 231.019531 100.144531 230.558594 C 99.09375 227.691406 98.042969 224.832031 96.992188 221.96875 C 96.824219 221.515625 97.082031 220.878906 97.582031 220.554688 C 99.476562 219.320312 101.382812 218.101562 103.304688 216.894531 C 103.800781 216.582031 104.367188 216.695312 104.550781 217.136719 C 105.703125 219.933594 106.855469 222.734375 108.011719 225.53125 Z M 89.328125 237.914062 C 89.472656 238.394531 89.183594 239.066406 88.675781 239.429688 C 86.761719 240.792969 84.863281 242.175781 82.984375 243.574219 C 82.488281 243.941406 81.976562 243.847656 81.847656 243.359375 C 81.035156 240.332031 80.222656 237.300781 79.410156 234.273438 C 79.28125 233.789062 79.558594 233.105469 80.027344 232.753906 C 81.820312 231.417969 83.632812 230.097656 85.457031 228.800781 C 85.9375 228.457031 86.453125 228.570312 86.597656 229.035156 C 87.507812 231.996094 88.417969 234.957031 89.328125 237.914062 Z M 71.652344 251.359375 C 71.761719 251.863281 71.464844 252.59375 70.992188 252.984375 C 69.195312 254.472656 67.417969 255.980469 65.664062 257.511719 C 65.203125 257.917969 64.75 257.828125 64.65625 257.308594 C 64.066406 254.097656 63.476562 250.886719 62.886719 247.675781 C 62.792969 247.167969 63.074219 246.429688 63.515625 246.042969 C 65.1875 244.585938 66.882812 243.144531 68.59375 241.726562 C 69.046875 241.347656 69.503906 241.460938 69.613281 241.957031 C 70.292969 245.089844 70.972656 248.222656 71.652344 251.359375 Z M 43.855469 185.132812 C 43.933594 185.667969 43.753906 186.339844 43.453125 186.636719 C 42.320312 187.753906 41.203125 188.890625 40.101562 190.046875 C 39.816406 190.351562 39.53125 190.148438 39.472656 189.601562 C 39.089844 186.191406 38.707031 182.777344 38.324219 179.367188 C 38.261719 178.820312 38.433594 178.144531 38.699219 177.867188 C 39.726562 176.789062 40.765625 175.730469 41.824219 174.683594 C 42.097656 174.410156 42.386719 174.621094 42.460938 175.15625 C 42.925781 178.480469 43.390625 181.804688 43.855469 185.132812 Z M 55.191406 266.089844 C 55.265625 266.625 54.976562 267.402344 54.539062 267.835938 C 52.882812 269.472656 51.246094 271.136719 49.640625 272.828125 C 49.222656 273.265625 48.828125 273.183594 48.765625 272.632812 C 48.386719 269.222656 48.003906 265.8125 47.621094 262.398438 C 47.558594 261.859375 47.839844 261.0625 48.234375 260.644531 C 49.769531 259.035156 51.328125 257.449219 52.90625 255.886719 C 53.320312 255.476562 53.722656 255.585938 53.796875 256.109375 C 54.261719 259.4375 54.726562 262.765625 55.191406 266.089844 Z M 4.125 330.125 C 3.242188 332.894531 2.722656 332.601562 2.886719 329.410156 C 4.121094 305.710938 5.355469 282.007812 6.585938 258.300781 C 6.757812 255.109375 7.378906 250.816406 8.03125 248.773438 C 14.980469 226.933594 26.066406 209.453125 39.839844 194.792969 C 41.128906 193.417969 42.453125 194.269531 42.753906 196.652344 C 44.988281 214.449219 47.21875 232.242188 49.449219 250.042969 C 49.753906 252.429688 48.554688 255.832031 46.808594 257.6875 C 28.328125 277.359375 13.453125 300.824219 4.125 330.125 Z M 40.164062 282.316406 C 40.207031 282.890625 39.921875 283.734375 39.53125 284.210938 C 38.039062 286.015625 36.570312 287.855469 35.132812 289.726562 C 34.753906 290.214844 34.425781 290.136719 34.394531 289.550781 C 34.199219 285.917969 34.003906 282.289062 33.808594 278.65625 C 33.78125 278.078125 34.042969 277.222656 34.402344 276.753906 C 35.773438 274.976562 37.171875 273.222656 38.597656 271.496094 C 38.96875 271.046875 39.3125 271.144531 39.355469 271.707031 C 39.625 275.242188 39.894531 278.78125 40.164062 282.316406 Z M 26.773438 300.273438 C 26.792969 300.878906 26.519531 301.800781 26.175781 302.328125 C 24.867188 304.332031 23.589844 306.367188 22.34375 308.433594 C 22.019531 308.976562 21.746094 308.917969 21.742188 308.292969 C 21.714844 304.417969 21.683594 300.539062 21.652344 296.664062 C 21.648438 296.050781 21.898438 295.117188 22.210938 294.597656 C 23.398438 292.625 24.617188 290.683594 25.863281 288.773438 C 26.191406 288.273438 26.472656 288.359375 26.488281 288.960938 C 26.585938 292.730469 26.679688 296.5 26.773438 300.273438 Z M 15.234375 320.167969 C 15.226562 320.820312 14.980469 321.820312 14.691406 322.40625 C 13.589844 324.628906 12.523438 326.882812 11.492188 329.175781 C 11.21875 329.78125 11.015625 329.730469 11.035156 329.0625 C 11.144531 324.917969 11.253906 320.769531 11.363281 316.625 C 11.378906 315.96875 11.601562 314.953125 11.863281 314.375 C 12.84375 312.1875 13.863281 310.035156 14.914062 307.921875 C 15.1875 307.363281 15.40625 307.441406 15.402344 308.078125 C 15.34375 312.109375 15.289062 316.140625 15.234375 320.167969 Z M 5.753906 342.242188 C 5.722656 342.9375 5.511719 344.019531 5.285156 344.671875 C 4.410156 347.136719 3.578125 349.636719 2.78125 352.183594 C 2.574219 352.84375 2.4375 352.8125 2.472656 352.09375 C 2.691406 347.648438 2.914062 343.203125 3.136719 338.753906 C 3.171875 338.050781 3.359375 336.941406 3.554688 336.3125 C 4.3125 333.886719 5.109375 331.496094 5.941406 329.148438 C 6.160156 328.53125 6.316406 328.605469 6.289062 329.289062 C 6.109375 333.609375 5.929688 337.925781 5.753906 342.242188 Z M 8.523438 230.519531 C 8.558594 229.800781 8.691406 228.878906 8.828125 228.457031 C 9.332031 226.835938 9.867188 225.238281 10.421875 223.667969 C 10.566406 223.257812 10.664062 223.484375 10.636719 224.179688 C 10.457031 228.492188 10.277344 232.8125 10.101562 237.128906 C 10.070312 237.828125 9.921875 238.742188 9.761719 239.191406 C 9.167969 240.875 8.59375 242.585938 8.050781 244.328125 C 7.910156 244.78125 7.824219 244.570312 7.859375 243.859375 C 8.082031 239.410156 8.300781 234.960938 8.523438 230.519531 Z M 14.035156 215.691406 C 14.050781 215.027344 14.207031 214.175781 14.378906 213.789062 C 15.035156 212.328125 15.714844 210.890625 16.417969 209.472656 C 16.601562 209.101562 16.75 209.320312 16.742188 209.96875 C 16.6875 214 16.628906 218.027344 16.574219 222.058594 C 16.566406 222.707031 16.394531 223.5625 16.199219 223.960938 C 15.445312 225.480469 14.714844 227.023438 14.007812 228.589844 C 13.824219 229.003906 13.6875 228.800781 13.707031 228.132812 C 13.816406 223.984375 13.925781 219.839844 14.035156 215.691406 Z M 20.929688 202.324219 C 20.925781 201.695312 21.089844 200.910156 21.296875 200.566406 C 22.09375 199.246094 22.90625 197.949219 23.742188 196.675781 C 23.960938 196.339844 24.152344 196.554688 24.167969 197.160156 C 24.265625 200.929688 24.359375 204.703125 24.457031 208.472656 C 24.46875 209.082031 24.289062 209.867188 24.054688 210.226562 C 23.15625 211.597656 22.285156 212.988281 21.433594 214.402344 C 21.207031 214.777344 21.023438 214.570312 21.019531 213.949219 C 20.988281 210.070312 20.957031 206.199219 20.929688 202.324219 Z M 29.074219 190.257812 C 29.042969 189.675781 29.207031 188.953125 29.449219 188.640625 C 30.367188 187.449219 31.300781 186.273438 32.253906 185.125 C 32.5 184.824219 32.746094 185.035156 32.789062 185.601562 C 33.058594 189.140625 33.328125 192.675781 33.597656 196.214844 C 33.636719 196.785156 33.457031 197.507812 33.1875 197.832031 C 32.167969 199.070312 31.164062 200.328125 30.179688 201.605469 C 29.917969 201.945312 29.6875 201.738281 29.65625 201.152344 C 29.460938 197.519531 29.269531 193.890625 29.074219 190.257812 Z M 48.550781 169.503906 C 48.457031 168.988281 48.621094 168.359375 48.914062 168.105469 C 50.035156 167.128906 51.167969 166.164062 52.3125 165.214844 C 52.613281 164.96875 52.949219 165.167969 53.058594 165.671875 C 53.738281 168.808594 54.417969 171.941406 55.097656 175.074219 C 55.207031 175.578125 55.03125 176.207031 54.707031 176.476562 C 53.480469 177.492188 52.261719 178.527344 51.0625 179.574219 C 50.75 179.847656 50.414062 179.65625 50.320312 179.136719 C 49.730469 175.925781 49.140625 172.71875 48.550781 169.503906 Z M 59.621094 160.523438 C 59.488281 160.035156 59.640625 159.453125 59.957031 159.214844 C 61.15625 158.324219 62.363281 157.445312 63.585938 156.574219 C 63.90625 156.34375 64.285156 156.546875 64.433594 157.019531 C 65.34375 159.976562 66.253906 162.9375 67.164062 165.894531 C 67.3125 166.375 67.148438 166.957031 66.804688 167.203125 C 65.496094 168.136719 64.195312 169.082031 62.910156 170.039062 C 62.570312 170.296875 62.1875 170.097656 62.058594 169.613281 C 61.246094 166.582031 60.433594 163.554688 59.621094 160.523438 Z M 71.394531 152.28125 C 71.226562 151.820312 71.359375 151.277344 71.691406 151.0625 C 72.957031 150.234375 74.234375 149.421875 75.515625 148.617188 C 75.851562 148.410156 76.277344 148.59375 76.460938 149.046875 C 77.613281 151.847656 78.769531 154.640625 79.921875 157.4375 C 80.109375 157.886719 79.960938 158.441406 79.605469 158.664062 C 78.226562 159.527344 76.859375 160.402344 75.5 161.285156 C 75.140625 161.523438 74.71875 161.332031 74.550781 160.871094 C 73.5 158.007812 72.449219 155.148438 71.394531 152.28125 Z M 83.738281 144.644531 C 83.53125 144.210938 83.644531 143.691406 83.984375 143.496094 C 85.304688 142.726562 86.628906 141.960938 87.960938 141.203125 C 88.308594 141.007812 88.773438 141.1875 89 141.617188 C 90.40625 144.261719 91.816406 146.910156 93.222656 149.554688 C 93.449219 149.984375 93.332031 150.5 92.957031 150.710938 C 91.527344 151.523438 90.105469 152.339844 88.691406 153.167969 C 88.328125 153.382812 87.855469 153.203125 87.644531 152.769531 C 86.339844 150.058594 85.042969 147.351562 83.738281 144.644531 Z M 96.515625 137.460938 C 96.265625 137.050781 96.355469 136.5625 96.710938 136.371094 C 98.066406 135.640625 99.421875 134.914062 100.785156 134.195312 C 101.144531 134.003906 101.65625 134.175781 101.921875 134.578125 C 103.589844 137.085938 105.261719 139.585938 106.929688 142.089844 C 107.199219 142.492188 107.101562 142.992188 106.71875 143.191406 C 105.253906 143.964844 103.796875 144.742188 102.34375 145.527344 C 101.964844 145.734375 101.445312 145.5625 101.195312 145.152344 C 99.636719 142.589844 98.078125 140.027344 96.515625 137.460938 Z M 109.59375 130.597656 C 109.300781 130.207031 109.359375 129.738281 109.722656 129.554688 C 111.097656 128.847656 112.476562 128.148438 113.859375 127.449219 C 114.222656 127.265625 114.769531 127.421875 115.082031 127.796875 C 117.019531 130.164062 118.953125 132.53125 120.890625 134.898438 C 121.203125 135.28125 121.136719 135.753906 120.746094 135.949219 C 119.261719 136.703125 117.78125 137.457031 116.304688 138.210938 C 115.917969 138.410156 115.359375 138.257812 115.066406 137.867188 C 113.242188 135.445312 111.417969 133.019531 109.59375 130.597656 Z M 122.835938 123.898438 C 122.5 123.527344 122.519531 123.089844 122.886719 122.90625 C 124.273438 122.207031 125.664062 121.511719 127.050781 120.816406 C 127.410156 120.636719 127.996094 120.777344 128.351562 121.132812 C 130.554688 123.367188 132.757812 125.597656 134.960938 127.828125 C 135.316406 128.191406 135.285156 128.644531 134.898438 128.835938 C 133.410156 129.582031 131.921875 130.332031 130.429688 131.074219 C 130.039062 131.269531 129.449219 131.128906 129.113281 130.761719 C 127.023438 128.472656 124.929688 126.1875 122.835938 123.898438 Z M 163.148438 118.308594 C 164.871094 117.390625 167.839844 117.769531 169.78125 119.152344 C 184.179688 129.53125 198.582031 139.902344 212.980469 150.277344 C 214.921875 151.664062 214.613281 153.808594 212.28125 155.050781 C 187.585938 168.175781 161.914062 180.289062 137.214844 193.417969 C 134.886719 194.65625 132.105469 194.199219 130.996094 192.382812 C 122.699219 178.875 114.398438 165.367188 106.097656 151.859375 C 104.992188 150.042969 105.484375 147.816406 107.207031 146.902344 C 125.613281 137.113281 144.742188 128.089844 163.148438 118.308594 Z M 136.105469 117.230469 C 135.722656 116.882812 135.714844 116.457031 136.074219 116.273438 C 137.457031 115.574219 138.839844 114.871094 140.21875 114.164062 C 140.578125 113.980469 141.1875 114.101562 141.589844 114.4375 C 144.058594 116.539062 146.53125 118.632812 149.003906 120.726562 C 149.402344 121.066406 149.414062 121.503906 149.027344 121.699219 C 147.546875 122.457031 146.066406 123.210938 144.582031 123.960938 C 144.195312 124.15625 143.566406 124.039062 143.1875 123.691406 C 140.824219 121.535156 138.464844 119.382812 136.105469 117.230469 Z M 162.179688 103.417969 C 161.714844 103.117188 161.628906 102.710938 161.976562 102.515625 C 163.308594 101.757812 164.632812 101 165.949219 100.230469 C 166.292969 100.023438 166.960938 100.09375 167.445312 100.386719 C 170.441406 102.199219 173.4375 104.011719 176.433594 105.820312 C 176.914062 106.117188 177.003906 106.53125 176.632812 106.746094 C 175.21875 107.574219 173.800781 108.390625 172.375 109.199219 C 171.996094 109.414062 171.3125 109.339844 170.847656 109.039062 C 167.960938 107.164062 165.070312 105.292969 162.179688 103.417969 Z M 174.726562 95.984375 C 174.21875 95.707031 174.085938 95.316406 174.421875 95.105469 C 175.707031 94.296875 176.980469 93.484375 178.246094 92.65625 C 178.574219 92.445312 179.265625 92.480469 179.789062 92.75 C 183.03125 94.40625 186.277344 96.0625 189.523438 97.722656 C 190.046875 97.988281 190.183594 98.398438 189.828125 98.625 C 188.46875 99.507812 187.101562 100.382812 185.726562 101.246094 C 185.363281 101.476562 184.660156 101.425781 184.152344 101.152344 C 181.011719 99.429688 177.867188 97.707031 174.726562 95.984375 Z M 186.75 88.011719 C 186.207031 87.761719 186.03125 87.375 186.347656 87.148438 C 187.570312 86.277344 188.78125 85.398438 189.980469 84.5 C 190.296875 84.265625 191 84.269531 191.558594 84.511719 C 195.042969 86 198.527344 87.492188 202.011719 88.984375 C 202.574219 89.222656 202.757812 89.621094 202.421875 89.871094 C 201.132812 90.832031 199.832031 91.777344 198.519531 92.714844 C 198.183594 92.953125 197.457031 92.949219 196.910156 92.699219 C 193.523438 91.136719 190.136719 89.574219 186.75 88.011719 Z M 198.128906 79.359375 C 197.546875 79.136719 197.328125 78.75 197.625 78.503906 C 198.769531 77.554688 199.902344 76.589844 201.023438 75.613281 C 201.316406 75.359375 202.035156 75.316406 202.632812 75.523438 C 206.339844 76.835938 210.046875 78.140625 213.753906 79.453125 C 214.355469 79.664062 214.582031 80.0625 214.265625 80.339844 C 213.066406 81.386719 211.851562 82.417969 210.621094 83.4375 C 210.296875 83.703125 209.558594 83.738281 208.976562 83.515625 C 205.359375 82.128906 201.742188 80.742188 198.128906 79.359375 Z M 208.71875 69.878906 C 208.105469 69.6875 207.835938 69.308594 208.113281 69.035156 C 209.167969 67.988281 210.210938 66.933594 211.234375 65.855469 C 211.503906 65.574219 212.230469 65.480469 212.859375 65.664062 C 216.773438 66.769531 220.691406 67.878906 224.605469 68.988281 C 225.234375 69.167969 225.515625 69.558594 225.222656 69.867188 C 224.125 71.019531 223.007812 72.15625 221.875 73.277344 C 221.578125 73.570312 220.832031 73.652344 220.214844 73.460938 C 216.382812 72.265625 212.550781 71.070312 208.71875 69.878906 Z M 218.394531 59.429688 C 217.75 59.265625 217.429688 58.898438 217.683594 58.597656 C 218.632812 57.441406 219.570312 56.269531 220.484375 55.078125 C 220.722656 54.769531 221.449219 54.628906 222.109375 54.769531 C 226.210938 55.660156 230.316406 56.546875 234.417969 57.4375 C 235.078125 57.582031 235.40625 57.972656 235.152344 58.304688 C 234.164062 59.585938 233.164062 60.839844 232.140625 62.078125 C 231.875 62.402344 231.125 62.535156 230.480469 62.375 C 226.449219 61.390625 222.425781 60.414062 218.394531 59.429688 Z M 227.015625 47.871094 C 226.335938 47.75 225.976562 47.382812 226.191406 47.050781 C 227.03125 45.769531 227.84375 44.472656 228.636719 43.152344 C 228.84375 42.808594 229.566406 42.609375 230.253906 42.710938 C 234.519531 43.355469 238.785156 44 243.050781 44.644531 C 243.738281 44.75 244.121094 45.132812 243.894531 45.507812 C 243.042969 46.925781 242.167969 48.316406 241.273438 49.6875 C 241.042969 50.046875 240.292969 50.242188 239.621094 50.117188 C 235.417969 49.367188 231.214844 48.617188 227.015625 47.871094 Z M 234.441406 35.0625 C 233.742188 34.984375 233.332031 34.617188 233.515625 34.246094 C 234.21875 32.828125 234.898438 31.386719 235.558594 29.929688 C 235.730469 29.542969 236.4375 29.277344 237.148438 29.335938 C 241.554688 29.707031 245.960938 30.082031 250.367188 30.457031 C 251.074219 30.519531 251.503906 30.90625 251.316406 31.320312 C 250.613281 32.886719 249.882812 34.429688 249.132812 35.949219 C 248.929688 36.351562 248.203125 36.609375 247.5 36.53125 C 243.148438 36.039062 238.796875 35.550781 234.441406 35.0625 Z M 240.542969 20.859375 C 239.824219 20.824219 239.367188 20.464844 239.515625 20.050781 C 240.070312 18.480469 240.601562 16.886719 241.109375 15.265625 C 241.238281 14.839844 241.929688 14.5 242.660156 14.511719 C 247.175781 14.582031 251.695312 14.660156 256.214844 14.734375 C 256.9375 14.746094 257.417969 15.128906 257.277344 15.589844 C 256.730469 17.328125 256.160156 19.039062 255.566406 20.71875 C 255.40625 21.164062 254.691406 21.496094 253.96875 21.464844 C 249.496094 21.261719 245.019531 21.058594 240.542969 20.859375 Z M 7.523438 228.613281 C 5.011719 274.453125 2.5 320.296875 -0.0117188 366.136719 C 52.398438 170.769531 322.570312 204.496094 374.980469 9.125 C 329.105469 9.351562 283.234375 9.574219 237.359375 9.800781 C 205.238281 129.539062 39.648438 108.871094 7.523438 228.613281 " fill-opacity="1" fill-rule="nonzero"/></g></svg>