<svg xmlns="http://www.w3.org/2000/svg" xmlns:xlink="http://www.w3.org/1999/xlink" width="500" zoomAndPan="magnify" viewBox="0 0 375 374.999991" height="500" preserveAspectRatio="xMidYMid meet" version="1.0"><path fill="#000000" d="M 349.828125 146.851562 C 350.222656 152.167969 350.304688 155.46875 349.910156 155.515625 C 349.546875 155.5625 348.765625 152.34375 347.867188 147.097656 C 346.9375 141.847656 345.933594 134.597656 344.21875 126.75 C 343.335938 122.84375 342.308594 119.183594 341.226562 115.90625 C 340.070312 112.640625 338.929688 109.761719 337.75 107.40625 C 335.476562 102.765625 333.519531 100 333.90625 99.757812 C 334.171875 99.570312 336.609375 101.785156 339.5 106.460938 C 340.945312 108.757812 342.34375 111.683594 343.648438 115.019531 C 344.917969 118.367188 346.0625 122.144531 346.972656 126.15625 C 348.707031 134.175781 349.40625 141.546875 349.828125 146.851562 " fill-opacity="1" fill-rule="nonzero"/><path fill="#000000" d="M 330.453125 189.792969 C 340.652344 186.496094 345.539062 173.914062 341.503906 164.085938 C 337.644531 154.757812 327.25 151.492188 317.890625 154.140625 C 308.761719 156.714844 299.578125 164.796875 303.761719 175.359375 C 307.84375 185.667969 319.613281 192.105469 330.453125 189.792969 Z M 346.855469 164.445312 C 349.710938 176.722656 344.78125 189.945312 332.484375 194.332031 C 332.273438 194.457031 332.050781 194.550781 331.773438 194.597656 C 331.503906 194.703125 331.257812 194.714844 331.027344 194.738281 C 318.042969 197.046875 300.917969 188.957031 298.4375 174.882812 C 296.128906 161.824219 305.417969 150.992188 318.273438 148.9375 C 330.1875 147.050781 343.765625 151.304688 346.855469 164.445312 " fill-opacity="1" fill-rule="nonzero"/><path fill="#000000" d="M 341.808594 195.054688 C 342.191406 195.207031 341.421875 197.980469 340.222656 202.457031 C 339.011719 206.933594 337.425781 213.171875 334.988281 219.9375 C 333.730469 223.316406 332.320312 226.476562 330.828125 229.242188 C 329.277344 231.96875 327.679688 234.347656 326.09375 236.15625 C 322.914062 239.828125 320.394531 241.261719 320.175781 241.027344 C 319.847656 240.726562 321.992188 238.625 324.523438 234.929688 C 325.828125 233.089844 327.167969 230.722656 328.53125 228.039062 C 329.835938 225.335938 331.140625 222.269531 332.355469 218.96875 C 334.730469 212.367188 336.609375 206.199219 338.34375 201.839844 C 340.023438 197.46875 341.457031 194.902344 341.808594 195.054688 " fill-opacity="1" fill-rule="nonzero"/><path fill="#000000" d="M 28.394531 311.535156 C 26.949219 307.375 25.582031 303.199219 24.113281 299.046875 C 18.207031 296.785156 12.679688 293.511719 6.421875 292.484375 C 7.808594 296.972656 9.71875 301.324219 11.621094 305.613281 C 17.0625 306.265625 22.75 309.203125 28.394531 311.535156 Z M 48.125 312.121094 C 49.140625 311.441406 50.109375 310.707031 51.039062 309.925781 C 49.140625 305.660156 44.828125 302.976562 42.496094 298.992188 C 39.523438 300.585938 36.273438 301.519531 32.785156 301.21875 C 30.816406 301.054688 28.941406 300.65625 27.109375 300.097656 C 28.578125 304.296875 29.941406 308.527344 31.433594 312.726562 C 37.203125 314.789062 42.871094 315.628906 48.125 312.121094 Z M 62.472656 296.808594 C 59.457031 294.28125 56.914062 291.28125 54.398438 288.273438 C 54.210938 288.519531 54.011719 288.753906 53.8125 288.996094 C 51.273438 292.0625 48.160156 295.328125 44.59375 297.71875 C 46.644531 301.613281 50.761719 304.332031 52.953125 308.261719 C 56.519531 304.914062 59.59375 300.914062 62.472656 296.808594 Z M 69.457031 286.492188 C 70.398438 285.125 71.367188 283.703125 72.382812 282.246094 C 69.6875 279.601562 67.464844 276.566406 65.285156 273.5 C 62.289062 277.851562 59.257812 282.164062 55.992188 286.304688 C 58.476562 289.265625 60.972656 292.214844 63.894531 294.746094 C 65.796875 291.949219 67.625 289.136719 69.457031 286.492188 Z M 80.609375 270.84375 C 79.257812 267.089844 77.476562 263.148438 74.457031 260.523438 C 71.8125 264.046875 69.292969 267.671875 66.796875 271.320312 C 68.976562 274.398438 71.167969 277.453125 73.839844 280.148438 C 75.949219 277.105469 78.199219 273.921875 80.609375 270.84375 Z M 91.207031 259.324219 C 89.445312 255.324219 87.300781 251.546875 85.34375 247.652344 C 81.953125 251.066406 78.863281 254.707031 75.949219 258.507812 C 78.992188 261.105469 80.9375 264.828125 82.40625 268.582031 C 85.132812 265.246094 88.046875 262.085938 91.207031 259.324219 Z M 106.625 250.648438 C 104.773438 246.242188 102.921875 241.84375 100.730469 237.578125 C 95.761719 239.152344 91.230469 242.078125 87.230469 245.808594 C 87.230469 245.820312 87.230469 245.820312 87.230469 245.820312 C 89.179688 249.785156 91.371094 253.644531 93.1875 257.679688 C 97.265625 254.425781 101.71875 251.929688 106.625 250.648438 Z M 120.160156 250.101562 C 119.308594 245.820312 118.363281 241.542969 116.605469 237.554688 C 115.671875 237.25 114.703125 236.972656 113.667969 236.785156 C 110.042969 236.085938 106.535156 236.203125 103.1875 236.914062 C 105.367188 241.226562 107.234375 245.667969 109.074219 250.113281 C 109.109375 250.113281 109.132812 250.113281 109.167969 250.101562 C 112.816406 249.503906 116.546875 249.515625 120.160156 250.101562 Z M 132.585938 254.824219 C 131.863281 252.558594 131.242188 250.25 131.082031 247.886719 C 127.664062 244.375 124.238281 241.003906 119.773438 238.8125 C 121.171875 242.625 122.011719 246.625 122.804688 250.613281 C 126.253906 251.464844 129.542969 252.875 132.585938 254.824219 Z M 150.476562 271.007812 C 149.964844 267.542969 148.714844 264.195312 147.503906 260.875 C 145.03125 259.566406 142.679688 258.132812 140.476562 256.535156 C 138.109375 254.859375 136.046875 252.933594 134.078125 250.953125 C 134.566406 253.132812 135.347656 255.265625 136.117188 257.375 C 139.894531 260.523438 143.003906 264.152344 146.511719 267.648438 C 147.785156 268.871094 149.101562 269.992188 150.476562 271.007812 Z M 164.71875 278.316406 C 165.371094 278.550781 166.035156 278.785156 166.691406 279.015625 C 165.140625 274.972656 163.84375 270.84375 162.039062 266.890625 C 158.203125 265.667969 154.371094 264.21875 150.710938 262.484375 C 151.910156 265.863281 152.957031 269.28125 153.15625 272.835938 C 156.746094 275.085938 160.652344 276.800781 164.71875 278.316406 Z M 179.417969 198.097656 C 179.101562 191.988281 179.21875 185.867188 179.710938 179.824219 C 176.503906 178.90625 173.355469 177.667969 170.082031 177.097656 C 169.824219 183.371094 170.046875 189.726562 170.710938 195.964844 C 173.578125 196.8125 176.515625 197.351562 179.417969 198.097656 Z M 182.355469 219.585938 C 180.945312 213.394531 180.035156 207.085938 179.582031 200.730469 C 176.75 199.9375 173.871094 199.414062 171.050781 198.632812 C 171.875 205.128906 173.195312 211.449219 174.988281 217.371094 C 175.105469 217.800781 175.257812 218.222656 175.40625 218.640625 C 177.75 218.582031 180.09375 218.933594 182.355469 219.585938 Z M 180.164062 175.101562 C 180.78125 169.761719 181.667969 164.351562 182.773438 158.941406 C 179.5 157.800781 176.039062 157.449219 172.609375 156.9375 C 171.363281 162.605469 170.546875 168.550781 170.199219 174.613281 C 173.53125 175.195312 176.691406 176.339844 179.941406 177.296875 C 180.011719 176.5625 180.082031 175.828125 180.164062 175.101562 Z M 186.28125 284.355469 C 184.769531 279.679688 182.65625 275.214844 181.199219 270.527344 C 177.367188 270.375 173.578125 269.992188 169.824219 269.070312 C 168.285156 268.699219 166.714844 268.277344 165.152344 267.824219 C 166.816406 271.859375 168.136719 276.03125 169.777344 280.078125 C 175.105469 281.863281 180.664062 283.390625 186.28125 284.355469 Z M 183.289062 156.492188 C 184.523438 150.957031 186.027344 145.417969 187.785156 139.960938 C 184.746094 139.191406 181.667969 138.433594 178.648438 137.546875 C 176.945312 141.929688 175.453125 146.351562 174.160156 150.769531 C 173.8125 151.992188 173.472656 153.242188 173.160156 154.5 C 176.574219 155.011719 180.035156 155.363281 183.289062 156.492188 Z M 188.589844 137.59375 C 190.046875 133.289062 191.691406 129.070312 193.511719 124.917969 C 190.757812 124.136719 187.984375 123.4375 185.292969 122.445312 C 183.207031 126.632812 181.292969 130.902344 179.570312 135.214844 C 182.542969 136.078125 185.570312 136.824219 188.589844 137.59375 Z M 192.296875 247.058594 C 192.648438 247.40625 193.03125 247.734375 193.417969 248.070312 C 188.765625 240.097656 185.351562 231.421875 183.042969 222.417969 C 180.828125 221.683594 178.554688 221.207031 176.222656 221.148438 C 179.652344 230.882812 184.710938 239.839844 192.296875 247.058594 Z M 203.078125 106.800781 C 200.210938 106.425781 196.378906 106.332031 194.453125 106.296875 C 191.574219 110.785156 188.90625 115.4375 186.433594 120.207031 C 189.105469 121.140625 191.832031 121.828125 194.546875 122.609375 C 197.054688 117.152344 199.898438 111.859375 203.078125 106.800781 Z M 205.363281 285.070312 C 205.679688 285.023438 205.992188 284.976562 206.308594 284.929688 C 204.863281 279.84375 203.195312 274.855469 200.585938 270.238281 C 195 270.296875 189.394531 270.644531 183.847656 270.585938 C 185.410156 275.390625 187.601562 279.949219 189.035156 284.789062 C 194.488281 285.558594 200.003906 285.757812 205.363281 285.070312 Z M 213.429688 92.667969 C 210.785156 92.027344 208.101562 91.652344 205.445312 91.128906 C 202.148438 95.164062 199.023438 99.382812 196.074219 103.800781 C 199.269531 103.824219 201.726562 104 204.523438 104.539062 C 207.253906 100.386719 210.210938 96.410156 213.429688 92.667969 Z M 208.777344 284.542969 C 211.949219 283.996094 215.097656 283.273438 218.242188 282.621094 C 215.832031 278.292969 213.066406 274.269531 209.746094 270.585938 C 209.105469 270.527344 208.441406 270.46875 207.789062 270.421875 C 206.34375 270.410156 204.886719 270.457031 203.441406 270.261719 C 205.820312 274.785156 207.402344 279.625 208.777344 284.542969 Z M 226.15625 80.179688 C 224.609375 79.667969 223.070312 79.199219 221.460938 78.851562 C 216.15625 81.671875 210.96875 84.984375 207.296875 88.949219 C 209.96875 89.4375 212.648438 89.867188 215.269531 90.582031 C 218.640625 86.847656 222.265625 83.375 226.15625 80.179688 Z M 229.128906 281.058594 C 229.816406 281.035156 230.503906 281 231.179688 280.964844 C 225.410156 279.027344 219.898438 276.230469 214.804688 272.488281 C 214.664062 272.382812 214.511719 272.289062 214.339844 272.183594 C 216.773438 275.296875 218.917969 278.621094 220.820312 282.128906 C 223.582031 281.605469 226.34375 281.199219 229.128906 281.058594 Z M 240.121094 70.710938 C 240.167969 70.675781 240.214844 70.652344 240.273438 70.617188 C 240.179688 70.570312 240.121094 70.5 240.074219 70.445312 C 237.488281 71.316406 234.921875 72.308594 232.464844 73.476562 C 230.085938 74.582031 227.476562 75.796875 224.828125 77.136719 C 225.890625 77.429688 226.949219 77.777344 228.023438 78.164062 C 228.175781 78.210938 228.300781 78.300781 228.417969 78.394531 C 232.101562 75.574219 235.972656 72.972656 240.121094 70.710938 Z M 270.332031 59.589844 C 269.238281 59.472656 268.117188 59.367188 267.011719 59.355469 C 259.355469 59.191406 251.636719 60.125 244.222656 62.152344 C 230.503906 65.90625 217.007812 72.074219 206.15625 81.496094 C 185.292969 99.640625 171.726562 126.351562 166.140625 153.21875 C 160.09375 182.332031 160.652344 214.210938 177.296875 239.96875 C 181.199219 245.984375 185.652344 251.824219 191.179688 256.488281 C 195 259.71875 200.828125 265.632812 206.285156 265.023438 C 203.125 261.832031 200.28125 258.402344 197.71875 254.789062 C 192.390625 250.183594 186.691406 245.820312 182.855469 239.992188 C 176.886719 230.941406 172.726562 221.066406 170.746094 210.363281 C 168.648438 199.042969 167.503906 187.429688 167.914062 175.90625 C 167.820312 175.59375 167.832031 175.242188 167.949219 174.964844 C 168.238281 168.421875 169.03125 161.925781 170.441406 155.539062 C 170.464844 155.421875 170.5 155.304688 170.535156 155.1875 C 171.339844 151.621094 172.332031 148.074219 173.554688 144.601562 C 177.296875 133.992188 181.714844 123.601562 187.308594 113.84375 C 192.53125 104.734375 198.335938 93.332031 206.425781 86.382812 C 220.238281 74.535156 236.871094 68.578125 254.0625 64.277344 C 259.367188 62.28125 264.832031 60.683594 270.332031 59.589844 Z M 283.914062 273.804688 C 354.523438 245.621094 371.566406 146.675781 334.195312 86.5 C 323.835938 70.992188 307.957031 63.632812 290.835938 62.679688 C 290.707031 62.703125 290.566406 62.714844 290.441406 62.714844 C 289.542969 62.703125 288.644531 62.65625 287.757812 62.5625 C 280.449219 62.503906 272.945312 63.550781 265.613281 65.617188 C 239.75 72.867188 219.351562 89.332031 205.761719 112.441406 C 184.710938 148.226562 175.269531 198.003906 193.382812 236.984375 C 198.476562 247.953125 205.65625 258.671875 215.097656 266.484375 C 215.269531 266.597656 215.421875 266.714844 215.5625 266.867188 C 216.085938 267.296875 216.636719 267.730469 217.207031 268.148438 C 222.394531 271.949219 227.042969 274.433594 233.476562 276.078125 C 234.09375 276.230469 234.527344 276.546875 234.804688 276.953125 C 250.75 281.511719 268.609375 279.890625 283.914062 273.804688 Z M 338.53125 83.992188 C 374.886719 142.570312 361.9375 235.246094 299.496094 271.695312 C 285.464844 279.867188 268.609375 284.777344 252.183594 284.484375 C 251.988281 284.578125 251.765625 284.636719 251.53125 284.660156 C 242.382812 285.839844 232.917969 284.988281 223.828125 286.6875 C 216.832031 288.007812 209.546875 290.339844 202.367188 290.269531 C 189.804688 290.128906 177.585938 288.355469 165.769531 284.007812 C 154.277344 279.761719 146.699219 274.550781 138.167969 265.910156 C 129.390625 257.039062 116.40625 250.800781 104.25 256.980469 C 85.726562 266.378906 75.585938 287.320312 63.546875 303.316406 C 57.976562 310.71875 51.890625 317.796875 42.296875 319.359375 C 30.6875 321.261719 21.316406 310.824219 9.976562 310.464844 C 9.007812 310.429688 8.320312 309.9375 7.9375 309.285156 C 7.796875 309.121094 7.65625 308.925781 7.539062 308.679688 C 4.90625 302.722656 2.144531 296.671875 0.640625 290.316406 C 0.335938 289.054688 0.953125 288.089844 1.828125 287.585938 C 2.214844 287.308594 2.714844 287.132812 3.308594 287.15625 C 7.890625 287.308594 12.132812 288.238281 16.292969 290.210938 C 22.203125 293.03125 29.511719 297.882812 36.398438 295.914062 C 47.089844 292.800781 53.488281 281.523438 59.515625 272.917969 C 68.804688 259.613281 78.441406 242.789062 93.457031 235.1875 C 110.507812 226.511719 126.195312 234.265625 138.179688 247.464844 C 147.097656 257.292969 163.320312 264.152344 176.574219 265.058594 C 182.484375 265.46875 188.382812 265.316406 194.277344 265.234375 C 185.140625 258.4375 177.214844 250.148438 171.574219 240.132812 C 156.351562 213.113281 154.566406 181.785156 161.328125 151.910156 C 167.785156 123.320312 181.75 95.011719 204.757812 76.214844 C 215.65625 67.332031 229.234375 60.648438 242.894531 57.324219 C 250.472656 55.496094 259.167969 53.546875 267.011719 54.351562 C 274.878906 55.179688 282.480469 57.640625 290.441406 57.722656 C 290.871094 57.722656 291.234375 57.828125 291.546875 57.992188 C 309.835938 59.003906 326.96875 66.6875 338.53125 83.992188 " fill-opacity="1" fill-rule="nonzero"/><path fill="#000000" d="M 310.09375 139.785156 C 318.742188 133.546875 325.335938 122.003906 323.742188 111.101562 C 321.304688 100.199219 312.597656 92.175781 301.328125 98.078125 C 291.875 103 286.152344 112.6875 285.742188 123.355469 C 285.464844 130.644531 287.199219 138.539062 294.695312 141.699219 C 299.929688 143.914062 305.5 143.097656 310.09375 139.785156 Z M 328.613281 110.402344 C 330.382812 124.835938 321.410156 140.789062 307.992188 146.511719 C 293.738281 152.601562 280.125 139.820312 280.671875 125.46875 C 281.183594 111.683594 287.921875 96.691406 302.164062 92.363281 C 315.59375 88.285156 325.3125 96.421875 328.390625 109.214844 C 328.460938 109.375 328.507812 109.5625 328.542969 109.773438 C 328.589844 109.992188 328.613281 110.203125 328.613281 110.402344 " fill-opacity="1" fill-rule="nonzero"/><path fill="#000000" d="M 312.339844 230.171875 C 314.519531 220.867188 311 212.566406 301.292969 209.898438 C 294.25 207.984375 284.949219 208.253906 279.191406 213.394531 C 270.636719 221.019531 273.003906 235.234375 279.390625 243.652344 C 291.769531 259.976562 307.632812 244.09375 312.339844 230.171875 Z M 302.621094 205.09375 C 314.648438 209.046875 319.859375 218.734375 317.285156 230.839844 C 317.261719 231.058594 317.226562 231.269531 317.144531 231.492188 C 317.097656 231.699219 317.027344 231.886719 316.945312 232.074219 C 312.585938 244.140625 297.222656 263.964844 282.628906 253.597656 C 270.996094 245.34375 263.550781 225.835938 272.570312 213.148438 C 278.878906 204.277344 292.734375 201.839844 302.621094 205.09375 " fill-opacity="1" fill-rule="nonzero"/><path fill="#000000" d="M 309.402344 77.800781 C 310.835938 78.933594 311.558594 79.632812 311.445312 79.78125 C 311.316406 79.921875 310.394531 79.550781 308.820312 78.710938 C 307.28125 77.847656 304.988281 76.726562 302.109375 75.480469 C 300.640625 74.933594 299.089844 74.222656 297.304688 73.730469 C 296.429688 73.476562 295.535156 73.160156 294.601562 72.902344 C 293.644531 72.707031 292.667969 72.472656 291.652344 72.25 C 287.632812 71.457031 283.121094 71.027344 278.375 71.238281 C 268.851562 71.726562 260.519531 74.488281 254.679688 76.796875 C 248.851562 79.140625 245.296875 81.007812 245.074219 80.609375 C 244.945312 80.308594 248.058594 77.894531 253.863281 74.980469 C 259.621094 72.15625 268.222656 68.9375 278.238281 68.425781 C 283.238281 68.203125 288.003906 68.742188 292.222656 69.71875 C 293.273438 70.011719 294.285156 70.269531 295.265625 70.535156 C 296.246094 70.839844 297.175781 71.203125 298.074219 71.539062 C 299.90625 72.132812 301.464844 73.007812 302.945312 73.683594 C 305.8125 75.210938 308.027344 76.636719 309.402344 77.800781 " fill-opacity="1" fill-rule="nonzero"/><path fill="#000000" d="M 285.976562 175.078125 C 286.023438 174.078125 286 171.242188 284.566406 171.035156 C 282.945312 170.800781 281.289062 174.332031 280.90625 175.464844 C 280.589844 176.363281 280.195312 177.515625 280.554688 178.472656 C 280.90625 179.324219 282.046875 179.253906 282.863281 179.171875 C 284.867188 178.789062 285.882812 177.039062 285.976562 175.078125 Z M 284.695312 168.550781 C 287.597656 168.667969 288.585938 172.445312 288.46875 174.777344 C 288.320312 177.878906 286.792969 181.015625 283.480469 181.585938 C 283.410156 181.597656 283.363281 181.585938 283.296875 181.585938 C 283.25 181.597656 283.214844 181.621094 283.15625 181.632812 C 278.992188 182.085938 277.070312 178.90625 278.386719 175.125 C 279.285156 172.515625 281.417969 168.433594 284.695312 168.550781 " fill-opacity="1" fill-rule="nonzero"/><path fill="#000000" d="M 265.25 199.71875 C 290.21875 206.921875 303.820312 163.339844 282.898438 151.375 C 256.625 136.3125 242.148438 188.957031 265.25 199.71875 Z M 282.886719 147.328125 C 307.773438 161.589844 294.8125 212.042969 264.214844 203.074219 C 264.097656 203.039062 264.027344 202.96875 263.933594 202.925781 C 263.875 202.914062 263.839844 202.914062 263.792969 202.890625 C 250.878906 197.1875 248.351562 179.066406 251.460938 166.730469 C 254.632812 154.171875 268.503906 139.109375 282.886719 147.328125 " fill-opacity="1" fill-rule="nonzero"/><path fill="#000000" d="M 270.765625 161.378906 C 274.179688 164.890625 279.238281 159.292969 277.070312 155.632812 C 274.414062 151.96875 267.675781 158.160156 270.765625 161.378906 Z M 279.238281 154.371094 C 281.09375 157.484375 279.855469 161.425781 277.105469 163.59375 C 274.566406 165.601562 270.484375 165.425781 268.574219 162.59375 C 264.492188 156.492188 274.0625 148.4375 278.878906 153.976562 C 279.003906 154.070312 279.132812 154.183594 279.238281 154.371094 " fill-opacity="1" fill-rule="nonzero"/><path fill="#000000" d="M 270.824219 195.148438 C 275.390625 195.25 276.289062 185.574219 272.546875 186.027344 C 270.390625 186.285156 268.957031 188.164062 268.644531 190.179688 C 268.316406 192.183594 268.585938 194.632812 270.824219 195.148438 Z M 273.175781 183.535156 C 280.359375 183.859375 277.792969 198.179688 270.671875 197.652344 C 270.601562 197.652344 270.554688 197.617188 270.484375 197.59375 C 270.4375 197.59375 270.390625 197.617188 270.332031 197.617188 C 266.40625 196.929688 265.507812 192.5 266.289062 189.152344 C 267.046875 186.027344 269.820312 183.371094 273.175781 183.535156 " fill-opacity="1" fill-rule="nonzero"/><path fill="#000000" d="M 268.585938 265.597656 C 268.644531 265.78125 267.664062 266.191406 265.800781 266.832031 C 263.945312 267.53125 261.171875 268.089844 257.675781 268.558594 C 255.9375 268.710938 253.992188 268.953125 251.964844 268.988281 C 250.949219 269.046875 249.902344 269.070312 248.816406 269.105469 C 247.710938 269.09375 246.554688 269.058594 245.390625 269.046875 C 240.738281 268.824219 235.5625 268 230.46875 265.992188 C 225.375 264 221.027344 260.96875 217.601562 257.785156 C 214.140625 254.613281 211.554688 251.277344 209.535156 248.433594 C 205.574219 242.636719 203.824219 238.707031 204.105469 238.535156 C 204.476562 238.300781 206.867188 241.890625 211.109375 247.230469 C 213.289062 249.878906 215.957031 252.945312 219.316406 255.859375 C 222.683594 258.773438 226.753906 261.515625 231.496094 263.382812 C 241.03125 267.148438 250.75 266.726562 257.523438 266.574219 C 260.902344 266.378906 263.667969 266.109375 265.542969 265.757812 C 267.441406 265.480469 268.539062 265.398438 268.585938 265.597656 " fill-opacity="1" fill-rule="nonzero"/><path fill="#000000" d="M 260.765625 177.972656 C 263.199219 179.171875 264.84375 176.164062 264.832031 174.101562 C 264.832031 172.234375 264.097656 169.167969 261.871094 168.75 C 259.273438 168.269531 258.070312 170.964844 257.988281 173.097656 C 258.070312 174.882812 259.085938 177.144531 260.765625 177.972656 Z M 261.613281 166.183594 C 265.308594 166.289062 267.558594 170.847656 267.328125 174.101562 C 267.105469 177.191406 265.019531 181.445312 261.21875 180.722656 C 257.792969 180.082031 255.660156 176.375 255.496094 173.097656 C 255.648438 169.566406 257.757812 166.089844 261.613281 166.183594 " fill-opacity="1" fill-rule="nonzero"/><path fill="#000000" d="M 255.890625 237.636719 C 258.992188 229.113281 258.09375 216.15625 250.996094 209.722656 C 238.957031 198.785156 220.316406 214.433594 219.699219 227.910156 C 219.246094 237.496094 223.429688 248.515625 233.933594 250.71875 C 244.144531 252.851562 251.601562 246.289062 255.890625 237.636719 Z M 251.519531 203.738281 C 261.988281 211.484375 265.125 227.375 260.601562 239.28125 C 260.566406 239.363281 260.519531 239.429688 260.472656 239.511719 C 260.4375 239.628906 260.402344 239.746094 260.355469 239.863281 C 254.632812 251.664062 243 259.488281 229.851562 254.625 C 217.917969 250.21875 211.726562 234.8125 215.457031 222.945312 C 219.457031 210.210938 237.558594 193.421875 251.519531 203.738281 " fill-opacity="1" fill-rule="nonzero"/><path fill="#000000" d="M 243.175781 145.429688 C 265.25 145.3125 274.601562 110.625 255.191406 99.558594 C 241.789062 91.898438 222.578125 101.214844 222.300781 117.292969 C 222.042969 130.703125 228.441406 144.144531 243.175781 145.429688 Z M 253.210938 93.015625 C 282.070312 102.183594 272.316406 149.441406 243.898438 150.394531 C 243.675781 150.417969 243.445312 150.453125 243.175781 150.417969 C 242.917969 150.417969 242.6875 150.394531 242.464844 150.324219 C 224.875 148.378906 216.109375 132.101562 217.449219 115.347656 C 218.816406 98.359375 237.707031 88.085938 253.210938 93.015625 " fill-opacity="1" fill-rule="nonzero"/><path fill="#000000" d="M 241.425781 183.03125 C 247.441406 164.609375 222.148438 147.878906 206.84375 159.664062 C 195.292969 168.515625 193.230469 196.605469 212.742188 196.183594 C 223.746094 195.941406 236.25 193.980469 241.425781 183.03125 Z M 199.222656 160.296875 C 215.890625 139.15625 255.179688 158.230469 246.171875 184.617188 C 246.125 184.78125 246.054688 184.910156 245.972656 185.050781 C 245.960938 185.097656 245.9375 185.164062 245.925781 185.210938 C 242.800781 192.136719 236.8125 196.800781 229.515625 198.867188 C 222.964844 200.707031 212.507812 203.144531 205.921875 200.382812 C 190.480469 193.898438 189.664062 172.375 199.222656 160.296875 " fill-opacity="1" fill-rule="nonzero"/><path fill="#000000" d="M 210.980469 116.816406 C 211.296875 117.117188 209.945312 118.925781 208.289062 122.074219 C 207.425781 123.625 206.550781 125.570312 205.691406 127.753906 C 204.78125 129.933594 204.09375 132.382812 203.160156 135.097656 C 201.203125 140.449219 199.046875 144.890625 197.902344 148.296875 C 196.714844 151.539062 196.433594 153.90625 196.003906 153.847656 C 195.679688 153.824219 195.210938 151.585938 195.992188 147.773438 C 196.691406 144.085938 198.636719 139.273438 200.503906 134.164062 C 201.402344 131.613281 202.226562 128.953125 203.3125 126.738281 C 204.363281 124.488281 205.457031 122.527344 206.585938 121.011719 C 208.8125 117.96875 210.738281 116.582031 210.980469 116.816406 " fill-opacity="1" fill-rule="nonzero"/><path fill="#000000" d="M 195.609375 223.738281 C 196.34375 226.324219 196.355469 228.0625 195.992188 228.144531 C 195.609375 228.214844 194.921875 226.757812 193.753906 224.4375 C 193.171875 223.246094 192.484375 221.835938 191.84375 220.132812 C 191.691406 219.703125 191.550781 219.269531 191.398438 218.816406 C 191.261719 218.328125 191.144531 217.824219 191.015625 217.324219 C 190.863281 216.789062 190.851562 216.355469 190.746094 215.855469 C 190.710938 215.585938 190.675781 215.457031 190.652344 215.0625 L 190.628906 214.292969 C 190.328125 206.0625 191.332031 199.648438 192.042969 199.625 C 192.878906 199.625 193.148438 206.257812 193.429688 214.09375 L 193.441406 214.828125 C 193.441406 214.910156 193.5 215.273438 193.519531 215.46875 C 193.589844 215.949219 193.625 216.496094 193.730469 216.871094 C 193.8125 217.289062 193.894531 217.707031 193.976562 218.105469 C 194.09375 218.523438 194.210938 218.933594 194.300781 219.339844 C 194.78125 220.949219 195.257812 222.429688 195.609375 223.738281 " fill-opacity="1" fill-rule="nonzero"/></svg>