<svg xmlns="http://www.w3.org/2000/svg" xmlns:xlink="http://www.w3.org/1999/xlink" width="640" zoomAndPan="magnify" viewBox="0 0 480 269.999989" height="360" preserveAspectRatio="xMidYMid meet" version="1.0"><defs><g/><clipPath id="07c046b23c"><path d="M 8 160 L 55.976562 160 L 55.976562 186 L 8 186 Z M 8 160 " clip-rule="nonzero"/></clipPath><clipPath id="677a7f58df"><path d="M 0.5625 194 L 55.710938 194 L 55.710938 204.132812 L 0.5625 204.132812 Z M 0.5625 194 " clip-rule="nonzero"/></clipPath><clipPath id="3d8e390bea"><path d="M 13.058594 206.214844 L 55.121094 206.214844 L 55.121094 244.867188 L 13.058594 244.867188 Z M 13.058594 206.214844 " clip-rule="nonzero"/></clipPath><clipPath id="c4bd62037c"><path d="M 350 30 L 395.761719 30 L 395.761719 72.523438 L 350 72.523438 Z M 350 30 " clip-rule="nonzero"/></clipPath><clipPath id="23d50de75d"><path d="M 270.699219 30 L 284 30 L 284 52 L 270.699219 52 Z M 270.699219 30 " clip-rule="nonzero"/></clipPath><clipPath id="c7043fcbf1"><rect x="0" width="396" y="0" height="246"/></clipPath></defs><g transform="matrix(1, 0, 0, 1, 54, 12)"><g clip-path="url(#c7043fcbf1)"><g clip-path="url(#07c046b23c)"><path fill="#faf1b3" d="M 53.070312 185.328125 C 46.960938 182.347656 40.902344 179.265625 34.75 176.367188 C 26.433594 172.300781 17.660156 169.195312 9.421875 164.972656 C 7.164062 163.539062 8.644531 159.882812 11.28125 160.460938 C 14.8125 161.53125 18.082031 163.324219 21.460938 164.792969 C 24.714844 166.285156 27.992188 167.746094 31.21875 169.304688 C 36.097656 171.667969 40.878906 174.226562 45.628906 176.835938 C 48.292969 178.308594 50.933594 179.835938 53.378906 181.65625 C 54.273438 182.382812 55.570312 183.234375 55.367188 184.550781 C 55.152344 185.617188 53.898438 185.761719 53.070312 185.328125 " fill-opacity="1" fill-rule="nonzero"/></g><g clip-path="url(#677a7f58df)"><path fill="#faf1b3" d="M 0.574219 201.425781 C 0.414062 199.84375 1.675781 198.375 3.25 198.246094 C 7.046875 197.765625 10.84375 197.277344 14.636719 196.769531 C 22.664062 195.714844 30.753906 195.273438 38.832031 194.777344 C 44.054688 194.472656 49.285156 194.003906 54.519531 194.050781 C 55.421875 194.121094 56.050781 195.15625 55.511719 195.953125 C 54.710938 197.242188 53.121094 197.539062 51.769531 197.925781 C 48.859375 198.726562 45.871094 199.179688 42.902344 199.691406 C 31.128906 201.660156 19.234375 202.675781 7.351562 203.703125 C 5.957031 203.796875 4.558594 204.101562 3.160156 204.105469 C 1.816406 203.957031 0.695312 202.78125 0.574219 201.425781 " fill-opacity="1" fill-rule="nonzero"/></g><g clip-path="url(#3d8e390bea)"><path fill="#faf1b3" d="M 13.777344 244.085938 C 12.671875 242.839844 13.089844 240.957031 14.367188 240.007812 C 15.683594 238.722656 16.792969 237.253906 18.003906 235.875 C 27.496094 225.851562 38.167969 216.9375 49.433594 208.96875 C 50.871094 208.0625 52.195312 206.71875 53.894531 206.378906 C 54.335938 206.355469 54.777344 206.613281 54.957031 207.019531 C 55.4375 208.078125 54.632812 209.214844 54.042969 210.054688 C 49.777344 215.496094 44.636719 220.195312 39.609375 224.921875 C 36.671875 227.644531 33.746094 230.378906 30.828125 233.125 C 27.257812 236.542969 23.675781 239.984375 19.554688 242.746094 C 18.875 243.265625 18.214844 243.8125 17.570312 244.378906 C 16.472656 245.347656 14.722656 245.191406 13.777344 244.085938 " fill-opacity="1" fill-rule="nonzero"/></g><path fill="#fbf2b3" d="M 48.351562 73.582031 L 321.035156 65.730469 C 333.457031 65.375 343.8125 75.152344 344.171875 87.570312 L 345.464844 132.546875 C 345.824219 144.964844 336.042969 155.324219 323.625 155.679688 L 50.941406 163.53125 C 38.519531 163.886719 28.164062 154.109375 27.804688 141.691406 L 26.511719 96.714844 C 26.152344 84.296875 35.929688 73.9375 48.351562 73.582031 Z M 48.351562 73.582031 " fill-opacity="1" fill-rule="nonzero"/><g fill="#9900ff" fill-opacity="1"><g transform="translate(51.497257, 137.070502)"><g><path d="M 29.089844 -9.472656 C 29.066406 -10.304688 29.148438 -11.617188 29.125 -12.332031 C 29.105469 -13.105469 29.011719 -14.234375 28.457031 -14.933594 C 27.777344 -15.808594 26.464844 -15.890625 26.226562 -15.882812 C 26.046875 -15.878906 25.925781 -15.875 25.75 -15.867188 C 25.214844 -15.792969 22.605469 -15.363281 21.894531 -15.222656 C 20.824219 -15.191406 19.214844 -15.324219 18.246094 -15.773438 C 15.835938 -16.835938 15.402344 -19.441406 15.367188 -20.691406 C 15.324219 -22.121094 16.179688 -23.457031 16.992188 -24.132812 C 17.460938 -24.503906 18.160156 -25 19.289062 -25.152344 C 20.355469 -25.300781 20.777344 -25.136719 22.203125 -25.296875 L 24.042969 -25.46875 C 24.933594 -25.554688 24.882812 -25.3125 26.25 -25.351562 C 26.90625 -25.371094 27.4375 -25.507812 27.898438 -26.054688 C 29.050781 -27.398438 28.15625 -29.519531 28.070312 -32.433594 L 28.027344 -33.921875 C 27.992188 -35.171875 28.164062 -35.355469 28.175781 -37.140625 C 28.164062 -37.4375 28.160156 -37.675781 28.148438 -37.976562 C 28.128906 -38.6875 28 -38.984375 27.9375 -39.160156 C 27.050781 -41.039062 22.0625 -40.539062 20.097656 -40.484375 C 14.5625 -40.324219 11.316406 -39.335938 9.90625 -38.582031 C 8.558594 -37.886719 5.933594 -35.964844 4.316406 -34.132812 C 3.453125 -33.09375 2.480469 -31.816406 0.886719 -27.183594 C 0.667969 -26.464844 -0.0546875 -24.65625 0.0351562 -21.5625 C 0.101562 -19.238281 0.976562 -13.726562 1.753906 -11.546875 C 2.527344 -9.484375 3.445312 -8.617188 5.484375 -6.054688 C 7.402344 -3.609375 8.066406 -3.210938 9.699219 -2.363281 C 11.269531 -1.574219 14.40625 -0.175781 21.613281 -0.265625 C 21.851562 -0.273438 22.027344 -0.277344 22.265625 -0.285156 C 26.429688 -0.464844 27.609375 -0.914062 28.652344 -1.957031 C 29.519531 -2.875 29.558594 -3.53125 29.546875 -3.886719 C 29.542969 -4.007812 29.480469 -4.125 29.476562 -4.242188 C 29.472656 -4.480469 29.464844 -4.660156 29.460938 -4.898438 C 29.492188 -5.851562 29.164062 -6.855469 29.136719 -7.808594 Z M 29.089844 -9.472656 "/></g></g></g><g fill="#9900ff" fill-opacity="1"><g transform="translate(82.143327, 136.188277)"><g><path d="M 7.777344 -40.128906 C 5.757812 -39.949219 3.199219 -39.9375 2.09375 -38.953125 C 1.863281 -38.707031 1.054688 -37.851562 1.109375 -35.886719 C 1.136719 -35.054688 1.277344 -34.222656 1.300781 -33.390625 C 1.324219 -32.675781 1.34375 -31.960938 1.363281 -31.246094 C 1.382812 -30.59375 1.621094 -28.457031 1.632812 -28.160156 C 1.710938 -27.503906 1.714844 -27.265625 1.785156 -26.972656 C 1.800781 -26.375 1.808594 -26.078125 1.820312 -25.664062 L 2.035156 -20.367188 C 2.195312 -16.800781 2.042969 -13.816406 2.019531 -12.566406 C 2.039062 -11.96875 1.992188 -11.433594 2.070312 -10.839844 C 2.171875 -9.414062 2.289062 -9.417969 2.324219 -8.226562 C 2.355469 -7.15625 2.417969 -5.011719 2.277344 -3.578125 L 2.1875 -2.566406 C 2.097656 -1.609375 2.589844 -1.027344 2.957031 -0.679688 C 3.507812 -0.160156 3.808594 -0.0507812 4.941406 -0.0820312 L 5.65625 -0.101562 C 6.132812 -0.117188 6.601562 -0.308594 7.257812 -0.328125 C 7.316406 -0.328125 7.433594 -0.332031 7.496094 -0.335938 C 9.460938 -0.332031 9.824219 -0.105469 10.953125 -0.195312 L 13.984375 -0.402344 C 14.640625 -0.421875 15.238281 -0.320312 16.011719 -0.34375 C 16.070312 -0.34375 16.191406 -0.347656 16.25 -0.347656 C 16.964844 -0.371094 17.257812 -0.496094 17.605469 -0.804688 C 18.011719 -1.171875 18.238281 -1.539062 18.335938 -2.375 C 18.332031 -2.492188 18.328125 -2.671875 18.324219 -2.789062 C 18.316406 -2.96875 18.253906 -3.085938 18.191406 -3.261719 C 18.125 -3.441406 18.121094 -3.617188 18.054688 -3.796875 L 17.859375 -4.445312 C 17.730469 -4.796875 17.726562 -4.859375 17.710938 -5.453125 C 17.691406 -6.167969 17.777344 -7.300781 19.085938 -7.339844 C 20.214844 -7.371094 21.441406 -6.15625 22.660156 -5.296875 C 23.996094 -4.382812 27.574219 -2.105469 28.78125 -1.601562 C 29.5625 -1.269531 30.765625 -0.886719 33.683594 -0.96875 L 37.90625 -1.089844 C 38.917969 -1.121094 39.5625 -1.496094 39.910156 -1.921875 C 40.425781 -2.535156 40.464844 -3.25 40.445312 -3.964844 C 40.378906 -6.226562 40.015625 -4.367188 40.125 -6.8125 L 40.203125 -8.246094 C 40.191406 -8.601562 40.183594 -8.957031 40.230469 -9.316406 C 40.226562 -9.496094 40.277344 -9.734375 40.273438 -9.914062 C 40.261719 -10.273438 40.253906 -10.628906 40.242188 -10.984375 C 40.222656 -11.699219 40.136719 -12.589844 39.464844 -13.167969 C 39.101562 -13.453125 38.378906 -13.730469 37.664062 -13.710938 C 35.816406 -13.65625 37.316406 -13.402344 34.398438 -13.320312 C 33.921875 -13.304688 32.730469 -13.390625 32.242188 -13.734375 C 31.816406 -14.078125 31.75 -14.316406 31.742188 -14.550781 C 31.730469 -14.910156 31.960938 -15.214844 32.136719 -15.277344 L 33.546875 -16.035156 C 34.425781 -16.476562 36.125 -17.417969 36.859375 -18.867188 L 37.988281 -21.046875 C 39.117188 -23.222656 39.261719 -26.441406 39.238281 -27.277344 C 39.222656 -27.871094 38.871094 -29.707031 38.488281 -30.589844 C 38.296875 -31.058594 37.984375 -31.527344 37.671875 -31.996094 C 37.296875 -32.578125 36.980469 -33.226562 36.667969 -33.8125 C 36.042969 -34.867188 35.230469 -36.09375 33.886719 -37.246094 C 31.996094 -38.859375 30.371094 -39.410156 29.652344 -39.625 C 28.511719 -39.949219 25.933594 -40.472656 23.671875 -40.464844 C 23.253906 -40.453125 22.835938 -40.441406 22.421875 -40.429688 C 21.707031 -40.410156 20.933594 -40.328125 20.21875 -40.367188 C 19.207031 -40.398438 18.726562 -40.5625 17.476562 -40.527344 C 15.988281 -40.484375 14.925781 -40.15625 13.554688 -40.117188 C 12.425781 -40.082031 11.296875 -39.992188 10.160156 -40.136719 C 9.683594 -40.183594 9.207031 -40.167969 8.730469 -40.15625 Z M 16.996094 -26.097656 C 16.988281 -26.457031 17.042969 -26.578125 17.441406 -27.183594 C 17.671875 -27.488281 17.960938 -27.734375 19.035156 -27.765625 C 19.6875 -27.785156 19.871094 -27.613281 20.289062 -27.5625 L 22.320312 -27.445312 C 22.617188 -27.453125 23.101562 -27.109375 23.285156 -26.996094 C 24.074219 -26.421875 24.515625 -25.601562 24.539062 -24.769531 C 24.597656 -22.804688 22.949219 -22.042969 22.246094 -21.722656 C 21.125 -21.273438 19.648438 -20.933594 18.875 -20.914062 C 18.574219 -20.902344 17.976562 -21.003906 17.734375 -21.175781 C 17.492188 -21.347656 17.300781 -21.761719 17.234375 -21.996094 C 17.230469 -22.175781 17.226562 -22.292969 17.21875 -22.472656 C 17.21875 -22.589844 17.152344 -22.710938 17.152344 -22.828125 C 17.015625 -23.359375 17.0625 -23.839844 17.046875 -24.375 Z M 16.996094 -26.097656 "/></g></g></g><g fill="#9900ff" fill-opacity="1"><g transform="translate(123.381626, 135.001127)"><g><path d="M 1.441406 -32.621094 C 1.449219 -32.382812 1.484375 -31.132812 1.492188 -30.894531 C 1.488281 -28.988281 1.289062 -29.757812 1.359375 -27.316406 C 1.429688 -24.875 1.628906 -24.050781 1.738281 -22.382812 C 1.917969 -20.304688 1.574219 -21.902344 2.054688 -17.570312 C 2.207031 -16.5 2.25 -14.953125 2.273438 -14.0625 C 2.300781 -13.167969 2.148438 -12.269531 2.179688 -11.199219 L 2.1875 -4.648438 C 2.203125 -4.171875 2.214844 -3.695312 2.171875 -3.21875 C 2.179688 -2.921875 2.125 -2.683594 2.136719 -2.382812 C 2.167969 -1.253906 2.417969 -0.84375 2.84375 -0.5 C 3.394531 -0.0390625 3.875 0.125 4.828125 0.0976562 C 4.945312 0.0976562 5.003906 0.09375 5.125 0.0898438 C 8.394531 -0.0625 7.855469 -0.226562 9.820312 -0.28125 L 14.761719 -0.367188 C 15.59375 -0.390625 17.617188 -0.449219 18.625 -0.535156 C 19.160156 -0.550781 19.753906 -0.628906 20.292969 -0.585938 C 21.066406 -0.546875 21.964844 -0.394531 22.917969 -0.421875 C 23.214844 -0.429688 23.511719 -0.5 23.808594 -0.507812 C 24.226562 -0.519531 24.640625 -0.53125 25.117188 -0.605469 C 27.078125 -0.71875 25.347656 -0.847656 27.074219 -0.898438 L 27.964844 -0.925781 C 28.679688 -0.945312 28.148438 -0.808594 29.695312 -0.796875 C 30.171875 -0.808594 30.589844 -0.761719 31.066406 -0.835938 C 32.964844 -1.007812 33.714844 -1.863281 33.269531 -6.972656 L 33.179688 -8.101562 C 33.078125 -9.527344 33.238281 -8.164062 33.183594 -9.949219 C 33.167969 -10.542969 33.007812 -12.027344 31.96875 -12.890625 C 31.417969 -13.351562 30.824219 -13.394531 30.226562 -13.378906 C 30.050781 -13.371094 29.8125 -13.367188 29.632812 -13.359375 C 29.335938 -13.351562 28.980469 -13.28125 28.683594 -13.273438 C 28.324219 -13.261719 27.96875 -13.253906 27.609375 -13.242188 L 26.183594 -13.203125 C 25.050781 -13.167969 23.746094 -13.070312 22.792969 -12.984375 C 22.140625 -12.90625 21.253906 -12.761719 20.179688 -12.730469 C 19.527344 -12.710938 18.75 -12.75 18.140625 -13.207031 C 17.65625 -13.550781 17.523438 -14.023438 17.515625 -14.320312 C 17.507812 -14.558594 17.675781 -14.921875 17.847656 -15.164062 C 18.019531 -15.347656 18.425781 -15.71875 19.082031 -15.738281 C 19.261719 -15.742188 19.5 -15.6875 19.679688 -15.695312 C 20.097656 -15.648438 20.453125 -15.714844 20.867188 -15.730469 L 23.609375 -15.746094 C 26.109375 -15.761719 25.925781 -15.992188 28.480469 -16.125 C 28.898438 -16.136719 29.253906 -16.148438 29.671875 -16.160156 C 30.324219 -16.179688 30.621094 -16.308594 30.964844 -16.675781 C 31.371094 -17.042969 31.542969 -17.40625 31.515625 -18.359375 C 31.5 -18.832031 31.429688 -19.1875 31.359375 -19.542969 C 31.222656 -20.195312 31.277344 -20.375 31.265625 -20.734375 L 31.054688 -24.003906 C 31.046875 -24.300781 30.96875 -24.894531 30.53125 -25.59375 C 30.03125 -26.355469 29.136719 -26.390625 28.363281 -26.367188 C 27.472656 -26.339844 26.523438 -26.136719 25.632812 -26.109375 C 24.621094 -26.082031 23.546875 -26.109375 22.539062 -26.019531 C 21.648438 -25.933594 21.53125 -25.871094 20.9375 -25.796875 C 20.578125 -25.785156 20.28125 -25.777344 19.925781 -25.765625 C 18.914062 -25.738281 17.785156 -25.644531 17.117188 -26.101562 C 16.691406 -26.386719 16.621094 -26.804688 16.609375 -27.21875 C 16.566406 -28.589844 17.578125 -28.738281 18.289062 -28.757812 C 19.0625 -28.78125 19.78125 -28.679688 20.554688 -28.703125 C 21.449219 -28.730469 22.390625 -29.054688 23.289062 -28.960938 L 24.0625 -28.863281 C 24.960938 -28.769531 25.4375 -28.785156 25.792969 -28.792969 C 25.851562 -28.796875 25.914062 -28.796875 25.972656 -28.800781 C 26.269531 -28.808594 26.566406 -28.875 26.863281 -28.886719 C 26.980469 -28.886719 27.160156 -28.894531 27.28125 -28.898438 C 27.875 -28.914062 28.472656 -28.8125 29.066406 -28.828125 C 30.078125 -28.859375 30.429688 -29.105469 30.773438 -29.535156 C 31.121094 -29.960938 31.402344 -30.5625 31.367188 -31.695312 C 31.304688 -33.957031 31.105469 -32.582031 31.050781 -34.425781 L 31.011719 -35.734375 C 30.992188 -36.449219 30.988281 -36.628906 30.984375 -36.804688 C 30.972656 -37.222656 31.019531 -37.640625 31.007812 -38.058594 C 30.988281 -38.652344 30.839844 -39.660156 29.867188 -40.347656 C 29.503906 -40.574219 28.960938 -40.855469 27.652344 -40.820312 C 26.402344 -40.78125 27.417969 -40.691406 24.621094 -40.554688 C 24.265625 -40.542969 23.90625 -40.53125 23.550781 -40.523438 C 22.71875 -40.5 21.828125 -40.355469 20.996094 -40.328125 C 20.160156 -40.304688 19.265625 -40.339844 18.433594 -40.316406 C 18.195312 -40.308594 17.957031 -40.300781 17.71875 -40.296875 C 17.183594 -40.28125 16.707031 -40.324219 16.171875 -40.308594 C 15.8125 -40.300781 15.398438 -40.289062 15.039062 -40.277344 C 14.265625 -40.253906 13.492188 -40.292969 12.71875 -40.269531 C 11.050781 -40.222656 9.507812 -40.058594 8.078125 -40.015625 C 7.066406 -39.988281 6.046875 -40.257812 5.035156 -40.226562 C 4.796875 -40.222656 3.070312 -40.171875 2.085938 -39.25 C 1.507812 -38.695312 1 -37.609375 1.097656 -36.300781 Z M 1.441406 -32.621094 "/></g></g></g><g fill="#9900ff" fill-opacity="1"><g transform="translate(158.312196, 133.995562)"><g><path d="M 5.210938 -27.964844 C 4.171875 -24.777344 4.3125 -24.007812 4.007812 -22.152344 C 3.753906 -20.65625 3.320312 -19.152344 2.78125 -17.234375 C 2.183594 -15.191406 2.1875 -15.011719 1.863281 -13.871094 C 1.699219 -13.390625 1.371094 -12.425781 1.101562 -11.40625 C 0.449219 -9.183594 0.246094 -7.988281 0.0898438 -7.269531 C -0.175781 -6.070312 -0.402344 -5.707031 -0.621094 -5.042969 C -0.785156 -4.503906 -0.886719 -3.90625 -0.871094 -3.308594 C -0.832031 -2 -0.390625 -1.179688 0.0976562 -0.777344 C 1.136719 0.144531 2.855469 -0.140625 4.226562 -0.121094 L 7.738281 -0.105469 L 8.988281 -0.140625 C 11.371094 -0.207031 9.757812 -0.339844 11.78125 -0.339844 C 12.082031 -0.347656 12.378906 -0.296875 12.675781 -0.363281 C 12.972656 -0.433594 13.558594 -0.6875 13.789062 -0.933594 C 14.023438 -1.117188 14.132812 -1.480469 14.640625 -2.445312 L 15.542969 -4.140625 C 15.601562 -4.203125 15.660156 -4.320312 15.714844 -4.382812 C 15.773438 -4.445312 15.773438 -4.503906 15.832031 -4.566406 C 16.171875 -5.050781 16.886719 -5.132812 17.421875 -5.148438 C 17.777344 -5.15625 17.957031 -5.101562 19.210938 -5.078125 L 21.238281 -5.019531 C 22.847656 -4.945312 24.199219 -5.582031 25.640625 -5.085938 C 26.664062 -4.757812 26.980469 -4.113281 27.359375 -3.40625 L 27.863281 -2.410156 C 28.433594 -1.234375 29.15625 -0.898438 29.578125 -0.792969 C 30.296875 -0.632812 31.894531 -0.976562 34.394531 -0.988281 L 38.027344 -1.035156 C 38.265625 -1.042969 38.445312 -1.046875 38.683594 -1.054688 C 38.921875 -1.0625 39.160156 -1.007812 39.398438 -1.015625 C 39.578125 -1.019531 39.695312 -1.023438 39.875 -1.027344 C 41.539062 -1.136719 41.882812 -1.5625 42.167969 -2.105469 C 42.5625 -2.773438 42.5 -2.890625 42.488281 -3.367188 C 42.484375 -3.484375 42.480469 -3.664062 42.476562 -3.785156 C 42.46875 -4.023438 42.269531 -4.789062 42.011719 -5.4375 C 41.820312 -5.789062 41.695312 -6.085938 41.5 -6.675781 C 41.371094 -7.027344 41.242188 -7.320312 41.171875 -7.617188 C 40.582031 -9.507812 40.289062 -11.464844 39.578125 -13.347656 L 39.191406 -14.410156 C 38.480469 -16.414062 38.28125 -17.0625 37.875 -18.777344 C 37.066406 -21.972656 36.933594 -22.445312 36.804688 -22.859375 L 36.546875 -23.503906 C 36.160156 -24.507812 36.285156 -24.273438 36.035156 -24.742188 C 35.972656 -24.859375 35.910156 -24.976562 35.847656 -25.09375 C 35.777344 -25.390625 35.714844 -25.507812 35.378906 -26.808594 L 34.714844 -29.171875 C 34.382812 -30.351562 33.875 -31.527344 33.367188 -32.644531 C 33.046875 -33.351562 32.726562 -34.117188 32.527344 -34.882812 L 32.195312 -36.066406 C 31.734375 -37.601562 31.335938 -38.960938 30.246094 -39.703125 C 29.089844 -40.503906 27.539062 -40.578125 26.765625 -40.554688 C 26.171875 -40.539062 25.515625 -40.460938 24.921875 -40.441406 C 24.148438 -40.421875 22.007812 -40.359375 21.050781 -40.390625 L 20.039062 -40.421875 L 18.191406 -40.429688 C 17.714844 -40.414062 17.300781 -40.34375 16.824219 -40.328125 C 16.410156 -40.316406 15.933594 -40.242188 15.519531 -40.230469 C 13.023438 -39.980469 15.277344 -40.34375 12.1875 -40.136719 C 10.996094 -40.042969 9.988281 -39.953125 9.171875 -39.335938 C 8.121094 -38.53125 7.628906 -37.085938 7.519531 -36.667969 C 6.871094 -34.445312 6.304688 -31.390625 5.921875 -30.1875 Z M 18.84375 -17.753906 C 18.488281 -17.746094 18.011719 -17.789062 17.699219 -18.257812 C 17.511719 -18.550781 17.496094 -19.085938 17.492188 -19.265625 C 17.476562 -19.742188 17.710938 -19.925781 17.917969 -21.003906 C 18.074219 -21.722656 18.117188 -22.378906 18.277344 -22.980469 C 18.4375 -23.578125 18.660156 -24.242188 18.929688 -25.203125 C 19.035156 -25.679688 19.195312 -26.339844 19.484375 -26.585938 C 19.542969 -26.648438 19.832031 -26.894531 20.191406 -26.90625 C 20.429688 -26.914062 20.726562 -26.863281 20.972656 -26.628906 C 21.21875 -26.398438 21.53125 -25.871094 21.65625 -25.578125 C 21.851562 -25.046875 22.773438 -22.035156 22.90625 -21.445312 L 23.308594 -19.910156 C 23.441406 -19.4375 23.574219 -18.964844 23.230469 -18.476562 C 22.886719 -18.050781 22.355469 -17.855469 20.273438 -17.796875 Z M 18.84375 -17.753906 "/></g></g></g><g fill="#9900ff" fill-opacity="1"><g transform="translate(200.026553, 132.794708)"><g><path d="M -0.988281 -30.167969 C -1.007812 -28.855469 -0.699219 -28.390625 -0.511719 -28.15625 C 0.046875 -27.398438 0.464844 -27.292969 2.972656 -27.125 L 4.34375 -27.046875 C 4.941406 -27.003906 5.535156 -27.078125 6.085938 -26.558594 C 6.574219 -26.15625 7.015625 -25.214844 6.984375 -24.203125 L 6.921875 -20.210938 C 6.941406 -19.554688 7.0625 -19.441406 7.097656 -18.25 C 7.113281 -17.773438 7.128906 -17.238281 6.996094 -15.628906 C 6.796875 -12.226562 7.023438 -12.53125 7.050781 -11.578125 L 7.207031 -8.246094 C 7.394531 -3.785156 7.085938 -6.21875 7.183594 -2.828125 C 7.199219 -2.351562 7.214844 -1.816406 7.949219 -1.0625 C 8.5625 -0.425781 9.167969 -0.203125 10.414062 -0.242188 C 11.605469 -0.273438 11.128906 -0.320312 12.554688 -0.363281 L 15.117188 -0.433594 C 17.257812 -0.496094 17.855469 -0.394531 18.988281 -0.425781 C 21.308594 -0.496094 21.542969 -0.621094 22.292969 -1.476562 C 22.867188 -2.148438 23.035156 -2.507812 23.007812 -3.519531 C 22.988281 -4.117188 22.859375 -4.53125 22.789062 -4.882812 C 22.65625 -5.417969 22.515625 -6.128906 22.492188 -6.902344 L 22.332031 -12.554688 C 22.257812 -15.113281 22.140625 -17.015625 22.332031 -18.6875 C 22.382812 -19.046875 22.425781 -19.644531 22.40625 -20.300781 C 22.386719 -20.894531 22.261719 -21.128906 22.207031 -23.03125 C 22.152344 -24.9375 22.175781 -26.25 23.164062 -27.050781 C 23.863281 -27.605469 24.988281 -27.816406 25.941406 -27.847656 C 27.011719 -27.875 26.957031 -27.695312 28.207031 -27.730469 C 29.039062 -27.757812 29.507812 -28.007812 29.742188 -28.195312 C 30.378906 -28.808594 30.363281 -29.402344 30.351562 -29.757812 C 30.316406 -31.007812 30.164062 -32.195312 30.066406 -33.445312 C 30.050781 -33.980469 29.976562 -34.453125 30.023438 -34.992188 C 30.0625 -35.648438 30.207031 -36.84375 30.175781 -37.914062 C 30.15625 -38.628906 29.953125 -39.515625 29.222656 -39.972656 C 28.554688 -40.429688 27.117188 -40.683594 25.632812 -40.640625 C 21.167969 -40.511719 22.964844 -40.207031 19.925781 -40.179688 L 11.769531 -40.125 C 9.742188 -40.125 9.808594 -39.949219 7.605469 -39.886719 L 6.59375 -39.855469 C 6.355469 -39.847656 6 -39.839844 4.804688 -39.921875 C 3.914062 -39.957031 2.894531 -40.105469 1.941406 -40.078125 C 1.585938 -40.070312 0.15625 -40.027344 -0.539062 -39.351562 C -1.117188 -38.859375 -1.269531 -37.84375 -1.242188 -37.007812 C -1.234375 -36.652344 -1.136719 -35.40625 -1.0625 -34.871094 C -0.996094 -34.632812 -0.992188 -34.515625 -0.988281 -34.277344 L -0.953125 -33.144531 Z M -0.988281 -30.167969 "/></g></g></g><g fill="#9900ff" fill-opacity="1"><g transform="translate(231.029666, 131.902204)"><g><path d="M 1.441406 -32.621094 C 1.449219 -32.382812 1.484375 -31.132812 1.492188 -30.894531 C 1.488281 -28.988281 1.289062 -29.757812 1.359375 -27.316406 C 1.429688 -24.875 1.628906 -24.050781 1.738281 -22.382812 C 1.917969 -20.304688 1.574219 -21.902344 2.054688 -17.570312 C 2.207031 -16.5 2.25 -14.953125 2.273438 -14.0625 C 2.300781 -13.167969 2.148438 -12.269531 2.179688 -11.199219 L 2.1875 -4.648438 C 2.203125 -4.171875 2.214844 -3.695312 2.171875 -3.21875 C 2.179688 -2.921875 2.125 -2.683594 2.136719 -2.382812 C 2.167969 -1.253906 2.417969 -0.84375 2.84375 -0.5 C 3.394531 -0.0390625 3.875 0.125 4.828125 0.0976562 C 4.945312 0.0976562 5.003906 0.09375 5.125 0.0898438 C 8.394531 -0.0625 7.855469 -0.226562 9.820312 -0.28125 L 14.761719 -0.367188 C 15.59375 -0.390625 17.617188 -0.449219 18.625 -0.535156 C 19.160156 -0.550781 19.753906 -0.628906 20.292969 -0.585938 C 21.066406 -0.546875 21.964844 -0.394531 22.917969 -0.421875 C 23.214844 -0.429688 23.511719 -0.5 23.808594 -0.507812 C 24.226562 -0.519531 24.640625 -0.53125 25.117188 -0.605469 C 27.078125 -0.71875 25.347656 -0.847656 27.074219 -0.898438 L 27.964844 -0.925781 C 28.679688 -0.945312 28.148438 -0.808594 29.695312 -0.796875 C 30.171875 -0.808594 30.589844 -0.761719 31.066406 -0.835938 C 32.964844 -1.007812 33.714844 -1.863281 33.269531 -6.972656 L 33.179688 -8.101562 C 33.078125 -9.527344 33.238281 -8.164062 33.183594 -9.949219 C 33.167969 -10.542969 33.007812 -12.027344 31.96875 -12.890625 C 31.417969 -13.351562 30.824219 -13.394531 30.226562 -13.378906 C 30.050781 -13.371094 29.8125 -13.367188 29.632812 -13.359375 C 29.335938 -13.351562 28.980469 -13.28125 28.683594 -13.273438 C 28.324219 -13.261719 27.96875 -13.253906 27.609375 -13.242188 L 26.183594 -13.203125 C 25.050781 -13.167969 23.746094 -13.070312 22.792969 -12.984375 C 22.140625 -12.90625 21.253906 -12.761719 20.179688 -12.730469 C 19.527344 -12.710938 18.75 -12.75 18.140625 -13.207031 C 17.65625 -13.550781 17.523438 -14.023438 17.515625 -14.320312 C 17.507812 -14.558594 17.675781 -14.921875 17.847656 -15.164062 C 18.019531 -15.347656 18.425781 -15.71875 19.082031 -15.738281 C 19.261719 -15.742188 19.5 -15.6875 19.679688 -15.695312 C 20.097656 -15.648438 20.453125 -15.714844 20.867188 -15.730469 L 23.609375 -15.746094 C 26.109375 -15.761719 25.925781 -15.992188 28.480469 -16.125 C 28.898438 -16.136719 29.253906 -16.148438 29.671875 -16.160156 C 30.324219 -16.179688 30.621094 -16.308594 30.964844 -16.675781 C 31.371094 -17.042969 31.542969 -17.40625 31.515625 -18.359375 C 31.5 -18.832031 31.429688 -19.1875 31.359375 -19.542969 C 31.222656 -20.195312 31.277344 -20.375 31.265625 -20.734375 L 31.054688 -24.003906 C 31.046875 -24.300781 30.96875 -24.894531 30.53125 -25.59375 C 30.03125 -26.355469 29.136719 -26.390625 28.363281 -26.367188 C 27.472656 -26.339844 26.523438 -26.136719 25.632812 -26.109375 C 24.621094 -26.082031 23.546875 -26.109375 22.539062 -26.019531 C 21.648438 -25.933594 21.53125 -25.871094 20.9375 -25.796875 C 20.578125 -25.785156 20.28125 -25.777344 19.925781 -25.765625 C 18.914062 -25.738281 17.785156 -25.644531 17.117188 -26.101562 C 16.691406 -26.386719 16.621094 -26.804688 16.609375 -27.21875 C 16.566406 -28.589844 17.578125 -28.738281 18.289062 -28.757812 C 19.0625 -28.78125 19.78125 -28.679688 20.554688 -28.703125 C 21.449219 -28.730469 22.390625 -29.054688 23.289062 -28.960938 L 24.0625 -28.863281 C 24.960938 -28.769531 25.4375 -28.785156 25.792969 -28.792969 C 25.851562 -28.796875 25.914062 -28.796875 25.972656 -28.800781 C 26.269531 -28.808594 26.566406 -28.875 26.863281 -28.886719 C 26.980469 -28.886719 27.160156 -28.894531 27.28125 -28.898438 C 27.875 -28.914062 28.472656 -28.8125 29.066406 -28.828125 C 30.078125 -28.859375 30.429688 -29.105469 30.773438 -29.535156 C 31.121094 -29.960938 31.402344 -30.5625 31.367188 -31.695312 C 31.304688 -33.957031 31.105469 -32.582031 31.050781 -34.425781 L 31.011719 -35.734375 C 30.992188 -36.449219 30.988281 -36.628906 30.984375 -36.804688 C 30.972656 -37.222656 31.019531 -37.640625 31.007812 -38.058594 C 30.988281 -38.652344 30.839844 -39.660156 29.867188 -40.347656 C 29.503906 -40.574219 28.960938 -40.855469 27.652344 -40.820312 C 26.402344 -40.78125 27.417969 -40.691406 24.621094 -40.554688 C 24.265625 -40.542969 23.90625 -40.53125 23.550781 -40.523438 C 22.71875 -40.5 21.828125 -40.355469 20.996094 -40.328125 C 20.160156 -40.304688 19.265625 -40.339844 18.433594 -40.316406 C 18.195312 -40.308594 17.957031 -40.300781 17.71875 -40.296875 C 17.183594 -40.28125 16.707031 -40.324219 16.171875 -40.308594 C 15.8125 -40.300781 15.398438 -40.289062 15.039062 -40.277344 C 14.265625 -40.253906 13.492188 -40.292969 12.71875 -40.269531 C 11.050781 -40.222656 9.507812 -40.058594 8.078125 -40.015625 C 7.066406 -39.988281 6.046875 -40.257812 5.035156 -40.226562 C 4.796875 -40.222656 3.070312 -40.171875 2.085938 -39.25 C 1.507812 -38.695312 1 -37.609375 1.097656 -36.300781 Z M 1.441406 -32.621094 "/></g></g></g><g fill="#9900ff" fill-opacity="1"><g transform="translate(265.960237, 130.896638)"><g/></g></g><g fill="#9900ff" fill-opacity="1"><g transform="translate(279.825345, 130.497496)"><g><path d="M 5.210938 -27.964844 C 4.171875 -24.777344 4.3125 -24.007812 4.007812 -22.152344 C 3.753906 -20.65625 3.320312 -19.152344 2.78125 -17.234375 C 2.183594 -15.191406 2.1875 -15.011719 1.863281 -13.871094 C 1.699219 -13.390625 1.371094 -12.425781 1.101562 -11.40625 C 0.449219 -9.183594 0.246094 -7.988281 0.0898438 -7.269531 C -0.175781 -6.070312 -0.402344 -5.707031 -0.621094 -5.042969 C -0.785156 -4.503906 -0.886719 -3.90625 -0.871094 -3.308594 C -0.832031 -2 -0.390625 -1.179688 0.0976562 -0.777344 C 1.136719 0.144531 2.855469 -0.140625 4.226562 -0.121094 L 7.738281 -0.105469 L 8.988281 -0.140625 C 11.371094 -0.207031 9.757812 -0.339844 11.78125 -0.339844 C 12.082031 -0.347656 12.378906 -0.296875 12.675781 -0.363281 C 12.972656 -0.433594 13.558594 -0.6875 13.789062 -0.933594 C 14.023438 -1.117188 14.132812 -1.480469 14.640625 -2.445312 L 15.542969 -4.140625 C 15.601562 -4.203125 15.660156 -4.320312 15.714844 -4.382812 C 15.773438 -4.445312 15.773438 -4.503906 15.832031 -4.566406 C 16.171875 -5.050781 16.886719 -5.132812 17.421875 -5.148438 C 17.777344 -5.15625 17.957031 -5.101562 19.210938 -5.078125 L 21.238281 -5.019531 C 22.847656 -4.945312 24.199219 -5.582031 25.640625 -5.085938 C 26.664062 -4.757812 26.980469 -4.113281 27.359375 -3.40625 L 27.863281 -2.410156 C 28.433594 -1.234375 29.15625 -0.898438 29.578125 -0.792969 C 30.296875 -0.632812 31.894531 -0.976562 34.394531 -0.988281 L 38.027344 -1.035156 C 38.265625 -1.042969 38.445312 -1.046875 38.683594 -1.054688 C 38.921875 -1.0625 39.160156 -1.007812 39.398438 -1.015625 C 39.578125 -1.019531 39.695312 -1.023438 39.875 -1.027344 C 41.539062 -1.136719 41.882812 -1.5625 42.167969 -2.105469 C 42.5625 -2.773438 42.5 -2.890625 42.488281 -3.367188 C 42.484375 -3.484375 42.480469 -3.664062 42.476562 -3.785156 C 42.46875 -4.023438 42.269531 -4.789062 42.011719 -5.4375 C 41.820312 -5.789062 41.695312 -6.085938 41.5 -6.675781 C 41.371094 -7.027344 41.242188 -7.320312 41.171875 -7.617188 C 40.582031 -9.507812 40.289062 -11.464844 39.578125 -13.347656 L 39.191406 -14.410156 C 38.480469 -16.414062 38.28125 -17.0625 37.875 -18.777344 C 37.066406 -21.972656 36.933594 -22.445312 36.804688 -22.859375 L 36.546875 -23.503906 C 36.160156 -24.507812 36.285156 -24.273438 36.035156 -24.742188 C 35.972656 -24.859375 35.910156 -24.976562 35.847656 -25.09375 C 35.777344 -25.390625 35.714844 -25.507812 35.378906 -26.808594 L 34.714844 -29.171875 C 34.382812 -30.351562 33.875 -31.527344 33.367188 -32.644531 C 33.046875 -33.351562 32.726562 -34.117188 32.527344 -34.882812 L 32.195312 -36.066406 C 31.734375 -37.601562 31.335938 -38.960938 30.246094 -39.703125 C 29.089844 -40.503906 27.539062 -40.578125 26.765625 -40.554688 C 26.171875 -40.539062 25.515625 -40.460938 24.921875 -40.441406 C 24.148438 -40.421875 22.007812 -40.359375 21.050781 -40.390625 L 20.039062 -40.421875 L 18.191406 -40.429688 C 17.714844 -40.414062 17.300781 -40.34375 16.824219 -40.328125 C 16.410156 -40.316406 15.933594 -40.242188 15.519531 -40.230469 C 13.023438 -39.980469 15.277344 -40.34375 12.1875 -40.136719 C 10.996094 -40.042969 9.988281 -39.953125 9.171875 -39.335938 C 8.121094 -38.53125 7.628906 -37.085938 7.519531 -36.667969 C 6.871094 -34.445312 6.304688 -31.390625 5.921875 -30.1875 Z M 18.84375 -17.753906 C 18.488281 -17.746094 18.011719 -17.789062 17.699219 -18.257812 C 17.511719 -18.550781 17.496094 -19.085938 17.492188 -19.265625 C 17.476562 -19.742188 17.710938 -19.925781 17.917969 -21.003906 C 18.074219 -21.722656 18.117188 -22.378906 18.277344 -22.980469 C 18.4375 -23.578125 18.660156 -24.242188 18.929688 -25.203125 C 19.035156 -25.679688 19.195312 -26.339844 19.484375 -26.585938 C 19.542969 -26.648438 19.832031 -26.894531 20.191406 -26.90625 C 20.429688 -26.914062 20.726562 -26.863281 20.972656 -26.628906 C 21.21875 -26.398438 21.53125 -25.871094 21.65625 -25.578125 C 21.851562 -25.046875 22.773438 -22.035156 22.90625 -21.445312 L 23.308594 -19.910156 C 23.441406 -19.4375 23.574219 -18.964844 23.230469 -18.476562 C 22.886719 -18.050781 22.355469 -17.855469 20.273438 -17.796875 Z M 18.84375 -17.753906 "/></g></g></g><path fill="#9900ff" d="M 86.140625 143.824219 L 288.203125 149.078125 C 300.621094 149.402344 310.429688 159.730469 310.105469 172.152344 L 308.9375 217.128906 C 308.613281 229.550781 298.285156 239.359375 285.863281 239.035156 L 83.804688 233.78125 C 71.382812 233.460938 61.578125 223.128906 61.898438 210.707031 L 63.070312 165.730469 C 63.390625 153.308594 73.722656 143.503906 86.140625 143.824219 Z M 86.140625 143.824219 " fill-opacity="1" fill-rule="nonzero"/><g fill="#faf1b3" fill-opacity="1"><g transform="translate(85.808445, 207.392621)"><g><path d="M 28.226562 -34.285156 C 28.25 -35.175781 28.382812 -35.769531 28.402344 -36.421875 C 28.445312 -38.148438 26.320312 -38.917969 25.792969 -39.113281 C 24.375 -39.683594 24.140625 -39.75 23.007812 -39.777344 C 22.472656 -39.792969 21.820312 -39.871094 21.285156 -39.882812 C 20.453125 -39.90625 19.683594 -40.164062 18.851562 -40.183594 C 11.648438 -40.371094 8.757812 -39.136719 7.1875 -38.164062 C 5.613281 -37.253906 3.71875 -35.398438 2.964844 -33.867188 C 2.648438 -33.222656 2.335938 -32.515625 1.949219 -31.511719 C 1.695312 -30.921875 1.320312 -30.160156 1.28125 -28.730469 C 1.257812 -27.839844 1.339844 -26.40625 1.445312 -25.75 C 1.699219 -24.074219 2.484375 -22.269531 2.710938 -21.785156 C 2.9375 -21.304688 3.34375 -20.9375 3.917969 -20.207031 C 4.902344 -18.988281 5.183594 -18.386719 6.644531 -17.394531 C 8.167969 -16.402344 9.042969 -15.726562 9.863281 -15.226562 C 10.746094 -14.726562 13.035156 -13.539062 13.921875 -13.214844 L 15.457031 -12.640625 C 15.984375 -12.449219 16.152344 -11.96875 16.148438 -11.789062 C 16.136719 -11.371094 15.878906 -10.605469 14.511719 -10.640625 C 14.210938 -10.648438 13.855469 -10.714844 13.5 -10.785156 C 11.484375 -11.136719 12.140625 -11.058594 11.488281 -11.195312 C 10.71875 -11.394531 10.835938 -11.273438 9.296875 -11.730469 C 8.46875 -11.929688 8.351562 -11.933594 7.695312 -12.007812 C 6.390625 -12.222656 5.335938 -12.785156 4.261719 -12.8125 C 2.953125 -12.847656 1.375 -11.636719 1.660156 -8.890625 L 1.753906 -7.933594 L 1.726562 -6.921875 C 1.617188 -2.578125 1.121094 -1.9375 2.519531 -0.769531 C 3.046875 -0.335938 3.398438 -0.210938 5.121094 0.015625 C 6.367188 0.164062 7.613281 0.375 8.742188 0.523438 C 13.488281 1.242188 13.613281 0.890625 15.992188 1.011719 C 16.589844 1.027344 17.121094 1.101562 17.71875 1.117188 C 19.085938 1.152344 22.246094 0.996094 23.875 0.203125 C 25.566406 -0.644531 26.78125 -1.566406 27.753906 -2.316406 C 28.421875 -2.835938 28.847656 -3.179688 29.523438 -3.9375 C 30.074219 -4.578125 30.878906 -5.75 31.078125 -6.515625 C 31.28125 -7.523438 31.378906 -8.949219 31.457031 -9.605469 C 31.539062 -10.496094 31.730469 -10.96875 31.742188 -11.503906 C 31.753906 -11.917969 31.492188 -13.296875 31.382812 -13.714844 C 31.226562 -14.554688 30.828125 -15.21875 30.492188 -16.121094 C 30.160156 -16.964844 30.054688 -17.621094 29.25 -18.652344 C 28.5 -19.625 27.21875 -20.730469 26.636719 -21.222656 C 25.527344 -22.085938 24.585938 -22.585938 23.296875 -23.335938 C 21.128906 -24.640625 21.539062 -24.511719 21.007812 -24.703125 C 20.066406 -25.027344 19.058594 -25.230469 18.117188 -25.671875 C 18 -25.734375 17.820312 -25.800781 17.703125 -25.863281 C 17.292969 -25.992188 17.40625 -25.8125 16.769531 -26.601562 C 16.65625 -26.722656 16.539062 -26.90625 16.546875 -27.144531 C 16.558594 -27.621094 16.917969 -27.667969 17.28125 -27.839844 C 17.582031 -27.949219 17.820312 -28.0625 18.535156 -28.042969 C 18.832031 -28.035156 19.066406 -27.910156 19.304688 -27.847656 C 19.660156 -27.71875 20.015625 -27.648438 20.371094 -27.578125 C 20.605469 -27.515625 20.84375 -27.507812 21.082031 -27.5 C 21.378906 -27.492188 21.675781 -27.484375 21.972656 -27.417969 C 22.804688 -27.277344 24.277344 -26.703125 25.050781 -26.683594 C 25.585938 -26.671875 26.308594 -26.890625 27.035156 -27.464844 C 28.558594 -28.738281 28 -30.179688 28.117188 -32.441406 Z M 28.226562 -34.285156 "/></g></g></g><g fill="#faf1b3" fill-opacity="1"><g transform="translate(117.766106, 208.223389)"><g><path d="M 3.363281 -30.941406 C 3.390625 -29.570312 3.175781 -28.265625 3.140625 -26.894531 C 3.105469 -25.46875 3.128906 -24.097656 3.089844 -22.667969 C 3.027344 -20.167969 2.949219 -21.78125 2.792969 -18.089844 C 2.789062 -17.972656 2.785156 -17.851562 2.785156 -17.734375 C 2.738281 -13.625 3.011719 -15.046875 2.960938 -13.144531 C 2.960938 -13.085938 2.957031 -12.964844 2.957031 -12.90625 C 2.945312 -12.546875 2.9375 -12.132812 2.867188 -11.777344 C 2.789062 -11.003906 2.648438 -10.292969 2.628906 -9.519531 L 2.609375 -6.421875 C 2.578125 -5.171875 2.511719 -5.054688 2.433594 -4.34375 C 2.363281 -3.808594 2.210938 -2.503906 2.199219 -2.144531 C 2.1875 -1.609375 2.230469 -1.015625 2.75 -0.464844 C 3.390625 0.207031 4.160156 0.285156 4.578125 0.296875 C 4.996094 0.308594 5.351562 0.316406 5.769531 0.269531 C 6.246094 0.222656 6.726562 0.175781 7.199219 0.1875 L 8.808594 0.230469 C 8.988281 0.234375 9.164062 0.296875 9.34375 0.300781 C 9.699219 0.371094 10.113281 0.441406 10.46875 0.449219 C 10.945312 0.464844 11.484375 0.417969 11.960938 0.371094 C 12.4375 0.324219 12.914062 0.335938 13.390625 0.347656 C 14.105469 0.367188 14.757812 0.441406 15.472656 0.460938 C 16.484375 0.488281 17.203125 0.328125 17.808594 -0.132812 C 18.171875 -0.359375 18.421875 -0.710938 18.5 -1.425781 C 18.5 -1.542969 18.503906 -1.601562 18.507812 -1.722656 C 18.410156 -2.558594 18.296875 -2.859375 18.25 -3.277344 L 18.148438 -4.054688 C 18.105469 -4.589844 18.125 -5.304688 18.128906 -5.542969 C 18.140625 -5.960938 18.222656 -6.792969 19.246094 -7.300781 C 19.910156 -7.640625 20.6875 -7.679688 21.339844 -7.605469 L 22.289062 -7.519531 C 23.597656 -7.425781 26.699219 -7.582031 28.253906 -7.902344 C 32.328125 -8.808594 34.695312 -10.53125 35.855469 -11.632812 L 38.296875 -13.953125 C 38.421875 -14.066406 39.890625 -15.578125 40.414062 -17.46875 C 40.878906 -19.246094 40.902344 -20.136719 41.109375 -21.324219 C 41.25 -22.152344 41.449219 -22.863281 41.410156 -23.699219 L 41.292969 -26.023438 C 41.203125 -27.21875 40.691406 -28.125 40.46875 -28.785156 L 40.027344 -30.046875 C 39.804688 -30.707031 38.996094 -31.679688 38.882812 -31.804688 C 38.535156 -32.230469 37.722656 -33.023438 34.863281 -35.363281 C 33.175781 -36.777344 32.820312 -36.84375 29.15625 -37.953125 C 27.972656 -38.28125 27.679688 -38.464844 26.019531 -38.808594 C 24.71875 -39.078125 23.121094 -39.480469 18.777344 -39.589844 C 17.40625 -39.628906 16.09375 -39.542969 14.726562 -39.578125 C 14.191406 -39.589844 13.65625 -39.605469 13.121094 -39.621094 C 12.582031 -39.632812 11.925781 -39.589844 11.035156 -39.554688 C 10.257812 -39.515625 9.78125 -39.46875 9.304688 -39.480469 C 8.410156 -39.503906 7.523438 -39.707031 6.570312 -39.730469 C 5.976562 -39.746094 4.964844 -39.773438 4.171875 -39.136719 C 3.625 -38.675781 3.121094 -37.617188 3.097656 -36.722656 C 3.085938 -36.246094 3.292969 -35.109375 3.324219 -33.976562 Z M 22.601562 -26.449219 C 24.085938 -26.171875 25.378906 -25.601562 26.074219 -24.8125 C 26.535156 -24.261719 26.703125 -23.78125 26.6875 -23.128906 C 26.664062 -22.355469 26.46875 -21.703125 25.917969 -21.121094 C 25.003906 -20.253906 23.871094 -20.28125 23.035156 -20.125 C 22.316406 -20.027344 21.175781 -19.699219 20.285156 -19.722656 C 19.808594 -19.734375 18.976562 -19.875 18.628906 -20.242188 C 18.398438 -20.425781 18.226562 -20.785156 18.242188 -21.382812 C 18.257812 -21.976562 18.390625 -22.507812 18.40625 -23.105469 C 18.425781 -23.757812 18.320312 -24.417969 18.457031 -25.007812 C 18.59375 -25.660156 18.589844 -25.601562 18.777344 -25.894531 C 19.085938 -26.304688 19.273438 -26.65625 21.238281 -26.605469 C 21.714844 -26.59375 22.128906 -26.523438 22.601562 -26.449219 Z M 22.601562 -26.449219 "/></g></g></g><g fill="#faf1b3" fill-opacity="1"><g transform="translate(158.650494, 209.286216)"><g><path d="M 6.734375 -27.636719 C 5.519531 -24.511719 5.621094 -23.734375 5.214844 -21.898438 C 4.878906 -20.417969 4.363281 -18.945312 3.71875 -17.054688 C 3.011719 -15.046875 3.007812 -14.871094 2.621094 -13.75 C 2.429688 -13.277344 2.046875 -12.332031 1.722656 -11.328125 C 0.953125 -9.148438 0.683594 -7.960938 0.484375 -7.253906 C 0.15625 -6.070312 -0.0898438 -5.71875 -0.34375 -5.070312 C -0.535156 -4.539062 -0.671875 -3.949219 -0.6875 -3.351562 C -0.722656 -2.042969 -0.324219 -1.199219 0.140625 -0.769531 C 1.125 0.207031 2.859375 0.015625 4.226562 0.109375 L 7.734375 0.320312 L 8.984375 0.351562 C 11.363281 0.414062 9.761719 0.195312 11.785156 0.304688 C 12.082031 0.3125 12.378906 0.382812 12.675781 0.328125 C 12.976562 0.277344 13.578125 0.0546875 13.820312 -0.175781 C 14.0625 -0.347656 14.191406 -0.703125 14.753906 -1.640625 L 15.746094 -3.28125 C 15.808594 -3.339844 15.871094 -3.457031 15.933594 -3.515625 C 15.992188 -3.574219 15.996094 -3.632812 16.054688 -3.691406 C 16.425781 -4.160156 17.140625 -4.199219 17.675781 -4.1875 C 18.035156 -4.175781 18.210938 -4.113281 19.460938 -4.019531 L 21.480469 -3.847656 C 23.082031 -3.6875 24.46875 -4.246094 25.882812 -3.675781 C 26.882812 -3.292969 27.164062 -2.628906 27.503906 -1.90625 L 27.953125 -0.882812 C 28.457031 0.324219 29.164062 0.699219 29.578125 0.828125 C 30.285156 1.027344 31.902344 0.769531 34.398438 0.894531 L 38.027344 1.046875 C 38.265625 1.054688 38.445312 1.058594 38.683594 1.066406 C 38.921875 1.070312 39.15625 1.136719 39.394531 1.144531 C 39.574219 1.148438 39.691406 1.152344 39.871094 1.15625 C 41.539062 1.140625 41.90625 0.730469 42.21875 0.203125 C 42.652344 -0.441406 42.59375 -0.558594 42.609375 -1.035156 C 42.609375 -1.15625 42.617188 -1.332031 42.617188 -1.453125 C 42.625 -1.691406 42.464844 -2.46875 42.246094 -3.128906 C 42.074219 -3.492188 41.964844 -3.792969 41.800781 -4.390625 C 41.691406 -4.753906 41.582031 -5.054688 41.527344 -5.351562 C 41.042969 -7.269531 40.855469 -9.242188 40.25 -11.164062 L 39.921875 -12.242188 C 39.320312 -14.28125 39.15625 -14.941406 38.84375 -16.675781 C 38.214844 -19.910156 38.109375 -20.390625 38 -20.808594 L 37.777344 -21.46875 C 37.449219 -22.492188 37.5625 -22.25 37.335938 -22.730469 C 37.277344 -22.851562 37.222656 -22.972656 37.167969 -23.09375 C 37.113281 -23.394531 37.058594 -23.511719 36.792969 -24.832031 L 36.261719 -27.226562 C 35.996094 -28.425781 35.550781 -29.625 35.101562 -30.769531 C 34.824219 -31.492188 34.546875 -32.273438 34.386719 -33.050781 L 34.121094 -34.25 C 33.746094 -35.808594 33.421875 -37.1875 32.371094 -37.988281 C 31.261719 -38.851562 29.71875 -39.007812 28.945312 -39.03125 C 28.351562 -39.042969 27.695312 -39.003906 27.097656 -39.019531 C 26.324219 -39.039062 24.183594 -39.09375 23.230469 -39.179688 L 22.222656 -39.265625 L 20.378906 -39.371094 C 19.902344 -39.382812 19.484375 -39.335938 19.007812 -39.347656 C 18.589844 -39.359375 18.113281 -39.3125 17.695312 -39.320312 C 15.191406 -39.207031 17.460938 -39.445312 14.363281 -39.410156 C 13.171875 -39.378906 12.160156 -39.347656 11.3125 -38.773438 C 10.21875 -38.027344 9.648438 -36.613281 9.515625 -36.199219 C 8.746094 -34.015625 8.011719 -30.996094 7.5625 -29.820312 Z M 19.789062 -16.695312 C 19.433594 -16.707031 18.957031 -16.777344 18.671875 -17.261719 C 18.5 -17.5625 18.515625 -18.097656 18.519531 -18.277344 C 18.53125 -18.753906 18.773438 -18.925781 19.039062 -19.992188 C 19.238281 -20.699219 19.316406 -21.355469 19.507812 -21.945312 C 19.703125 -22.535156 19.957031 -23.183594 20.28125 -24.128906 C 20.410156 -24.601562 20.605469 -25.25 20.910156 -25.480469 C 20.972656 -25.539062 21.277344 -25.769531 21.632812 -25.761719 C 21.871094 -25.753906 22.167969 -25.6875 22.398438 -25.441406 C 22.628906 -25.199219 22.914062 -24.65625 23.023438 -24.355469 C 23.191406 -23.8125 23.945312 -20.757812 24.046875 -20.160156 L 24.363281 -18.601562 C 24.472656 -18.125 24.578125 -17.644531 24.207031 -17.175781 C 23.839844 -16.769531 23.300781 -16.605469 21.21875 -16.660156 Z M 19.789062 -16.695312 "/></g></g></g><g fill="#faf1b3" fill-opacity="1"><g transform="translate(200.368038, 210.370701)"><g><path d="M 9.964844 -39.640625 C 7.9375 -39.574219 5.378906 -39.703125 4.222656 -38.777344 C 3.980469 -38.546875 3.125 -37.734375 3.074219 -35.769531 C 3.050781 -34.9375 3.148438 -34.101562 3.128906 -33.269531 C 3.109375 -32.554688 3.089844 -31.839844 3.070312 -31.125 C 3.054688 -30.472656 3.179688 -28.324219 3.171875 -28.027344 C 3.210938 -27.371094 3.207031 -27.132812 3.257812 -26.832031 C 3.242188 -26.238281 3.234375 -25.941406 3.222656 -25.523438 L 3.144531 -20.226562 C 3.113281 -16.652344 2.796875 -13.683594 2.707031 -12.4375 C 2.691406 -11.839844 2.617188 -11.308594 2.660156 -10.710938 C 2.683594 -9.28125 2.800781 -9.277344 2.769531 -8.085938 C 2.742188 -7.015625 2.6875 -4.875 2.472656 -3.449219 L 2.328125 -2.441406 C 2.183594 -1.492188 2.644531 -0.882812 2.992188 -0.519531 C 3.511719 0.03125 3.808594 0.160156 4.9375 0.1875 L 5.652344 0.207031 C 6.128906 0.21875 6.609375 0.0507812 7.265625 0.0703125 C 7.324219 0.0703125 7.441406 0.0742188 7.5 0.0742188 C 9.464844 0.1875 9.816406 0.433594 10.949219 0.402344 L 13.984375 0.363281 C 14.640625 0.378906 15.230469 0.515625 16.007812 0.535156 C 16.066406 0.535156 16.183594 0.539062 16.242188 0.542969 C 16.957031 0.558594 17.257812 0.449219 17.625 0.160156 C 18.050781 -0.1875 18.296875 -0.535156 18.4375 -1.367188 C 18.441406 -1.484375 18.445312 -1.664062 18.449219 -1.785156 C 18.453125 -1.960938 18.398438 -2.082031 18.34375 -2.261719 C 18.285156 -2.441406 18.292969 -2.621094 18.238281 -2.800781 L 18.074219 -3.460938 C 17.964844 -3.820312 17.96875 -3.878906 17.984375 -4.476562 C 18 -5.191406 18.148438 -6.316406 19.457031 -6.285156 C 20.589844 -6.253906 21.746094 -4.972656 22.914062 -4.050781 C 24.199219 -3.0625 27.648438 -0.589844 28.824219 -0.0234375 C 29.589844 0.351562 30.769531 0.800781 33.683594 0.875 L 37.910156 0.984375 C 38.921875 1.011719 39.585938 0.671875 39.953125 0.265625 C 40.503906 -0.316406 40.582031 -1.03125 40.601562 -1.742188 C 40.660156 -4.003906 40.195312 -2.171875 40.4375 -4.605469 L 40.59375 -6.03125 C 40.601562 -6.390625 40.613281 -6.746094 40.679688 -7.101562 C 40.6875 -7.28125 40.75 -7.515625 40.757812 -7.695312 C 40.765625 -8.050781 40.773438 -8.410156 40.785156 -8.765625 C 40.800781 -9.480469 40.765625 -10.375 40.128906 -10.988281 C 39.777344 -11.292969 39.070312 -11.609375 38.355469 -11.628906 C 36.511719 -11.675781 37.992188 -11.339844 35.074219 -11.414062 C 34.601562 -11.429688 33.414062 -11.578125 32.945312 -11.949219 C 32.539062 -12.316406 32.484375 -12.554688 32.492188 -12.792969 C 32.5 -13.148438 32.746094 -13.441406 32.925781 -13.496094 L 34.375 -14.171875 C 35.277344 -14.566406 37.027344 -15.414062 37.835938 -16.824219 L 39.082031 -18.933594 C 40.328125 -21.046875 40.652344 -24.253906 40.671875 -25.085938 C 40.6875 -25.683594 40.4375 -27.535156 40.105469 -28.4375 C 39.9375 -28.917969 39.652344 -29.402344 39.367188 -29.886719 C 39.027344 -30.488281 38.746094 -31.152344 38.464844 -31.753906 C 37.894531 -32.839844 37.15625 -34.109375 35.875 -35.335938 C 34.074219 -37.050781 32.484375 -37.6875 31.777344 -37.945312 C 30.652344 -38.328125 28.109375 -38.992188 25.851562 -39.109375 C 25.433594 -39.121094 25.015625 -39.132812 24.601562 -39.140625 C 23.886719 -39.160156 23.113281 -39.121094 22.398438 -39.199219 C 21.386719 -39.285156 20.917969 -39.476562 19.667969 -39.507812 C 18.179688 -39.546875 17.101562 -39.277344 15.730469 -39.3125 C 14.601562 -39.34375 13.46875 -39.3125 12.34375 -39.519531 C 11.867188 -39.59375 11.390625 -39.605469 10.914062 -39.617188 Z M 18.398438 -25.128906 C 18.410156 -25.488281 18.472656 -25.605469 18.902344 -26.1875 C 19.148438 -26.480469 19.453125 -26.710938 20.523438 -26.683594 C 21.179688 -26.664062 21.355469 -26.480469 21.769531 -26.410156 L 23.789062 -26.179688 C 24.085938 -26.171875 24.550781 -25.804688 24.726562 -25.679688 C 25.484375 -25.066406 25.878906 -24.21875 25.859375 -23.386719 C 25.808594 -21.421875 24.121094 -20.753906 23.402344 -20.472656 C 22.257812 -20.085938 20.765625 -19.828125 19.988281 -19.847656 C 19.691406 -19.855469 19.101562 -19.988281 18.867188 -20.175781 C 18.632812 -20.359375 18.464844 -20.78125 18.414062 -21.019531 C 18.417969 -21.199219 18.421875 -21.316406 18.425781 -21.496094 C 18.429688 -21.617188 18.371094 -21.734375 18.375 -21.855469 C 18.269531 -22.394531 18.339844 -22.867188 18.355469 -23.402344 Z M 18.398438 -25.128906 "/></g></g></g><g fill="#faf1b3" fill-opacity="1"><g transform="translate(241.609488, 211.44281)"><g><path d="M 3.308594 -28.796875 C 3.15625 -22.847656 2.917969 -20.589844 2.886719 -19.398438 C 2.847656 -17.851562 2.921875 -16.242188 2.941406 -14.691406 C 2.929688 -14.15625 2.917969 -13.679688 2.902344 -13.144531 C 2.878906 -12.253906 2.855469 -11.359375 2.832031 -10.46875 L 2.820312 -7.667969 C 2.785156 -6.359375 2.605469 -6.304688 2.476562 -3.628906 C 2.46875 -3.390625 2.464844 -3.152344 2.457031 -2.914062 C 2.433594 -2.019531 2.519531 -0.648438 3.574219 -0.0273438 C 4.101562 0.285156 4.757812 0.300781 5.171875 0.3125 C 6.304688 0.34375 6.726562 0.175781 7.4375 0.195312 L 11.25 0.292969 C 11.84375 0.308594 12.496094 0.445312 13.683594 0.535156 C 13.980469 0.542969 14.339844 0.550781 14.636719 0.558594 C 15.648438 0.527344 16.839844 0.558594 17.390625 -0.0820312 C 17.761719 -0.492188 17.839844 -1.324219 17.855469 -1.859375 C 17.910156 -4 17.632812 -2.519531 17.699219 -5.019531 L 17.75 -6.921875 C 17.757812 -7.339844 17.847656 -8.527344 18.46875 -9.464844 C 18.59375 -9.699219 19.085938 -10.34375 19.921875 -10.320312 C 20.21875 -10.3125 20.691406 -10.121094 20.921875 -9.9375 C 21.097656 -9.8125 21.269531 -9.570312 22.425781 -8.171875 C 24.964844 -5.007812 24.5 -5.554688 25.183594 -4.289062 L 25.980469 -2.839844 C 26.492188 -1.871094 27.277344 -0.0664062 28.390625 0.558594 C 28.863281 0.808594 29.992188 0.839844 30.765625 0.859375 C 31.71875 0.882812 33.09375 0.683594 34.164062 0.710938 L 35.59375 0.746094 C 35.832031 0.753906 35.949219 0.757812 36.367188 0.765625 C 36.960938 0.839844 37.492188 0.976562 40.113281 1.042969 C 40.707031 1.058594 41.363281 1.074219 41.957031 1.089844 C 42.433594 1.101562 43.507812 1.070312 44.191406 -0.0429688 C 44.378906 -0.394531 44.570312 -0.984375 44.585938 -1.460938 C 44.617188 -2.710938 43.453125 -3.753906 42.648438 -4.847656 C 42.015625 -5.695312 42.1875 -5.453125 41.839844 -5.878906 C 40.976562 -6.972656 41.386719 -6.726562 40.367188 -8.835938 C 40.027344 -9.5 39.226562 -10.710938 38.882812 -11.199219 C 38.535156 -11.625 38.1875 -12.050781 37.84375 -12.476562 C 37.613281 -12.777344 37.382812 -13.023438 37.152344 -13.328125 C 36.460938 -14.238281 36.011719 -15.320312 35.328125 -16.589844 C 34.421875 -18.28125 34.410156 -17.925781 32.921875 -20.167969 C 32.523438 -20.949219 32.960938 -21.65625 33.144531 -21.949219 L 35.617188 -25.335938 C 36.605469 -26.679688 37.417969 -28.148438 38.710938 -29.84375 C 39.699219 -31.128906 40.003906 -31.417969 40.621094 -32.292969 C 42.847656 -35.394531 42.996094 -36.519531 43.007812 -36.996094 C 43.03125 -38.007812 42.570312 -38.554688 42.277344 -38.742188 C 41.984375 -38.929688 41.511719 -39 40.378906 -39.03125 C 39.605469 -39.050781 39.007812 -38.886719 38.410156 -38.902344 L 34.601562 -39 C 30.496094 -39.109375 29.546875 -39.191406 28.472656 -39.101562 C 28.171875 -39.050781 27.753906 -39 27.453125 -38.828125 C 27.027344 -38.601562 26.472656 -37.84375 26.226562 -37.492188 C 25.914062 -37.023438 25.664062 -36.496094 25.355469 -36.027344 C 25.105469 -35.617188 24.796875 -35.207031 24.546875 -34.796875 C 23.363281 -32.800781 23.621094 -33.570312 23.007812 -32.8125 C 22.515625 -32.230469 22.5625 -31.691406 20.78125 -29.652344 C 20.351562 -29.1875 19.859375 -28.605469 19.207031 -28.621094 C 18.847656 -28.632812 18.441406 -28.941406 18.273438 -29.480469 C 18.21875 -29.601562 18.109375 -29.902344 18.136719 -30.972656 C 18.160156 -31.984375 18.289062 -32.339844 18.328125 -33.765625 L 18.375 -35.671875 C 18.386719 -36.027344 18.566406 -36.144531 18.582031 -36.738281 C 18.585938 -36.796875 18.585938 -36.855469 18.585938 -36.917969 C 18.589844 -36.976562 18.589844 -36.976562 18.589844 -37.035156 C 18.617188 -37.988281 18.386719 -38.351562 17.921875 -38.78125 C 17.453125 -39.148438 17.160156 -39.277344 16.148438 -39.300781 C 14.484375 -39.40625 12.878906 -39.507812 11.269531 -39.429688 C 10.613281 -39.386719 10.015625 -39.34375 9.359375 -39.359375 L 8.230469 -39.390625 C 7.933594 -39.398438 7.574219 -39.40625 7.277344 -39.414062 C 6.742188 -39.429688 6.148438 -39.503906 5.613281 -39.515625 C 4.601562 -39.542969 4.050781 -39.019531 3.804688 -38.730469 C 3.375 -38.207031 3.113281 -37.257812 3.09375 -36.484375 C 3.007812 -33.210938 3.492188 -35.761719 3.34375 -30.105469 Z M 3.308594 -28.796875 "/></g></g></g><g clip-path="url(#c4bd62037c)"><path fill="#9900ff" d="M 395.1875 34.574219 C 396.316406 32.410156 394.621094 29.910156 392.265625 30.292969 C 391.386719 30.425781 391.039062 30.636719 389.183594 32.152344 C 386.464844 34.351562 384.875 35.769531 372.605469 47.078125 C 358.933594 59.664062 351.261719 66.929688 350.734375 67.800781 C 350.273438 68.566406 350.132812 69.496094 350.371094 70.273438 C 350.535156 70.835938 350.675781 71.039062 351.242188 71.546875 C 352.074219 72.300781 352.9375 72.496094 353.972656 72.167969 C 354.757812 71.917969 355.511719 71.316406 360.675781 66.84375 C 364.503906 63.53125 365.75 62.402344 378.554688 50.613281 C 389.9375 40.128906 394.652344 35.589844 395.1875 34.574219 Z M 395.1875 34.574219 " fill-opacity="1" fill-rule="nonzero"/></g><path fill="#9900ff" d="M 337.320312 56.320312 C 341.617188 50.601562 342.480469 49.015625 342.117188 47.445312 C 341.859375 46.359375 341.265625 45.710938 340.21875 45.375 C 338.71875 44.886719 337.703125 45.367188 335.988281 47.328125 C 334.753906 48.753906 329.503906 56.703125 329.207031 57.59375 C 328.949219 58.390625 329.140625 59.558594 329.640625 60.226562 C 330.617188 61.550781 332.570312 61.722656 333.902344 60.601562 C 334.167969 60.371094 335.710938 58.445312 337.320312 56.320312 Z M 337.320312 56.320312 " fill-opacity="1" fill-rule="nonzero"/><path fill="#9900ff" d="M 307.125 50.8125 C 307.453125 50.257812 308.246094 46.476562 309.425781 40.03125 C 310.066406 36.480469 313.789062 13.351562 314.117188 10.902344 C 314.453125 8.421875 314.835938 4.9375 314.855469 4.207031 C 314.921875 2.417969 313.761719 1.105469 312.058594 1.027344 C 310.640625 0.972656 309.617188 1.746094 309.117188 3.222656 C 308.476562 5.164062 305.210938 24.269531 303.230469 37.648438 C 302.644531 41.542969 301.707031 49.03125 301.734375 49.503906 C 301.746094 49.703125 301.878906 50.164062 302.011719 50.527344 C 302.863281 52.71875 305.949219 52.890625 307.125 50.8125 Z M 307.125 50.8125 " fill-opacity="1" fill-rule="nonzero"/><g clip-path="url(#23d50de75d)"><path fill="#9900ff" d="M 282.996094 49.953125 C 283.367188 48.945312 283.195312 48.257812 281.261719 43.316406 C 277.988281 34.925781 277 32.773438 275.839844 31.574219 C 274.050781 29.726562 270.996094 30.808594 270.832031 33.347656 C 270.738281 35.03125 271.945312 38.175781 275.839844 46.359375 C 277.691406 50.238281 277.8125 50.480469 278.445312 51.035156 C 278.953125 51.484375 279.25 51.648438 279.757812 51.753906 C 281.097656 52.019531 282.515625 51.234375 282.996094 49.953125 Z M 282.996094 49.953125 " fill-opacity="1" fill-rule="nonzero"/></g></g></g></svg>