<svg xmlns="http://www.w3.org/2000/svg" xmlns:xlink="http://www.w3.org/1999/xlink" width="877" zoomAndPan="magnify" viewBox="0 0 657.75 102.749999" height="137" preserveAspectRatio="xMidYMid meet" version="1.0"><defs><clipPath id="f97304b8bf"><path d="M 100 0 L 557.585938 0 L 557.585938 102.5 L 100 102.5 Z M 100 0 " clip-rule="nonzero"/></clipPath></defs><g clip-path="url(#f97304b8bf)"><path fill="#0c0b0b" d="M 537.5625 20.769531 L 537.550781 48.582031 C 543.796875 48.582031 550.089844 48.339844 556.40625 47.804688 L 557.210938 56.921875 L 553.171875 57.222656 L 551.152344 57.367188 L 549.144531 57.460938 C 547.808594 57.519531 546.46875 57.585938 545.128906 57.636719 L 541.140625 57.71875 C 540.476562 57.726562 539.808594 57.746094 539.148438 57.75 L 537.167969 57.738281 C 535.851562 57.738281 534.527344 57.738281 533.210938 57.710938 L 529.289062 57.609375 C 528.636719 57.585938 527.976562 57.578125 527.328125 57.546875 L 525.382812 57.453125 L 523.4375 57.363281 C 522.789062 57.328125 522.136719 57.308594 521.496094 57.261719 L 517.640625 57.011719 C 516.347656 56.9375 515.082031 56.824219 513.808594 56.722656 L 511.898438 56.566406 C 511.261719 56.511719 510.621094 56.464844 509.996094 56.410156 C 507.472656 56.167969 504.941406 55.941406 502.453125 55.660156 L 500.578125 55.457031 C 499.953125 55.390625 499.328125 55.324219 498.703125 55.25 L 494.992188 54.8125 C 475.257812 52.429688 456.457031 49.300781 438.402344 47.554688 C 429.367188 46.648438 420.554688 46.148438 411.933594 46.121094 L 408.722656 46.164062 L 407.121094 46.1875 L 405.53125 46.25 L 402.355469 46.378906 L 399.214844 46.59375 C 398.691406 46.632812 398.164062 46.65625 397.652344 46.703125 L 396.101562 46.859375 L 394.539062 47.015625 L 393.757812 47.089844 C 393.5 47.117188 393.242188 47.136719 392.980469 47.171875 L 389.910156 47.570312 L 389.144531 47.671875 L 388.761719 47.71875 L 388.378906 47.78125 L 385.324219 48.28125 L 384.558594 48.402344 C 384.304688 48.441406 384.050781 48.480469 383.796875 48.535156 L 380.730469 49.136719 L 379.960938 49.292969 C 379.707031 49.34375 379.453125 49.390625 379.195312 49.449219 L 377.65625 49.800781 L 376.113281 50.152344 L 375.34375 50.324219 C 375.089844 50.382812 374.832031 50.441406 374.574219 50.507812 L 371.484375 51.300781 L 370.703125 51.5 C 370.445312 51.5625 370.1875 51.628906 369.921875 51.707031 L 368.371094 52.148438 C 367.335938 52.445312 366.300781 52.726562 365.265625 53.035156 L 362.140625 53.996094 C 361.621094 54.152344 361.105469 54.308594 360.578125 54.484375 L 359.019531 55.003906 C 357.972656 55.351562 356.933594 55.6875 355.894531 56.046875 L 352.753906 57.152344 C 352.230469 57.339844 351.707031 57.515625 351.179688 57.710938 L 349.605469 58.296875 L 346.445312 59.472656 L 343.273438 60.699219 L 341.6875 61.316406 L 340.09375 61.953125 L 336.902344 63.234375 L 333.695312 64.554688 L 332.09375 65.214844 L 327.253906 67.253906 L 324 68.640625 L 310.839844 74.308594 L 307.5 75.746094 L 304.132812 77.1875 C 301.894531 78.144531 299.605469 79.097656 297.335938 80.054688 C 292.746094 81.949219 288.128906 83.84375 283.378906 85.652344 C 273.933594 89.304688 264.070312 92.671875 253.8125 95.464844 C 248.660156 96.820312 243.4375 98.097656 238.074219 99.078125 C 235.417969 99.625 232.691406 100.015625 229.988281 100.445312 C 229.3125 100.558594 228.625 100.636719 227.941406 100.722656 L 225.917969 100.953125 C 224.546875 101.109375 223.179688 101.304688 221.800781 101.421875 C 210.78125 102.492188 199.824219 102.480469 189.140625 101.695312 C 178.457031 100.910156 168.03125 99.367188 157.902344 97.386719 C 147.773438 95.40625 137.917969 92.980469 128.308594 90.382812 C 118.699219 87.78125 109.304688 85 100.085938 82.261719 L 102.695312 73.484375 L 110.621094 75.828125 L 118.476562 49.144531 L 110.621094 46.816406 L 113.230469 38.042969 C 122.40625 40.773438 131.421875 43.441406 140.332031 45.851562 C 149.242188 48.265625 158.046875 50.410156 166.75 52.113281 C 175.453125 53.816406 184.054688 55.070312 192.511719 55.691406 C 200.96875 56.3125 209.269531 56.296875 217.355469 55.511719 C 218.367188 55.433594 219.382812 55.285156 220.386719 55.164062 L 221.90625 54.980469 C 222.410156 54.917969 222.914062 54.867188 223.425781 54.777344 C 225.453125 54.441406 227.484375 54.167969 229.527344 53.742188 C 233.605469 53.007812 237.714844 51.992188 241.839844 50.910156 C 250.097656 48.660156 258.433594 45.84375 266.882812 42.574219 C 271.097656 40.96875 275.363281 39.222656 279.644531 37.453125 C 281.800781 36.546875 283.9375 35.65625 286.109375 34.726562 L 289.359375 33.339844 L 292.640625 31.933594 L 305.910156 26.214844 L 309.277344 24.777344 L 312.683594 23.34375 L 314.386719 22.625 L 316.105469 21.914062 L 319.550781 20.496094 L 323.042969 19.089844 L 324.789062 18.390625 L 326.554688 17.703125 L 330.097656 16.335938 L 333.6875 15 L 335.484375 14.332031 C 336.082031 14.113281 336.695312 13.902344 337.300781 13.6875 L 340.949219 12.402344 C 342.171875 11.980469 343.414062 11.578125 344.644531 11.167969 L 346.496094 10.554688 C 347.121094 10.351562 347.746094 10.164062 348.371094 9.96875 L 352.132812 8.808594 C 353.394531 8.433594 354.671875 8.082031 355.945312 7.714844 L 357.855469 7.175781 C 358.167969 7.082031 358.496094 7 358.820312 6.917969 L 359.789062 6.667969 L 363.667969 5.675781 C 363.992188 5.589844 364.320312 5.519531 364.648438 5.441406 L 365.632812 5.21875 L 367.601562 4.769531 L 369.570312 4.324219 C 369.898438 4.246094 370.230469 4.179688 370.5625 4.117188 L 371.5625 3.917969 L 375.5625 3.136719 C 375.890625 3.070312 376.230469 3.011719 376.566406 2.957031 L 377.578125 2.792969 L 381.640625 2.136719 L 382.144531 2.054688 L 382.652344 1.988281 L 383.671875 1.855469 L 387.742188 1.332031 C 388.082031 1.285156 388.417969 1.253906 388.757812 1.21875 L 389.773438 1.121094 L 391.800781 0.921875 L 393.832031 0.726562 C 394.507812 0.667969 395.179688 0.632812 395.851562 0.582031 L 399.890625 0.3125 C 401.230469 0.25 402.566406 0.203125 403.90625 0.148438 L 405.914062 0.0703125 L 407.894531 0.046875 L 411.878906 -0.00390625 C 422.453125 0.015625 432.820312 0.640625 442.878906 1.644531 C 447.925781 2.125 452.878906 2.714844 457.800781 3.316406 C 460.246094 3.628906 462.703125 3.941406 465.121094 4.265625 L 472.359375 5.25 L 486.578125 7.210938 C 488.929688 7.535156 491.25 7.835938 493.574219 8.148438 C 494.742188 8.304688 495.886719 8.441406 497.042969 8.589844 C 498.199219 8.738281 499.355469 8.886719 500.496094 9.019531 L 503.933594 9.421875 C 504.507812 9.492188 505.074219 9.550781 505.640625 9.613281 L 507.34375 9.796875 C 509.625 10.054688 511.871094 10.25 514.125 10.46875 C 518.609375 10.855469 523.070312 11.207031 527.453125 11.382812 L 529.101562 11.460938 C 529.652344 11.492188 530.195312 11.492188 530.738281 11.511719 L 534.007812 11.601562 C 535.09375 11.617188 536.167969 11.613281 537.25 11.621094 L 538.867188 11.621094 C 539.40625 11.621094 539.9375 11.601562 540.472656 11.59375 L 543.679688 11.535156 L 546.851562 11.390625 L 548.4375 11.320312 L 550.007812 11.203125 L 553.148438 10.976562 L 553.953125 20.097656 C 548.550781 20.554688 543.082031 20.765625 537.5625 20.769531 Z M 547.578125 16.355469 C 547.601562 16.804688 548.074219 17.148438 548.632812 17.125 C 549.90625 17.042969 551.175781 16.9375 552.449219 16.847656 C 553.003906 16.808594 553.417969 16.414062 553.378906 15.960938 L 553.179688 13.675781 C 553.140625 13.226562 552.671875 12.894531 552.132812 12.933594 C 550.882812 13.019531 549.652344 13.121094 548.402344 13.203125 C 547.859375 13.226562 547.4375 13.613281 547.464844 14.0625 Z M 538.617188 16.609375 C 538.617188 17.058594 539.085938 17.4375 539.640625 17.417969 L 543.519531 17.34375 C 544.085938 17.34375 544.519531 16.945312 544.503906 16.496094 L 544.421875 14.199219 C 544.40625 13.746094 543.953125 13.417969 543.402344 13.417969 L 539.601562 13.492188 C 539.054688 13.507812 538.605469 13.863281 538.605469 14.316406 Z M 529.523438 16.464844 C 529.507812 16.914062 529.960938 17.292969 530.527344 17.308594 C 531.839844 17.339844 533.152344 17.382812 534.457031 17.40625 C 535.027344 17.40625 535.488281 17.046875 535.492188 16.59375 L 535.515625 14.300781 C 535.515625 13.847656 535.074219 13.480469 534.519531 13.480469 C 533.234375 13.457031 531.941406 13.410156 530.652344 13.378906 C 530.09375 13.363281 529.625 13.71875 529.609375 14.167969 Z M 520.3125 15.964844 C 520.28125 16.414062 520.726562 16.808594 521.300781 16.847656 L 523.292969 16.976562 L 524.285156 17.039062 L 525.277344 17.085938 C 525.851562 17.113281 526.332031 16.773438 526.351562 16.320312 L 526.464844 14.027344 C 526.484375 13.574219 526.046875 13.191406 525.484375 13.164062 L 524.507812 13.117188 L 523.523438 13.054688 L 521.5625 12.925781 C 520.992188 12.886719 520.503906 13.222656 520.46875 13.671875 Z M 511.003906 15.183594 C 510.960938 15.632812 511.398438 16.042969 511.980469 16.097656 L 513.992188 16.289062 L 515.996094 16.453125 C 516.578125 16.5 517.078125 16.175781 517.113281 15.726562 L 517.296875 13.4375 C 517.332031 12.988281 516.898438 12.585938 516.324219 12.539062 L 514.339844 12.382812 L 512.347656 12.191406 C 511.769531 12.136719 511.269531 12.457031 511.226562 12.90625 Z M 501.589844 14.167969 C 501.539062 14.617188 501.972656 15.035156 502.5625 15.105469 C 503.925781 15.273438 505.269531 15.410156 506.625 15.554688 C 507.210938 15.617188 507.722656 15.304688 507.769531 14.859375 L 508.011719 12.574219 C 508.058594 12.125 507.625 11.710938 507.042969 11.648438 C 505.703125 11.503906 504.371094 11.367188 503.015625 11.203125 C 502.429688 11.132812 501.914062 11.441406 501.863281 11.886719 Z M 493.324219 45.382812 L 496.757812 17.78125 C 495.308594 17.59375 493.859375 17.417969 492.402344 17.226562 L 488.03125 16.648438 L 479.226562 15.441406 C 473.335938 14.625 467.402344 13.796875 461.40625 13.007812 L 457.800781 40.585938 C 463.628906 41.351562 469.496094 42.171875 475.414062 42.992188 L 484.328125 44.214844 L 488.816406 44.808594 C 490.316406 45 491.828125 45.191406 493.332031 45.375 Z M 454.4375 40.160156 L 457.929688 12.5625 C 451.90625 11.804688 445.832031 11.101562 439.691406 10.53125 C 433.546875 9.964844 427.328125 9.546875 421.054688 9.324219 L 420.089844 37.128906 C 425.730469 37.328125 431.414062 37.714844 437.136719 38.238281 C 442.859375 38.757812 448.644531 39.417969 454.445312 40.152344 Z M 416.835938 37.015625 L 417.425781 9.210938 C 411.121094 9.089844 404.761719 9.195312 398.375 9.601562 L 395.976562 9.757812 L 394.777344 9.839844 L 393.578125 9.957031 L 391.175781 10.1875 L 389.972656 10.304688 C 389.570312 10.347656 389.171875 10.378906 388.769531 10.4375 L 383.964844 11.0625 L 383.363281 11.140625 L 382.765625 11.238281 L 381.566406 11.433594 L 379.175781 11.820312 L 383.851562 39.230469 L 385.871094 38.902344 L 386.878906 38.734375 L 387.382812 38.652344 C 387.554688 38.628906 387.722656 38.609375 387.890625 38.585938 L 391.949219 38.0625 C 392.285156 38.011719 392.628906 37.988281 392.96875 37.953125 L 393.992188 37.855469 L 396.039062 37.65625 L 397.0625 37.554688 L 398.09375 37.484375 L 400.15625 37.347656 C 405.65625 37 411.222656 36.902344 416.839844 37.007812 Z M 380.730469 39.800781 L 375.503906 12.484375 L 371.953125 13.1875 L 370.78125 13.449219 L 366.097656 14.515625 L 361.472656 15.699219 C 360.691406 15.890625 359.941406 16.109375 359.179688 16.324219 L 356.894531 16.96875 C 350.816406 18.726562 344.859375 20.6875 339.011719 22.796875 L 348.472656 48.9375 C 353.84375 47.003906 359.214844 45.238281 364.589844 43.683594 L 366.605469 43.113281 C 367.277344 42.921875 367.949219 42.726562 368.621094 42.5625 L 372.660156 41.527344 L 376.695312 40.609375 L 377.703125 40.382812 L 378.714844 40.183594 Z M 345.363281 50.101562 L 335.660156 24.035156 C 329.867188 26.199219 324.164062 28.472656 318.554688 30.808594 C 312.945312 33.144531 307.414062 35.523438 301.929688 37.890625 L 312.945312 63.429688 C 318.410156 61.070312 323.824219 58.742188 329.222656 56.492188 C 334.617188 54.246094 339.996094 52.101562 345.371094 50.09375 Z M 309.78125 64.792969 L 298.773438 39.253906 C 293.308594 41.609375 287.894531 43.941406 282.5 46.183594 C 277.101562 48.429688 271.726562 50.558594 266.359375 52.5625 L 276.039062 78.640625 C 281.839844 76.480469 287.542969 74.207031 293.15625 71.875 C 298.773438 69.542969 304.300781 67.15625 309.789062 64.789062 Z M 272.683594 79.867188 L 263.261719 53.699219 C 257.894531 55.621094 252.527344 57.382812 247.152344 58.925781 L 245.136719 59.488281 L 244.128906 59.773438 L 243.625 59.914062 L 243.121094 60.039062 L 239.085938 61.058594 C 237.742188 61.371094 236.394531 61.660156 235.050781 61.964844 L 234.042969 62.191406 C 233.707031 62.261719 233.371094 62.320312 233.035156 62.386719 L 231.015625 62.773438 L 236.148438 90.109375 L 238.519531 89.652344 C 238.914062 89.574219 239.3125 89.496094 239.703125 89.421875 L 240.875 89.160156 C 242.4375 88.808594 244.007812 88.472656 245.5625 88.105469 L 250.195312 86.933594 L 250.777344 86.789062 L 251.347656 86.632812 L 252.492188 86.320312 L 254.78125 85.679688 C 260.863281 83.929688 266.824219 81.972656 272.683594 79.867188 Z M 232.476562 90.765625 L 227.90625 63.328125 L 225.886719 63.640625 L 224.878906 63.796875 C 224.542969 63.847656 224.207031 63.910156 223.871094 63.953125 L 219.835938 64.449219 L 219.332031 64.511719 L 218.828125 64.558594 L 217.816406 64.652344 C 217.140625 64.710938 216.46875 64.78125 215.792969 64.832031 L 213.765625 64.972656 L 212.75 65.042969 L 211.730469 65.089844 L 209.699219 65.183594 C 209.019531 65.210938 208.335938 65.214844 207.65625 65.234375 L 206.121094 65.269531 L 203.554688 65.269531 C 202.871094 65.28125 202.1875 65.261719 201.5 65.246094 L 199.441406 65.207031 L 197.378906 65.125 L 196.34375 65.085938 C 196 65.074219 195.65625 65.046875 195.308594 65.027344 L 193.8125 92.800781 C 194.210938 92.824219 194.609375 92.851562 195.011719 92.867188 L 196.210938 92.914062 L 198.613281 93.007812 L 201.023438 93.058594 C 201.828125 93.070312 202.632812 93.09375 203.4375 93.085938 L 206.460938 93.085938 L 207.066406 93.074219 L 208.277344 93.046875 C 209.085938 93.023438 209.894531 93.015625 210.703125 92.980469 L 213.128906 92.871094 L 214.34375 92.816406 L 215.558594 92.730469 L 217.988281 92.566406 C 218.796875 92.503906 219.605469 92.417969 220.417969 92.347656 L 221.632812 92.234375 L 222.242188 92.175781 L 222.84375 92.101562 L 227.683594 91.507812 C 228.089844 91.464844 228.488281 91.394531 228.886719 91.332031 L 230.085938 91.144531 Z M 190.117188 92.578125 L 192.105469 64.839844 C 186.578125 64.433594 181.03125 63.796875 175.460938 62.9375 C 169.894531 62.074219 164.3125 61.03125 158.726562 59.8125 L 152.824219 86.992188 C 158.882812 88.304688 165.023438 89.46875 171.234375 90.425781 C 177.445312 91.386719 183.75 92.117188 190.109375 92.582031 Z M 492.09375 12.972656 C 492.035156 13.417969 492.46875 13.84375 493.066406 13.925781 L 497.164062 14.441406 C 497.757812 14.515625 498.28125 14.214844 498.335938 13.769531 L 498.617188 11.488281 C 498.671875 11.039062 498.238281 10.617188 497.648438 10.550781 L 493.570312 10.035156 C 492.976562 9.957031 492.449219 10.253906 492.390625 10.703125 Z M 482.472656 11.671875 C 482.410156 12.121094 482.855469 12.550781 483.453125 12.632812 L 487.597656 13.199219 C 488.195312 13.28125 488.730469 12.980469 488.789062 12.535156 L 489.09375 10.257812 C 489.152344 9.8125 488.71875 9.386719 488.121094 9.304688 L 483.988281 8.742188 C 483.390625 8.660156 482.847656 8.953125 482.785156 9.398438 Z M 472.746094 10.324219 C 472.683594 10.769531 473.125 11.203125 473.730469 11.285156 L 477.925781 11.867188 C 478.527344 11.949219 479.066406 11.65625 479.128906 11.210938 L 479.441406 8.9375 C 479.503906 8.488281 479.066406 8.058594 478.460938 7.976562 L 474.265625 7.394531 C 473.660156 7.308594 473.117188 7.605469 473.054688 8.050781 Z M 462.886719 8.988281 C 462.832031 9.4375 463.28125 9.867188 463.898438 9.945312 L 468.136719 10.515625 C 468.75 10.601562 469.296875 10.304688 469.355469 9.859375 L 469.667969 7.585938 C 469.730469 7.136719 469.28125 6.707031 468.667969 6.621094 L 464.414062 6.054688 C 463.789062 5.96875 463.25 6.265625 463.191406 6.714844 Z M 452.902344 7.738281 C 452.851562 8.1875 453.3125 8.613281 453.9375 8.6875 L 456.089844 8.945312 L 458.230469 9.214844 C 458.855469 9.296875 459.398438 8.996094 459.457031 8.550781 L 459.75 6.273438 C 459.804688 5.824219 459.347656 5.398438 458.722656 5.320312 L 456.574219 5.046875 L 454.40625 4.785156 C 453.78125 4.710938 453.226562 5.011719 453.171875 5.460938 Z M 442.777344 6.636719 C 442.734375 7.085938 443.210938 7.5 443.84375 7.5625 C 445.308594 7.699219 446.75 7.863281 448.199219 8.023438 C 448.820312 8.09375 449.375 7.785156 449.425781 7.339844 L 449.683594 5.054688 C 449.734375 4.609375 449.261719 4.1875 448.628906 4.117188 C 447.167969 3.960938 445.714844 3.792969 444.238281 3.652344 C 443.597656 3.589844 443.046875 3.898438 443.003906 4.347656 Z M 432.503906 5.757812 C 432.472656 6.207031 432.972656 6.605469 433.613281 6.652344 C 434.355469 6.699219 435.085938 6.765625 435.820312 6.828125 L 438.027344 7.015625 C 438.664062 7.070312 439.214844 6.75 439.253906 6.300781 L 439.460938 4.011719 C 439.5 3.566406 439.011719 3.15625 438.367188 3.101562 L 436.140625 2.910156 C 435.398438 2.851562 434.65625 2.78125 433.90625 2.734375 C 433.253906 2.691406 432.703125 3.019531 432.667969 3.46875 Z M 422.085938 5.179688 C 422.070312 5.628906 422.585938 6.007812 423.238281 6.035156 L 427.710938 6.265625 C 428.359375 6.296875 428.90625 5.953125 428.933594 5.511719 L 429.074219 3.21875 C 429.101562 2.765625 428.589844 2.375 427.933594 2.339844 L 423.40625 2.105469 C 422.75 2.082031 422.195312 2.433594 422.179688 2.886719 Z M 411.527344 4.980469 C 411.542969 5.234375 411.660156 5.425781 411.878906 5.554688 C 412.132812 5.722656 412.414062 5.804688 412.722656 5.800781 L 417.25 5.847656 C 417.90625 5.859375 418.441406 5.515625 418.453125 5.066406 L 418.511719 2.769531 C 418.519531 2.324219 417.996094 1.933594 417.328125 1.921875 L 412.722656 1.875 C 412.414062 1.867188 412.128906 1.945312 411.867188 2.105469 C 411.644531 2.238281 411.527344 2.429688 411.515625 2.6875 Z M 400.839844 5.261719 C 400.863281 5.710938 401.417969 6.054688 402.085938 6.03125 L 404.382812 5.9375 L 405.53125 5.894531 L 406.101562 5.871094 L 406.675781 5.871094 C 407.332031 5.863281 407.863281 5.488281 407.851562 5.039062 L 407.8125 2.742188 C 407.804688 2.292969 407.253906 1.933594 406.582031 1.941406 L 406 1.949219 L 405.417969 1.972656 L 404.25 2.019531 L 401.90625 2.113281 C 401.230469 2.136719 400.699219 2.527344 400.722656 2.976562 Z M 390.066406 6.105469 C 390.113281 6.554688 390.691406 6.863281 391.363281 6.800781 L 393.671875 6.574219 C 394.058594 6.542969 394.445312 6.496094 394.828125 6.472656 L 395.980469 6.390625 C 396.648438 6.347656 397.164062 5.945312 397.132812 5.496094 L 396.976562 3.207031 C 396.945312 2.753906 396.371094 2.425781 395.6875 2.472656 L 394.511719 2.554688 C 394.125 2.578125 393.734375 2.625 393.335938 2.660156 L 390.976562 2.890625 C 390.292969 2.957031 389.777344 3.375 389.828125 3.828125 Z M 379.265625 7.574219 C 379.339844 8.019531 379.941406 8.292969 380.605469 8.183594 L 382.910156 7.8125 L 385.222656 7.507812 C 385.894531 7.421875 386.390625 6.988281 386.335938 6.542969 L 386.035156 4.265625 C 385.980469 3.816406 385.378906 3.527344 384.695312 3.613281 L 382.332031 3.925781 L 379.976562 4.304688 C 379.296875 4.417969 378.800781 4.867188 378.875 5.3125 Z M 368.628906 9.65625 C 368.726562 10.09375 369.335938 10.332031 369.984375 10.183594 L 371.109375 9.929688 C 371.488281 9.851562 371.867188 9.773438 372.246094 9.703125 L 374.523438 9.257812 C 375.179688 9.128906 375.648438 8.664062 375.566406 8.222656 L 375.144531 5.964844 C 375.0625 5.523438 374.449219 5.269531 373.777344 5.398438 L 371.453125 5.855469 C 371.070312 5.933594 370.671875 6.011719 370.292969 6.085938 L 369.148438 6.347656 C 368.484375 6.503906 368.027344 6.972656 368.128906 7.414062 Z M 358.234375 12.253906 C 358.355469 12.691406 358.96875 12.894531 359.601562 12.722656 C 361.078125 12.335938 362.558594 11.960938 364.035156 11.582031 C 364.679688 11.425781 365.113281 10.929688 365.007812 10.488281 L 364.464844 8.257812 C 364.359375 7.820312 363.742188 7.601562 363.085938 7.769531 C 361.582031 8.152344 360.074219 8.535156 358.574219 8.929688 C 357.929688 9.113281 357.503906 9.613281 357.625 10.046875 Z M 348.097656 15.28125 C 348.191406 15.519531 348.359375 15.667969 348.605469 15.726562 C 348.898438 15.804688 349.1875 15.800781 349.476562 15.703125 L 353.796875 14.371094 C 354.421875 14.175781 354.835938 13.691406 354.710938 13.253906 L 354.0625 11.050781 C 353.941406 10.621094 353.308594 10.410156 352.675781 10.605469 L 348.292969 11.957031 C 347.996094 12.042969 347.75 12.203125 347.554688 12.4375 C 347.382812 12.628906 347.332031 12.847656 347.398438 13.097656 Z M 338.21875 18.65625 C 338.375 19.082031 338.988281 19.25 339.597656 19.035156 L 341.699219 18.292969 C 342.402344 18.050781 343.105469 17.792969 343.8125 17.566406 C 344.4375 17.359375 344.8125 16.847656 344.667969 16.417969 L 343.9375 14.242188 C 343.796875 13.816406 343.175781 13.636719 342.546875 13.84375 C 341.824219 14.078125 341.121094 14.335938 340.410156 14.582031 L 338.285156 15.332031 C 337.667969 15.550781 337.292969 16.070312 337.445312 16.496094 Z M 328.574219 22.277344 C 328.730469 22.699219 329.351562 22.851562 329.945312 22.621094 L 331.996094 21.828125 C 332.675781 21.5625 333.375 21.3125 334.066406 21.046875 C 334.667969 20.824219 335.027344 20.300781 334.871094 19.878906 L 334.074219 17.722656 C 333.917969 17.300781 333.292969 17.140625 332.691406 17.367188 C 331.992188 17.628906 331.285156 17.882812 330.597656 18.148438 L 328.53125 18.949219 C 327.929688 19.179688 327.578125 19.710938 327.742188 20.128906 Z M 319.132812 26.0625 C 319.304688 26.484375 319.914062 26.625 320.492188 26.386719 C 321.824219 25.832031 323.179688 25.292969 324.53125 24.753906 C 325.121094 24.515625 325.460938 23.988281 325.292969 23.566406 L 324.445312 21.433594 C 324.277344 21.015625 323.664062 20.867188 323.074219 21.105469 C 321.710938 21.652344 320.34375 22.199219 319.003906 22.75 C 318.421875 22.992188 318.085938 23.53125 318.257812 23.941406 Z M 309.863281 29.949219 C 310.042969 30.363281 310.644531 30.503906 311.214844 30.261719 L 315.183594 28.589844 C 315.757812 28.347656 316.085938 27.808594 315.914062 27.398438 L 315.027344 25.277344 C 314.855469 24.863281 314.246094 24.722656 313.667969 24.964844 L 309.679688 26.644531 C 309.109375 26.890625 308.789062 27.425781 308.964844 27.839844 Z M 300.746094 33.863281 C 300.925781 34.277344 301.527344 34.417969 302.089844 34.175781 L 305.996094 32.492188 C 306.558594 32.25 306.878906 31.710938 306.699219 31.300781 L 305.796875 29.191406 C 305.621094 28.777344 305.015625 28.640625 304.445312 28.878906 L 300.542969 30.5625 C 299.976562 30.808594 299.664062 31.34375 299.84375 31.753906 Z M 291.753906 37.742188 C 291.933594 38.152344 292.535156 38.296875 293.085938 38.050781 L 296.941406 36.390625 C 297.503906 36.148438 297.8125 35.609375 297.636719 35.203125 L 296.726562 33.09375 C 296.546875 32.679688 295.945312 32.542969 295.386719 32.78125 L 291.535156 34.441406 C 290.980469 34.679688 290.671875 35.210938 290.851562 35.625 Z M 282.855469 41.515625 C 283.027344 41.933594 283.621094 42.082031 284.171875 41.847656 C 285.441406 41.316406 286.710938 40.78125 287.992188 40.234375 C 288.546875 40 288.851562 39.46875 288.675781 39.054688 L 287.777344 36.945312 C 287.597656 36.527344 287.007812 36.382812 286.453125 36.617188 L 284.546875 37.429688 L 282.652344 38.226562 C 282.101562 38.457031 281.796875 38.980469 281.96875 39.398438 Z M 274.03125 45.128906 C 274.199219 45.550781 274.78125 45.710938 275.324219 45.492188 C 276.585938 44.996094 277.855469 44.464844 279.121094 43.949219 C 279.671875 43.722656 279.976562 43.199219 279.804688 42.785156 L 278.929688 40.664062 C 278.757812 40.246094 278.175781 40.089844 277.628906 40.316406 C 276.378906 40.828125 275.109375 41.355469 273.859375 41.847656 C 273.316406 42.0625 273.011719 42.578125 273.179688 43 Z M 265.257812 48.527344 C 265.414062 48.949219 265.984375 49.128906 266.53125 48.925781 C 267.78125 48.457031 269.046875 47.960938 270.304688 47.476562 C 270.851562 47.265625 271.164062 46.757812 271 46.335938 L 270.164062 44.199219 C 270.007812 43.777344 269.425781 43.605469 268.882812 43.816406 C 267.632812 44.292969 266.386719 44.78125 265.148438 45.25 C 264.609375 45.449219 264.300781 45.953125 264.457031 46.375 Z M 256.523438 51.640625 C 256.667969 52.070312 257.226562 52.265625 257.773438 52.078125 L 261.535156 50.761719 C 262.078125 50.574219 262.398438 50.0625 262.242188 49.640625 L 261.460938 47.480469 C 261.308594 47.054688 260.746094 46.878906 260.214844 47.0625 L 256.503906 48.363281 C 255.964844 48.554688 255.648438 49.039062 255.792969 49.464844 Z M 247.8125 54.40625 C 247.9375 54.839844 248.484375 55.054688 249.027344 54.886719 L 250.902344 54.316406 L 251.835938 54.027344 C 252.148438 53.933594 252.460938 53.839844 252.773438 53.730469 C 253.320312 53.554688 253.648438 53.0625 253.507812 52.640625 L 252.800781 50.453125 C 252.660156 50.023438 252.117188 49.816406 251.578125 49.996094 C 251.265625 50.097656 250.957031 50.195312 250.65625 50.285156 L 249.734375 50.566406 L 247.894531 51.128906 C 247.359375 51.285156 247.03125 51.777344 247.15625 52.210938 Z M 239.132812 56.75 C 239.242188 57.1875 239.765625 57.429688 240.308594 57.292969 C 241.558594 56.980469 242.808594 56.679688 244.054688 56.3125 C 244.597656 56.160156 244.941406 55.691406 244.816406 55.253906 L 244.191406 53.039062 C 244.074219 52.605469 243.542969 52.375 243.011719 52.523438 C 241.785156 52.882812 240.566406 53.171875 239.34375 53.484375 C 238.816406 53.617188 238.472656 54.082031 238.582031 54.519531 Z M 230.476562 58.632812 C 230.5625 59.074219 231.070312 59.351562 231.609375 59.246094 C 232.234375 59.125 232.859375 59.019531 233.484375 58.886719 L 235.355469 58.46875 C 235.898438 58.347656 236.253906 57.890625 236.15625 57.453125 L 235.648438 55.214844 C 235.546875 54.773438 235.039062 54.511719 234.511719 54.628906 L 232.683594 55.039062 C 232.074219 55.167969 231.46875 55.273438 230.863281 55.394531 C 230.339844 55.492188 229.980469 55.933594 230.0625 56.375 Z M 221.855469 60.003906 C 221.910156 60.453125 222.394531 60.761719 222.933594 60.695312 C 223.246094 60.65625 223.558594 60.628906 223.871094 60.578125 L 224.804688 60.421875 L 226.667969 60.125 C 227.210938 60.042969 227.585938 59.613281 227.511719 59.167969 L 227.128906 56.902344 C 227.054688 56.460938 226.566406 56.164062 226.035156 56.246094 L 223.316406 56.679688 C 223.015625 56.726562 222.714844 56.753906 222.414062 56.792969 C 221.890625 56.859375 221.511719 57.273438 221.566406 57.71875 Z M 213.230469 60.835938 C 213.253906 61.289062 213.71875 61.617188 214.261719 61.585938 L 215.199219 61.519531 C 215.511719 61.5 215.824219 61.480469 216.136719 61.449219 L 217.996094 61.273438 C 218.539062 61.222656 218.933594 60.824219 218.890625 60.371094 L 218.648438 58.089844 C 218.601562 57.640625 218.140625 57.316406 217.617188 57.363281 L 215.808594 57.53125 C 215.507812 57.5625 215.203125 57.582031 214.902344 57.601562 L 213.992188 57.664062 C 213.464844 57.703125 213.054688 58.09375 213.089844 58.546875 Z M 204.496094 61.121094 C 204.496094 61.574219 204.941406 61.9375 205.496094 61.9375 C 206.128906 61.9375 206.757812 61.917969 207.386719 61.90625 L 209.277344 61.863281 C 209.824219 61.839844 210.25 61.453125 210.226562 61.003906 L 210.132812 58.707031 C 210.117188 58.257812 209.667969 57.914062 209.140625 57.9375 L 207.300781 57.976562 C 206.6875 57.988281 206.078125 58.015625 205.460938 58.007812 C 204.925781 58.007812 204.492188 58.375 204.492188 58.828125 Z M 195.667969 60.894531 C 195.640625 61.34375 196.074219 61.742188 196.628906 61.761719 L 198.539062 61.835938 L 199.496094 61.875 L 200.449219 61.894531 C 201 61.90625 201.453125 61.546875 201.460938 61.097656 L 201.503906 58.804688 C 201.503906 58.351562 201.078125 57.976562 200.542969 57.96875 L 199.605469 57.949219 L 198.667969 57.910156 L 196.792969 57.839844 C 196.253906 57.820312 195.792969 58.152344 195.769531 58.601562 Z M 186.753906 60.199219 C 186.707031 60.648438 187.125 61.054688 187.679688 61.109375 L 189.609375 61.292969 L 191.535156 61.449219 C 192.09375 61.488281 192.566406 61.160156 192.597656 60.710938 L 192.753906 58.421875 C 192.785156 57.96875 192.375 57.570312 191.820312 57.53125 L 189.9375 57.375 L 188.046875 57.195312 C 187.5 57.140625 187.019531 57.464844 186.972656 57.914062 Z M 177.773438 59.074219 C 177.707031 59.519531 178.109375 59.945312 178.675781 60.027344 C 179.96875 60.222656 181.257812 60.371094 182.550781 60.542969 C 183.113281 60.621094 183.609375 60.304688 183.664062 59.855469 L 183.933594 57.578125 C 183.984375 57.128906 183.582031 56.71875 183.03125 56.640625 C 181.765625 56.472656 180.5 56.328125 179.226562 56.132812 C 178.671875 56.050781 178.171875 56.351562 178.105469 56.796875 Z M 168.738281 57.574219 C 168.65625 58.015625 169.050781 58.460938 169.617188 58.570312 C 170.914062 58.796875 172.214844 59.023438 173.519531 59.238281 C 174.082031 59.328125 174.597656 59.039062 174.667969 58.59375 L 175.03125 56.328125 C 175.101562 55.882812 174.710938 55.449219 174.15625 55.363281 C 172.878906 55.152344 171.597656 54.925781 170.320312 54.699219 C 169.765625 54.597656 169.242188 54.871094 169.160156 55.316406 Z M 159.660156 55.75 C 159.5625 56.191406 159.945312 56.648438 160.515625 56.765625 C 161.820312 57.039062 163.125 57.324219 164.429688 57.574219 C 164.996094 57.6875 165.523438 57.417969 165.613281 56.976562 L 166.054688 54.726562 C 166.140625 54.285156 165.757812 53.832031 165.199219 53.722656 C 163.914062 53.476562 162.625 53.195312 161.335938 52.921875 C 160.773438 52.808594 160.242188 53.066406 160.144531 53.507812 Z M 150.535156 53.636719 C 150.425781 54.074219 150.804688 54.542969 151.371094 54.679688 C 152.6875 55.003906 153.996094 55.304688 155.304688 55.617188 C 155.875 55.75 156.417969 55.5 156.515625 55.058594 L 157.023438 52.820312 C 157.125 52.382812 156.75 51.917969 156.1875 51.789062 C 154.890625 51.488281 153.59375 51.1875 152.292969 50.871094 C 151.730469 50.734375 151.1875 50.976562 151.078125 51.414062 Z M 141.367188 51.292969 C 141.25 51.730469 141.621094 52.207031 142.191406 52.359375 L 146.144531 53.382812 C 146.714844 53.527344 147.265625 53.289062 147.378906 52.851562 L 147.9375 50.625 C 148.046875 50.1875 147.679688 49.71875 147.113281 49.578125 L 143.191406 48.558594 C 142.625 48.402344 142.070312 48.636719 141.957031 49.074219 Z M 132.148438 48.765625 C 132.023438 49.199219 132.394531 49.6875 132.96875 49.847656 C 134.292969 50.214844 135.625 50.589844 136.9375 50.941406 C 137.511719 51.09375 138.074219 50.871094 138.1875 50.4375 L 138.789062 48.21875 C 138.90625 47.785156 138.539062 47.304688 137.96875 47.148438 C 136.65625 46.796875 135.339844 46.421875 134.023438 46.054688 C 133.453125 45.898438 132.886719 46.117188 132.765625 46.550781 Z M 122.871094 46.097656 C 122.742188 46.53125 123.113281 47.019531 123.6875 47.191406 L 127.683594 48.351562 C 128.261719 48.515625 128.832031 48.300781 128.953125 47.867188 L 129.578125 45.660156 C 129.703125 45.222656 129.339844 44.738281 128.761719 44.566406 L 124.78125 43.414062 C 124.207031 43.246094 123.632812 43.457031 123.507812 43.890625 Z M 119.65625 45.160156 L 120.304688 42.960938 C 120.429688 42.527344 120.066406 42.039062 119.484375 41.867188 L 115.460938 40.660156 C 114.875 40.488281 114.296875 40.695312 114.171875 41.128906 L 113.515625 43.328125 C 113.386719 43.761719 113.757812 44.253906 114.339844 44.421875 L 118.363281 45.613281 C 118.953125 45.796875 119.527344 45.582031 119.65625 45.152344 Z M 113.957031 76.816406 C 119.734375 78.507812 125.5625 80.167969 131.457031 81.753906 C 137.347656 83.339844 143.300781 84.84375 149.332031 86.21875 L 155.492188 59.089844 C 149.898438 57.8125 144.292969 56.398438 138.675781 54.890625 C 133.054688 53.382812 127.417969 51.765625 121.753906 50.113281 Z M 109.492188 79.679688 C 109.621094 79.246094 109.242188 78.753906 108.648438 78.585938 L 104.574219 77.367188 C 103.988281 77.191406 103.40625 77.398438 103.277344 77.835938 L 102.625 80.023438 C 102.496094 80.453125 102.871094 80.949219 103.457031 81.117188 L 107.535156 82.324219 C 108.128906 82.5 108.714844 82.292969 108.84375 81.855469 Z M 119.066406 82.464844 C 119.1875 82.03125 118.804688 81.539062 118.207031 81.371094 L 114.085938 80.175781 C 113.492188 80.003906 112.90625 80.214844 112.78125 80.644531 L 112.136719 82.835938 C 112.011719 83.265625 112.394531 83.757812 112.988281 83.929688 L 117.125 85.125 C 117.722656 85.296875 118.308594 85.085938 118.433594 84.65625 Z M 128.757812 85.171875 C 128.878906 84.734375 128.484375 84.25 127.875 84.078125 C 126.46875 83.699219 125.097656 83.308594 123.707031 82.921875 C 123.105469 82.757812 122.515625 82.96875 122.394531 83.402344 L 121.769531 85.613281 C 121.648438 86.046875 122.039062 86.539062 122.644531 86.707031 C 124.042969 87.09375 125.433594 87.488281 126.835938 87.867188 C 127.449219 88.035156 128.039062 87.816406 128.15625 87.382812 Z M 138.585938 87.75 C 138.695312 87.3125 138.285156 86.832031 137.667969 86.679688 L 133.445312 85.585938 C 132.835938 85.429688 132.25 85.648438 132.132812 86.082031 L 131.542969 88.285156 C 131.425781 88.722656 131.828125 89.207031 132.441406 89.371094 L 136.699219 90.476562 C 137.324219 90.632812 137.910156 90.402344 138.019531 89.96875 Z M 148.558594 90.136719 C 148.660156 89.699219 148.234375 89.222656 147.613281 89.078125 C 146.179688 88.746094 144.75 88.417969 143.328125 88.066406 C 142.703125 87.910156 142.117188 88.152344 142.011719 88.589844 L 141.46875 90.820312 C 141.359375 91.257812 141.78125 91.738281 142.40625 91.886719 C 143.839844 92.238281 145.285156 92.574219 146.730469 92.90625 C 147.355469 93.054688 147.949219 92.816406 148.050781 92.375 Z M 158.691406 92.285156 C 158.777344 91.839844 158.335938 91.378906 157.699219 91.253906 C 156.242188 90.96875 154.796875 90.65625 153.347656 90.351562 C 152.722656 90.222656 152.132812 90.46875 152.035156 90.910156 L 151.550781 93.152344 C 151.453125 93.59375 151.890625 94.0625 152.527344 94.195312 C 153.992188 94.507812 155.453125 94.820312 156.929688 95.105469 C 157.574219 95.234375 158.164062 94.976562 158.25 94.535156 Z M 168.984375 94.121094 C 169.054688 93.675781 168.589844 93.230469 167.945312 93.128906 C 166.46875 92.882812 164.996094 92.625 163.523438 92.367188 C 162.886719 92.25 162.304688 92.511719 162.222656 92.953125 L 161.804688 95.210938 C 161.722656 95.65625 162.183594 96.113281 162.824219 96.234375 C 164.316406 96.496094 165.808594 96.757812 167.308594 97.003906 C 167.964844 97.109375 168.550781 96.832031 168.621094 96.378906 Z M 179.445312 95.585938 C 179.5 95.136719 179.011719 94.71875 178.359375 94.632812 C 176.863281 94.433594 175.355469 94.257812 173.867188 94.03125 C 173.21875 93.9375 172.640625 94.226562 172.574219 94.671875 L 172.242188 96.941406 C 172.175781 97.390625 172.660156 97.828125 173.316406 97.921875 C 174.828125 98.148438 176.355469 98.328125 177.878906 98.53125 C 178.539062 98.617188 179.128906 98.3125 179.175781 97.867188 Z M 190.0625 96.59375 C 190.09375 96.144531 189.582031 95.738281 188.921875 95.6875 L 186.636719 95.507812 L 184.359375 95.292969 C 183.703125 95.230469 183.132812 95.542969 183.085938 95.988281 L 182.851562 98.273438 C 182.804688 98.722656 183.3125 99.136719 183.980469 99.203125 L 186.296875 99.421875 L 188.621094 99.605469 C 189.296875 99.65625 189.871094 99.335938 189.898438 98.882812 Z M 200.835938 97.070312 C 200.835938 96.621094 200.304688 96.246094 199.636719 96.230469 L 198.476562 96.207031 L 197.324219 96.160156 L 195.019531 96.070312 C 194.351562 96.042969 193.792969 96.367188 193.769531 96.824219 L 193.648438 99.113281 C 193.625 99.5625 194.152344 99.96875 194.832031 99.996094 L 197.183594 100.085938 L 198.359375 100.132812 L 199.542969 100.160156 C 200.226562 100.171875 200.789062 99.816406 200.789062 99.367188 Z M 211.710938 96.949219 C 211.691406 96.5 211.128906 96.167969 210.460938 96.1875 L 208.128906 96.242188 C 207.347656 96.257812 206.570312 96.285156 205.800781 96.28125 C 205.128906 96.28125 204.585938 96.648438 204.585938 97.101562 L 204.585938 99.394531 C 204.585938 99.847656 205.144531 100.210938 205.835938 100.210938 C 206.625 100.210938 207.417969 100.1875 208.210938 100.171875 L 210.59375 100.113281 C 211.285156 100.085938 211.832031 99.695312 211.8125 99.242188 Z M 222.648438 96.167969 C 222.601562 95.722656 222.011719 95.40625 221.335938 95.472656 L 218.992188 95.6875 C 218.601562 95.726562 218.214844 95.753906 217.824219 95.777344 L 216.652344 95.859375 C 215.980469 95.90625 215.449219 96.308594 215.476562 96.757812 L 215.621094 99.050781 C 215.648438 99.5 216.234375 99.832031 216.925781 99.78125 L 218.121094 99.695312 C 218.523438 99.671875 218.921875 99.640625 219.320312 99.601562 L 221.714844 99.382812 C 222.410156 99.316406 222.933594 98.902344 222.886719 98.445312 Z M 233.492188 94.664062 C 233.417969 94.222656 232.816406 93.945312 232.148438 94.054688 L 229.84375 94.417969 L 228.6875 94.597656 C 228.304688 94.65625 227.910156 94.695312 227.527344 94.753906 C 226.851562 94.835938 226.351562 95.265625 226.40625 95.714844 L 226.6875 97.988281 C 226.742188 98.433594 227.351562 98.726562 228.042969 98.640625 C 228.4375 98.589844 228.835938 98.546875 229.230469 98.484375 L 230.410156 98.300781 L 232.765625 97.929688 C 233.449219 97.820312 233.941406 97.371094 233.859375 96.929688 Z M 244.109375 92.550781 C 244.011719 92.113281 243.398438 91.875 242.75 92.019531 L 240.496094 92.519531 C 239.742188 92.675781 238.976562 92.816406 238.21875 92.964844 C 237.5625 93.089844 237.09375 93.554688 237.175781 93.996094 L 237.605469 96.253906 C 237.6875 96.695312 238.304688 96.949219 238.976562 96.820312 C 239.757812 96.664062 240.535156 96.527344 241.300781 96.363281 L 243.59375 95.855469 C 244.261719 95.707031 244.71875 95.230469 244.621094 94.789062 Z M 254.480469 89.921875 C 254.363281 89.488281 253.75 89.277344 253.113281 89.453125 C 251.660156 89.875 250.167969 90.234375 248.691406 90.613281 C 248.046875 90.769531 247.613281 91.261719 247.71875 91.707031 L 248.265625 93.9375 C 248.375 94.375 248.992188 94.59375 249.648438 94.429688 C 251.15625 94.046875 252.671875 93.679688 254.148438 93.25 C 254.796875 93.070312 255.222656 92.570312 255.097656 92.136719 Z M 264.597656 86.867188 C 264.460938 86.4375 263.847656 86.253906 263.230469 86.457031 C 262.875 86.578125 262.515625 86.691406 262.152344 86.800781 L 261.074219 87.128906 L 258.910156 87.789062 C 258.285156 87.980469 257.878906 88.484375 258.007812 88.917969 L 258.65625 91.121094 C 258.785156 91.554688 259.402344 91.746094 260.039062 91.550781 L 262.234375 90.882812 L 263.328125 90.546875 C 263.695312 90.433594 264.058594 90.320312 264.421875 90.199219 C 265.046875 89.996094 265.441406 89.480469 265.304688 89.050781 Z M 274.464844 83.484375 C 274.308594 83.058594 273.707031 82.898438 273.09375 83.109375 L 268.878906 84.585938 C 268.269531 84.800781 267.882812 85.308594 268.027344 85.738281 L 268.761719 87.914062 C 268.90625 88.339844 269.535156 88.519531 270.148438 88.300781 L 274.410156 86.808594 C 275.035156 86.597656 275.394531 86.066406 275.242188 85.644531 Z M 284.097656 79.851562 C 283.941406 79.429688 283.316406 79.277344 282.726562 79.507812 C 281.355469 80.03125 279.992188 80.566406 278.617188 81.082031 C 278.015625 81.304688 277.652344 81.828125 277.808594 82.253906 L 278.609375 84.402344 C 278.765625 84.824219 279.390625 84.984375 279.996094 84.761719 C 281.386719 84.238281 282.761719 83.699219 284.144531 83.167969 C 284.746094 82.9375 285.097656 82.410156 284.9375 81.988281 Z M 293.523438 76.050781 C 293.347656 75.636719 292.742188 75.492188 292.160156 75.730469 C 290.820312 76.277344 289.488281 76.832031 288.128906 77.371094 C 287.542969 77.605469 287.199219 78.132812 287.367188 78.554688 L 288.21875 80.683594 C 288.386719 81.105469 289 81.25 289.59375 81.015625 C 290.964844 80.472656 292.300781 79.921875 293.652344 79.363281 C 294.238281 79.125 294.570312 78.582031 294.398438 78.171875 Z M 302.773438 72.164062 C 302.59375 71.75 301.992188 71.609375 301.417969 71.851562 C 300.109375 72.410156 298.785156 72.96875 297.457031 73.523438 C 296.882812 73.765625 296.554688 74.304688 296.730469 74.714844 L 297.613281 76.832031 C 297.789062 77.25 298.394531 77.386719 298.980469 77.144531 L 300.976562 76.308594 L 302.953125 75.464844 C 303.527344 75.222656 303.847656 74.683594 303.671875 74.273438 Z M 311.875 68.257812 C 311.695312 67.84375 311.09375 67.703125 310.535156 67.945312 L 306.632812 69.625 C 306.066406 69.867188 305.75 70.40625 305.929688 70.816406 L 306.832031 72.925781 C 307.011719 73.339844 307.613281 73.476562 308.183594 73.238281 L 312.085938 71.558594 C 312.648438 71.3125 312.957031 70.777344 312.777344 70.367188 Z M 320.863281 64.386719 C 320.683594 63.972656 320.09375 63.824219 319.535156 64.074219 L 315.679688 65.734375 C 315.125 65.972656 314.8125 66.503906 314.988281 66.917969 L 315.898438 69.027344 C 316.078125 69.441406 316.679688 69.578125 317.234375 69.339844 L 321.085938 67.667969 C 321.644531 67.425781 321.945312 66.898438 321.769531 66.488281 Z M 329.761719 60.613281 C 329.589844 60.199219 329 60.050781 328.445312 60.285156 L 324.628906 61.890625 C 324.074219 62.128906 323.765625 62.65625 323.945312 63.070312 L 324.84375 65.183594 C 325.019531 65.597656 325.609375 65.746094 326.164062 65.507812 L 329.964844 63.90625 C 330.515625 63.675781 330.820312 63.148438 330.644531 62.734375 Z M 338.585938 57.023438 C 338.417969 56.601562 337.839844 56.441406 337.289062 56.660156 C 336.027344 57.167969 334.765625 57.667969 333.496094 58.195312 C 332.949219 58.421875 332.640625 58.941406 332.8125 59.359375 L 333.683594 61.484375 C 333.855469 61.902344 334.4375 62.054688 334.984375 61.832031 C 336.246094 61.304688 337.496094 60.8125 338.75 60.308594 C 339.292969 60.089844 339.597656 59.574219 339.433594 59.152344 Z M 347.359375 53.644531 C 347.203125 53.222656 346.632812 53.046875 346.085938 53.25 C 345.460938 53.484375 344.835938 53.707031 344.199219 53.953125 L 342.3125 54.683594 C 341.765625 54.894531 341.453125 55.410156 341.613281 55.828125 L 342.445312 57.96875 C 342.601562 58.390625 343.183594 58.558594 343.726562 58.351562 L 345.597656 57.625 C 346.222656 57.382812 346.847656 57.15625 347.464844 56.925781 C 348.003906 56.726562 348.3125 56.222656 348.15625 55.800781 Z M 356.101562 50.554688 C 355.960938 50.128906 355.402344 49.929688 354.851562 50.109375 C 354.226562 50.308594 353.605469 50.542969 352.980469 50.761719 L 351.097656 51.421875 C 350.550781 51.613281 350.234375 52.113281 350.386719 52.539062 L 351.167969 54.699219 C 351.324219 55.125 351.878906 55.316406 352.414062 55.125 L 354.273438 54.46875 C 354.898438 54.253906 355.511719 54.027344 356.128906 53.828125 C 356.664062 53.652344 356.984375 53.160156 356.839844 52.734375 Z M 364.8125 47.808594 C 364.6875 47.378906 364.148438 47.140625 363.601562 47.3125 L 359.847656 48.472656 C 359.585938 48.546875 359.378906 48.691406 359.222656 48.910156 C 359.078125 49.109375 359.042969 49.324219 359.109375 49.558594 L 359.8125 51.742188 C 359.894531 51.972656 360.046875 52.125 360.28125 52.199219 C 360.53125 52.292969 360.78125 52.300781 361.039062 52.21875 L 364.726562 51.078125 C 365.261719 50.910156 365.589844 50.453125 365.464844 50.011719 Z M 373.507812 45.464844 C 373.398438 45.027344 372.875 44.785156 372.332031 44.925781 L 368.582031 45.890625 C 368.039062 46.046875 367.695312 46.515625 367.816406 46.953125 L 368.425781 49.167969 C 368.546875 49.601562 369.078125 49.832031 369.609375 49.679688 L 373.28125 48.742188 C 373.8125 48.605469 374.15625 48.140625 374.050781 47.703125 Z M 382.175781 43.609375 C 382.089844 43.164062 381.585938 42.890625 381.042969 43 L 379.171875 43.363281 C 378.859375 43.425781 378.546875 43.480469 378.234375 43.546875 L 377.296875 43.761719 C 376.753906 43.886719 376.394531 44.339844 376.496094 44.78125 L 376.996094 47.023438 C 377.09375 47.460938 377.605469 47.722656 378.132812 47.601562 L 379.046875 47.390625 C 379.351562 47.328125 379.65625 47.273438 379.960938 47.210938 L 381.785156 46.855469 C 382.3125 46.75 382.675781 46.308594 382.589844 45.867188 Z M 390.835938 42.257812 C 390.777344 41.8125 390.292969 41.503906 389.742188 41.574219 L 387.867188 41.816406 L 385.996094 42.128906 C 385.453125 42.21875 385.074219 42.648438 385.148438 43.09375 L 385.523438 45.359375 C 385.597656 45.804688 386.085938 46.09375 386.617188 46.007812 L 388.4375 45.710938 L 390.261719 45.476562 C 390.792969 45.410156 391.171875 44.988281 391.117188 44.539062 Z M 399.609375 41.410156 C 399.578125 40.960938 399.105469 40.628906 398.550781 40.660156 L 397.59375 40.726562 C 397.273438 40.742188 396.960938 40.785156 396.644531 40.8125 L 394.75 40.996094 C 394.203125 41.050781 393.792969 41.457031 393.84375 41.90625 L 394.082031 44.1875 C 394.132812 44.636719 394.601562 44.957031 395.136719 44.90625 L 396.964844 44.722656 C 397.277344 44.695312 397.578125 44.652344 397.890625 44.636719 L 398.828125 44.574219 C 399.371094 44.539062 399.78125 44.144531 399.75 43.695312 Z M 408.53125 41.023438 C 408.53125 40.570312 408.0625 40.210938 407.496094 40.21875 L 407.011719 40.21875 L 406.53125 40.238281 L 403.636719 40.355469 C 403.078125 40.375 402.644531 40.757812 402.667969 41.207031 L 402.78125 43.5 C 402.804688 43.949219 403.269531 44.300781 403.8125 44.28125 L 405.699219 44.207031 L 406.636719 44.167969 L 407.105469 44.152344 L 407.574219 44.152344 C 408.121094 44.152344 408.5625 43.773438 408.554688 43.320312 Z M 417.585938 41.050781 C 417.597656 40.601562 417.140625 40.214844 416.570312 40.207031 L 412.667969 40.167969 C 412.398438 40.160156 412.15625 40.234375 411.941406 40.398438 C 411.75 40.542969 411.648438 40.734375 411.644531 40.976562 L 411.644531 43.273438 C 411.652344 43.511719 411.75 43.703125 411.941406 43.847656 C 412.148438 44.011719 412.386719 44.09375 412.65625 44.09375 L 416.492188 44.132812 C 417.050781 44.132812 417.519531 43.796875 417.53125 43.34375 Z M 426.757812 41.441406 C 426.78125 40.988281 426.339844 40.601562 425.765625 40.570312 L 421.800781 40.367188 C 421.230469 40.347656 420.753906 40.699219 420.738281 41.148438 L 420.648438 43.441406 C 420.632812 43.894531 421.074219 44.269531 421.636719 44.292969 L 425.539062 44.492188 C 426.105469 44.523438 426.585938 44.179688 426.613281 43.730469 Z M 436.039062 42.152344 C 436.078125 41.703125 435.640625 41.300781 435.058594 41.25 L 433.054688 41.082031 C 432.386719 41.023438 431.714844 40.960938 431.054688 40.925781 C 430.472656 40.882812 429.980469 41.21875 429.949219 41.667969 L 429.785156 43.957031 C 429.753906 44.40625 430.1875 44.804688 430.757812 44.84375 C 431.414062 44.882812 432.078125 44.945312 432.738281 45 L 434.71875 45.167969 C 435.292969 45.214844 435.792969 44.890625 435.832031 44.441406 Z M 445.425781 43.113281 C 445.476562 42.664062 445.039062 42.25 444.453125 42.183594 C 443.101562 42.027344 441.746094 41.871094 440.402344 41.753906 C 439.820312 41.695312 439.3125 42.015625 439.265625 42.460938 L 439.042969 44.746094 C 439 45.195312 439.429688 45.605469 440.011719 45.664062 C 441.335938 45.785156 442.683594 45.941406 444.023438 46.085938 C 444.605469 46.152344 445.117188 45.839844 445.167969 45.394531 Z M 454.890625 44.253906 C 454.949219 43.804688 454.511719 43.382812 453.917969 43.304688 L 451.867188 43.046875 L 449.828125 42.800781 C 449.242188 42.730469 448.714844 43.035156 448.664062 43.484375 L 448.394531 45.765625 C 448.339844 46.210938 448.777344 46.632812 449.359375 46.703125 L 451.390625 46.945312 L 453.429688 47.203125 C 454.019531 47.28125 454.546875 46.976562 454.605469 46.53125 Z M 464.480469 45.527344 C 464.542969 45.078125 464.105469 44.652344 463.5 44.566406 L 459.371094 44.011719 C 458.777344 43.933594 458.242188 44.230469 458.183594 44.679688 L 457.882812 46.953125 C 457.828125 47.402344 458.261719 47.828125 458.855469 47.90625 L 462.972656 48.460938 C 463.574219 48.542969 464.109375 48.246094 464.171875 47.800781 Z M 474.179688 46.867188 C 474.242188 46.417969 473.796875 45.988281 473.191406 45.90625 L 469.015625 45.324219 C 468.410156 45.242188 467.871094 45.535156 467.808594 45.980469 L 467.496094 48.257812 C 467.433594 48.703125 467.875 49.132812 468.480469 49.214844 L 472.652344 49.796875 C 473.261719 49.878906 473.804688 49.585938 473.863281 49.140625 Z M 483.992188 48.210938 C 484.054688 47.765625 483.605469 47.335938 482.992188 47.253906 L 478.765625 46.675781 C 478.15625 46.59375 477.613281 46.886719 477.550781 47.332031 L 477.238281 49.605469 C 477.179688 50.054688 477.621094 50.484375 478.234375 50.566406 L 482.46875 51.144531 C 483.082031 51.230469 483.628906 50.933594 483.691406 50.488281 Z M 493.941406 49.496094 C 493.996094 49.046875 493.539062 48.621094 492.914062 48.542969 L 488.636719 48 C 488.019531 47.921875 487.472656 48.214844 487.414062 48.664062 L 487.117188 50.9375 C 487.058594 51.386719 487.511719 51.816406 488.128906 51.898438 L 492.429688 52.441406 C 493.054688 52.519531 493.605469 52.222656 493.660156 51.773438 Z M 504.023438 50.644531 C 504.070312 50.199219 503.597656 49.78125 502.96875 49.707031 C 501.519531 49.550781 500.066406 49.394531 498.632812 49.226562 C 498.007812 49.152344 497.457031 49.457031 497.40625 49.90625 L 497.136719 52.1875 C 497.085938 52.632812 497.550781 53.054688 498.183594 53.125 C 499.625 53.300781 501.089844 53.453125 502.554688 53.609375 C 503.191406 53.675781 503.742188 53.367188 503.789062 52.921875 Z M 514.246094 51.59375 C 514.285156 51.144531 513.792969 50.738281 513.15625 50.6875 L 510.949219 50.503906 L 508.765625 50.296875 C 508.128906 50.238281 507.582031 50.550781 507.535156 51 L 507.316406 53.285156 C 507.273438 53.734375 507.753906 54.148438 508.394531 54.207031 L 510.605469 54.417969 L 512.832031 54.601562 C 513.480469 54.65625 514.03125 54.332031 514.066406 53.882812 Z M 524.613281 52.265625 C 524.636719 51.816406 524.128906 51.425781 523.480469 51.398438 L 522.363281 51.34375 L 521.25 51.273438 L 519.027344 51.128906 C 518.386719 51.085938 517.835938 51.414062 517.804688 51.867188 L 517.648438 54.15625 C 517.617188 54.605469 518.117188 55.003906 518.769531 55.046875 L 521.019531 55.195312 L 522.144531 55.265625 L 523.28125 55.320312 C 523.9375 55.351562 524.484375 55.007812 524.507812 54.558594 Z M 535.125 52.578125 C 535.125 52.128906 534.597656 51.761719 533.945312 51.757812 C 532.4375 51.730469 530.9375 51.679688 529.433594 51.640625 C 528.78125 51.625 528.238281 51.976562 528.222656 52.421875 L 528.140625 54.71875 C 528.121094 55.167969 528.644531 55.546875 529.308594 55.566406 C 530.835938 55.605469 532.355469 55.652344 533.882812 55.683594 C 534.550781 55.683594 535.097656 55.324219 535.101562 54.871094 Z M 549.574219 54.582031 C 549.597656 55.035156 550.164062 55.375 550.84375 55.339844 C 552.40625 55.242188 553.964844 55.117188 555.527344 55.003906 C 556.207031 54.953125 556.726562 54.550781 556.6875 54.097656 L 556.488281 51.8125 C 556.449219 51.363281 555.875 51.03125 555.210938 51.089844 C 553.675781 51.199219 552.140625 51.320312 550.609375 51.421875 C 549.945312 51.449219 549.425781 51.839844 549.449219 52.289062 Z M 538.789062 54.894531 C 538.789062 55.347656 539.332031 55.722656 540.003906 55.703125 L 544.648438 55.613281 C 545.320312 55.613281 545.855469 55.207031 545.839844 54.757812 L 545.757812 52.464844 C 545.742188 52.007812 545.191406 51.683594 544.53125 51.683594 L 539.96875 51.769531 C 539.308594 51.789062 538.777344 52.140625 538.777344 52.597656 Z M 534.320312 20.761719 C 528.699219 20.664062 523.039062 20.367188 517.335938 19.921875 L 515.199219 19.75 C 514.484375 19.691406 513.769531 19.636719 513.054688 19.566406 L 508.753906 19.15625 L 504.4375 18.6875 C 503.71875 18.613281 502.996094 18.53125 502.273438 18.441406 L 500.105469 18.1875 L 496.828125 45.804688 L 499.101562 46.070312 C 499.855469 46.160156 500.613281 46.25 501.375 46.332031 L 505.949219 46.824219 L 510.550781 47.261719 C 511.3125 47.339844 512.085938 47.398438 512.859375 47.460938 L 515.171875 47.648438 C 521.355469 48.132812 527.601562 48.460938 533.910156 48.570312 Z M 534.320312 20.761719 " fill-opacity="1" fill-rule="nonzero"/></g></svg>