<svg xmlns="http://www.w3.org/2000/svg" xmlns:xlink="http://www.w3.org/1999/xlink" width="877" zoomAndPan="magnify" viewBox="0 0 657.75 102.749999" height="137" preserveAspectRatio="xMidYMid meet" version="1.0"><defs><clipPath id="77c0306b2f"><path d="M 435 6.5 L 466 6.5 L 466 41 L 435 41 Z M 435 6.5 " clip-rule="nonzero"/></clipPath><clipPath id="38f518b7dc"><path d="M 140.328125 13 L 517.414062 13 L 517.414062 48 L 140.328125 48 Z M 140.328125 13 " clip-rule="nonzero"/></clipPath><clipPath id="2523a68fc7"><path d="M 140.328125 24 L 517.414062 24 L 517.414062 59 L 140.328125 59 Z M 140.328125 24 " clip-rule="nonzero"/></clipPath><clipPath id="b01a55ca8f"><path d="M 140.328125 35 L 517.414062 35 L 517.414062 70 L 140.328125 70 Z M 140.328125 35 " clip-rule="nonzero"/></clipPath><clipPath id="5055e0d91f"><path d="M 140.328125 46 L 517.414062 46 L 517.414062 82 L 140.328125 82 Z M 140.328125 46 " clip-rule="nonzero"/></clipPath><clipPath id="30dd769ed5"><path d="M 140.328125 57 L 517.414062 57 L 517.414062 93 L 140.328125 93 Z M 140.328125 57 " clip-rule="nonzero"/></clipPath></defs><path fill="#ffffff" d="M 196.976562 64.535156 C 194.644531 54.351562 184.179688 55.28125 184.179688 55.28125 L 182.222656 47.09375 C 183.308594 45.835938 184.230469 44.648438 185.011719 43.535156 C 188.289062 38.902344 189.863281 33.3125 189.34375 27.738281 C 189.085938 24.953125 188.367188 23.074219 186.675781 21.21875 C 185.019531 19.398438 182.125 19.421875 180.730469 21.476562 C 178.640625 24.542969 175.808594 31.738281 178.882812 41.785156 C 178.882812 41.785156 174.960938 45.089844 171.613281 49.851562 C 168.734375 53.941406 167.570312 58.960938 168.457031 63.808594 C 169 66.769531 170.347656 69.972656 173.28125 72.660156 C 173.28125 72.660156 179.058594 78.902344 187.570312 76.585938 C 188.03125 78.410156 189.835938 85.558594 189.863281 85.710938 C 190.3125 87.996094 190.015625 89.882812 189.214844 91.320312 C 189.265625 91.019531 189.273438 90.699219 189.246094 90.382812 C 189.054688 88.324219 187.191406 86.816406 185.078125 87.019531 C 182.964844 87.226562 181.40625 89.066406 181.59375 91.125 C 181.777344 93.15625 183.246094 94.699219 185.648438 94.496094 C 185.707031 94.488281 185.769531 94.488281 185.820312 94.480469 C 186.246094 94.433594 186.34375 94.417969 186.835938 94.3125 C 189.296875 93.761719 192.886719 90.207031 191.699219 85.519531 C 191.652344 85.355469 189.34375 76.121094 189.34375 76.121094 C 192.757812 74.667969 198.757812 72.3125 196.976562 64.535156 Z M 182.972656 24.851562 C 184.796875 22.875 186.539062 24.566406 186.769531 26.949219 C 186.851562 27.820312 186.859375 29.117188 186.796875 29.957031 C 186.261719 37.25 181.050781 40.597656 181.050781 40.597656 C 181.050781 40.597656 178.550781 29.648438 182.972656 24.851562 Z M 173.339844 67.957031 C 167.644531 58.144531 180.601562 48.085938 180.601562 48.085938 L 182.488281 55.742188 C 182.488281 55.742188 177.605469 57.628906 176.96875 62.664062 C 176.75 64.40625 177.179688 66.148438 178.058594 67.671875 C 178.824219 68.996094 180.109375 70.632812 182.15625 71.691406 C 182.15625 71.691406 175.414062 63.042969 183.570312 60.886719 L 187.207031 74.964844 C 187.207031 74.964844 178.234375 76.394531 173.339844 67.957031 Z M 188.886719 74.578125 L 185.320312 60.515625 C 185.320312 60.515625 190.652344 59.597656 192.304688 67.066406 C 192.296875 67.058594 193.320312 72.652344 188.886719 74.578125 Z M 188.886719 74.578125 " fill-opacity="1" fill-rule="nonzero"/><path fill="#ffffff" d="M 228.769531 85.914062 C 229.652344 90.859375 227.398438 93.648438 224.511719 94.714844 C 221.15625 95.941406 218.257812 95.183594 217.105469 92.964844 C 215.894531 90.625 217.371094 87.445312 220.40625 85.875 C 222.679688 84.703125 225.171875 84.757812 226.800781 85.839844 C 226.34375 83.121094 223.480469 65.792969 222.777344 61.574219 C 222.695312 61.058594 223.035156 60.582031 223.550781 60.492188 C 224.066406 60.402344 224.550781 60.75 224.632812 61.265625 C 225.40625 65.839844 228.738281 85.753906 228.769531 85.914062 Z M 228.769531 85.914062 " fill-opacity="1" fill-rule="nonzero"/><path fill="#ffffff" d="M 412.234375 42.261719 C 412.234375 42.261719 408.203125 36.304688 400.972656 38.984375 C 403.878906 45.867188 407.585938 54.621094 407.621094 54.722656 C 409.628906 59.324219 408.078125 62.558594 405.515625 64.269531 C 402.53125 66.238281 399.542969 66.179688 397.914062 64.285156 C 396.195312 62.285156 396.890625 58.855469 399.480469 56.621094 C 401.417969 54.957031 403.859375 54.425781 405.683594 55.101562 C 404.617188 52.554688 397.808594 36.363281 396.15625 32.425781 C 395.953125 31.949219 396.179688 31.394531 396.65625 31.191406 C 396.761719 31.144531 396.875 31.125 396.988281 31.117188 C 397.085938 31.109375 397.1875 31.125 397.285156 31.152344 C 397.300781 31.160156 397.324219 31.160156 397.335938 31.167969 C 400.851562 32.28125 409.402344 35.597656 412.234375 42.261719 Z M 412.234375 42.261719 " fill-opacity="1" fill-rule="nonzero"/><g clip-path="url(#77c0306b2f)"><path fill="#ffffff" d="M 464.835938 32.28125 C 464.253906 33.523438 463.238281 34.492188 461.914062 35.097656 C 461.414062 35.328125 460.914062 35.5 460.429688 35.613281 C 459.582031 35.820312 458.761719 35.863281 458.003906 35.734375 C 456.785156 35.53125 455.832031 34.910156 455.234375 33.933594 C 454.613281 32.925781 454.539062 31.675781 455.015625 30.410156 C 455.476562 29.191406 456.40625 28.109375 457.640625 27.359375 C 459.15625 26.429688 460.914062 26.148438 462.359375 26.5625 C 461.769531 24.125 460.398438 18.421875 459.300781 13.871094 L 458.1875 9.238281 L 441.199219 13.363281 C 444.078125 25.207031 445.675781 31.78125 445.707031 31.910156 C 446.207031 33.855469 446.117188 35.570312 445.441406 37 C 444.859375 38.242188 443.84375 39.210938 442.519531 39.816406 C 442.019531 40.042969 441.519531 40.21875 441.035156 40.332031 C 440.1875 40.535156 439.367188 40.582031 438.609375 40.453125 C 437.390625 40.25 436.4375 39.628906 435.839844 38.652344 C 435.21875 37.644531 435.140625 36.394531 435.621094 35.128906 C 436.082031 33.910156 437.011719 32.828125 438.246094 32.078125 C 439.761719 31.144531 441.519531 30.867188 442.964844 31.28125 C 442.199219 28.101562 440.09375 19.386719 439.011719 14.878906 L 438.519531 12.84375 C 438.4375 12.484375 438.511719 12.121094 438.710938 11.84375 C 438.867188 11.601562 439.117188 11.410156 439.429688 11.335938 L 458.824219 6.625 C 459.089844 6.554688 459.359375 6.59375 459.589844 6.691406 C 459.589844 6.691406 459.589844 6.691406 459.597656 6.691406 C 459.597656 6.691406 459.597656 6.691406 459.605469 6.691406 C 459.65625 6.714844 459.71875 6.746094 459.769531 6.777344 C 460.050781 6.949219 460.253906 7.222656 460.332031 7.539062 C 462.078125 14.75 465.054688 26.996094 465.109375 27.191406 C 465.59375 29.140625 465.511719 30.851562 464.835938 32.28125 Z M 464.835938 32.28125 " fill-opacity="1" fill-rule="nonzero"/></g><path fill="#ffffff" d="M 265.300781 52.707031 C 264.816406 52.5625 264.527344 52.0625 264.648438 51.570312 C 265.484375 48.246094 265.203125 45.710938 263.808594 44.011719 C 262.339844 42.226562 259.894531 41.65625 258.128906 41.492188 C 259.703125 47.640625 264.082031 64.769531 264.121094 64.921875 C 265.445312 69.859375 263.382812 72.882812 260.550781 74.214844 C 257.25 75.75 254.242188 75.230469 252.886719 73.070312 C 251.457031 70.796875 252.683594 67.453125 255.628906 65.597656 C 257.832031 64.210938 260.371094 64.050781 262.113281 65.003906 C 261.453125 62.414062 257.453125 46.625 256.136719 41.445312 C 256.070312 41.171875 256.007812 40.9375 255.957031 40.726562 C 255.828125 40.210938 256.136719 39.695312 256.644531 39.558594 C 256.726562 39.535156 256.804688 39.53125 256.886719 39.53125 C 258.816406 39.535156 262.898438 39.921875 265.269531 42.800781 C 267.066406 44.988281 267.472656 48.085938 266.488281 52.023438 C 266.359375 52.554688 265.816406 52.859375 265.300781 52.707031 Z M 265.300781 52.707031 " fill-opacity="1" fill-rule="nonzero"/><path fill="#ffffff" d="M 505.222656 62.808594 C 505.195312 62.664062 503.9375 56.113281 501.476562 43.339844 L 501.367188 42.808594 C 501.308594 42.484375 501.121094 42.195312 500.839844 42.007812 C 500.785156 41.96875 500.726562 41.9375 500.671875 41.90625 C 500.445312 41.792969 500.171875 41.75 499.898438 41.800781 L 480.15625 45.601562 C 479.847656 45.664062 479.582031 45.835938 479.40625 46.082031 C 479.195312 46.351562 479.097656 46.707031 479.171875 47.074219 C 479.761719 50.167969 482.011719 61.992188 482.746094 65.839844 C 481.308594 65.355469 479.527344 65.550781 477.960938 66.414062 C 476.6875 67.109375 475.695312 68.164062 475.171875 69.359375 C 474.628906 70.601562 474.644531 71.867188 475.21875 72.910156 C 475.773438 73.917969 476.710938 74.59375 477.921875 74.859375 C 478.671875 75.023438 479.496094 75.015625 480.367188 74.851562 C 480.867188 74.753906 481.375 74.609375 481.890625 74.402344 C 483.261719 73.859375 484.320312 72.925781 484.972656 71.707031 C 485.722656 70.304688 485.890625 68.585938 485.488281 66.601562 C 485.464844 66.480469 484.230469 60.066406 482.859375 52.949219 L 500.140625 49.625 C 501.003906 54.167969 502.050781 59.644531 502.503906 62.035156 C 501.066406 61.550781 499.285156 61.75 497.71875 62.613281 C 496.445312 63.308594 495.453125 64.363281 494.933594 65.558594 C 494.386719 66.800781 494.410156 68.066406 494.976562 69.109375 C 495.53125 70.117188 496.46875 70.792969 497.679688 71.054688 C 498.429688 71.222656 499.257812 71.214844 500.128906 71.046875 C 500.628906 70.949219 501.132812 70.804688 501.648438 70.601562 C 503.019531 70.058594 504.082031 69.125 504.730469 67.90625 C 505.457031 66.511719 505.632812 64.792969 505.222656 62.808594 Z M 482.398438 50.59375 L 481.847656 47.730469 L 499.136719 44.398438 L 499.679688 47.261719 Z M 482.398438 50.59375 " fill-opacity="1" fill-rule="nonzero"/><path fill="#ffffff" d="M 324.523438 72.191406 C 323.96875 73.503906 322.953125 74.554688 321.597656 75.238281 C 321.089844 75.492188 320.578125 75.691406 320.078125 75.835938 C 319.207031 76.085938 318.359375 76.160156 317.570312 76.0625 C 316.296875 75.902344 315.277344 75.289062 314.617188 74.304688 C 313.933594 73.28125 313.804688 71.988281 314.246094 70.664062 C 314.675781 69.382812 315.601562 68.214844 316.84375 67.382812 C 318.378906 66.351562 320.191406 65.996094 321.707031 66.359375 C 320.941406 63.648438 319.070312 57.039062 317.707031 52.214844 L 299.144531 53.273438 C 301.925781 63.035156 303.347656 68.035156 303.386719 68.164062 C 303.984375 70.164062 303.960938 71.941406 303.316406 73.457031 C 302.765625 74.765625 301.75 75.820312 300.394531 76.5 C 299.886719 76.757812 299.371094 76.957031 298.871094 77.097656 C 298 77.347656 297.152344 77.425781 296.367188 77.328125 C 295.09375 77.167969 294.070312 76.554688 293.410156 75.570312 C 292.730469 74.546875 292.59375 73.253906 293.039062 71.925781 C 293.472656 70.648438 294.398438 69.480469 295.636719 68.648438 C 297.175781 67.617188 298.984375 67.261719 300.507812 67.625 C 299.796875 65.117188 298.136719 59.257812 296.820312 54.570312 L 295.152344 48.671875 C 294.996094 48.09375 295.246094 47.496094 295.746094 47.207031 C 295.882812 47.125 296.039062 47.078125 296.199219 47.066406 C 296.328125 47.050781 296.5 47.035156 296.523438 47.027344 L 317.375 45.785156 L 317.507812 45.777344 C 317.738281 45.761719 317.964844 45.800781 318.160156 45.90625 C 318.222656 45.9375 318.28125 45.972656 318.34375 46.011719 C 318.585938 46.1875 318.75 46.445312 318.835938 46.730469 L 319.621094 49.496094 C 322.039062 57.976562 324.539062 66.761719 324.582031 66.90625 C 325.1875 68.90625 325.167969 70.683594 324.523438 72.191406 Z M 324.523438 72.191406 " fill-opacity="1" fill-rule="nonzero"/><path fill="#ffffff" d="M 369.429688 38.128906 C 369.386719 38 366.886719 30.023438 364.476562 22.339844 L 363.691406 19.832031 C 363.605469 19.574219 363.449219 19.339844 363.222656 19.1875 C 363.167969 19.148438 363.113281 19.121094 363.054688 19.097656 C 362.863281 19.007812 362.660156 18.984375 362.457031 19 L 362.328125 19.007812 L 360.988281 19.121094 L 344.070312 20.574219 L 343.3125 20.640625 C 343.289062 20.640625 343.136719 20.664062 343.015625 20.679688 C 342.871094 20.703125 342.726562 20.75 342.605469 20.824219 C 342.160156 21.105469 341.941406 21.648438 342.105469 22.171875 L 343.773438 27.519531 C 345.097656 31.765625 346.75 37.082031 347.460938 39.355469 C 346.066406 39.050781 344.417969 39.429688 343.039062 40.398438 C 341.917969 41.1875 341.105469 42.277344 340.742188 43.460938 C 340.363281 44.679688 340.515625 45.859375 341.167969 46.777344 C 341.796875 47.664062 342.742188 48.191406 343.910156 48.3125 C 344.628906 48.390625 345.402344 48.300781 346.195312 48.050781 C 346.652344 47.90625 347.113281 47.714844 347.574219 47.464844 C 348.792969 46.808594 349.695312 45.824219 350.171875 44.617188 C 350.71875 43.226562 350.703125 41.597656 350.105469 39.785156 C 350.074219 39.695312 349.171875 36.832031 347.421875 31.246094 L 364.347656 29.828125 C 365.332031 33 366.304688 36.097656 366.804688 37.695312 C 365.410156 37.394531 363.765625 37.773438 362.378906 38.742188 C 361.257812 39.53125 360.449219 40.621094 360.085938 41.800781 C 359.707031 43.019531 359.859375 44.203125 360.507812 45.117188 C 361.136719 46.003906 362.085938 46.535156 363.25 46.65625 C 363.96875 46.730469 364.742188 46.640625 365.539062 46.390625 C 365.992188 46.246094 366.453125 46.050781 366.917969 45.808594 C 368.136719 45.148438 369.035156 44.164062 369.515625 42.960938 C 370.042969 41.566406 370.019531 39.945312 369.429688 38.128906 Z M 363.515625 27.191406 L 346.566406 28.539062 L 345.863281 26.300781 L 362.796875 24.882812 C 363.023438 25.609375 363.265625 26.390625 363.515625 27.191406 Z M 363.515625 27.191406 " fill-opacity="1" fill-rule="nonzero"/><g clip-path="url(#38f518b7dc)"><path fill="#ffffff" d="M 140.308594 13.207031 C 141.882812 14.484375 143.527344 15.675781 145.191406 16.839844 C 146.859375 18 148.554688 19.113281 150.273438 20.1875 C 151.992188 21.269531 153.734375 22.308594 155.5 23.316406 C 156.378906 23.824219 157.261719 24.308594 158.15625 24.808594 L 159.496094 25.527344 C 159.722656 25.648438 159.945312 25.769531 160.171875 25.882812 L 160.84375 26.230469 C 162.640625 27.179688 164.457031 28.070312 166.28125 28.957031 C 168.117188 29.828125 169.957031 30.683594 171.820312 31.488281 C 175.535156 33.113281 179.308594 34.605469 183.125 35.976562 C 190.757812 38.71875 198.574219 40.945312 206.503906 42.65625 L 207.988281 42.976562 C 208.238281 43.027344 208.488281 43.082031 208.730469 43.125 L 209.480469 43.269531 L 210.972656 43.558594 L 211.722656 43.703125 L 212.472656 43.832031 L 213.96875 44.097656 L 214.71875 44.226562 C 214.96875 44.269531 215.21875 44.316406 215.46875 44.355469 L 218.476562 44.824219 C 222.488281 45.414062 226.519531 45.875 230.554688 46.214844 L 233.585938 46.445312 C 233.835938 46.464844 234.09375 46.472656 234.34375 46.488281 L 235.097656 46.527344 L 236.613281 46.609375 L 237.371094 46.648438 L 237.75 46.671875 L 238.128906 46.6875 L 239.652344 46.738281 C 240.664062 46.769531 241.671875 46.824219 242.6875 46.824219 L 245.722656 46.859375 L 248.761719 46.835938 L 249.519531 46.828125 L 249.898438 46.828125 L 250.277344 46.824219 L 251.796875 46.777344 L 253.320312 46.730469 L 254.078125 46.707031 L 254.835938 46.671875 L 257.871094 46.519531 C 258.378906 46.496094 258.886719 46.457031 259.386719 46.421875 L 260.902344 46.308594 L 262.414062 46.195312 C 262.664062 46.179688 262.921875 46.15625 263.171875 46.125 L 263.929688 46.058594 L 266.960938 45.769531 C 267.964844 45.65625 268.972656 45.535156 269.980469 45.421875 L 271.488281 45.246094 C 271.988281 45.179688 272.496094 45.109375 272.996094 45.042969 L 276.007812 44.617188 L 279.007812 44.132812 C 287.011719 42.832031 294.925781 41.019531 302.726562 38.839844 L 304.1875 38.429688 L 304.550781 38.332031 L 304.914062 38.21875 L 305.644531 38 L 308.550781 37.121094 C 309.519531 36.839844 310.480469 36.507812 311.445312 36.199219 L 314.335938 35.257812 C 315.296875 34.933594 316.253906 34.59375 317.207031 34.257812 L 320.078125 33.25 L 322.953125 32.238281 C 323.917969 31.894531 324.871094 31.554688 325.832031 31.238281 C 341.230469 26.019531 357.003906 21.898438 373.011719 19.074219 C 381.015625 17.644531 389.074219 16.566406 397.164062 15.773438 C 401.207031 15.394531 405.257812 15.0625 409.316406 14.847656 L 410.839844 14.757812 L 412.363281 14.691406 C 413.378906 14.644531 414.390625 14.597656 415.40625 14.5625 L 418.453125 14.46875 L 419.214844 14.449219 C 419.472656 14.441406 419.722656 14.441406 419.980469 14.433594 L 421.503906 14.410156 C 422.519531 14.394531 423.53125 14.371094 424.546875 14.378906 L 427.59375 14.371094 L 430.636719 14.402344 L 431.402344 14.410156 L 432.167969 14.425781 L 433.6875 14.460938 C 437.746094 14.570312 441.8125 14.742188 445.867188 15.023438 C 453.976562 15.574219 462.058594 16.445312 470.09375 17.679688 C 478.121094 18.921875 486.09375 20.511719 493.976562 22.488281 C 495.945312 22.988281 497.910156 23.503906 499.863281 24.058594 C 501.816406 24.609375 503.761719 25.179688 505.699219 25.785156 C 507.640625 26.390625 509.570312 27.027344 511.480469 27.699219 C 512.441406 28.035156 513.386719 28.382812 514.34375 28.746094 C 515.289062 29.101562 516.234375 29.472656 517.175781 29.867188 C 515.296875 29.09375 513.378906 28.414062 511.464844 27.753906 C 509.539062 27.09375 507.609375 26.480469 505.671875 25.890625 C 503.730469 25.300781 501.777344 24.746094 499.816406 24.210938 C 497.863281 23.671875 495.894531 23.179688 493.925781 22.6875 C 486.042969 20.769531 478.058594 19.226562 470.03125 18.042969 C 453.976562 15.675781 437.726562 14.683594 421.503906 14.984375 L 419.980469 15.015625 C 419.730469 15.023438 419.472656 15.023438 419.222656 15.03125 L 418.464844 15.054688 L 415.429688 15.152344 C 414.414062 15.191406 413.40625 15.242188 412.394531 15.289062 L 410.871094 15.363281 L 409.355469 15.453125 C 405.304688 15.683594 401.269531 16.023438 397.230469 16.410156 C 389.160156 17.21875 381.117188 18.308594 373.140625 19.757812 C 365.160156 21.195312 357.222656 22.898438 349.378906 24.953125 C 341.523438 26.988281 333.753906 29.320312 326.074219 31.925781 C 325.113281 32.246094 324.160156 32.585938 323.195312 32.917969 L 320.328125 33.933594 L 317.449219 34.941406 C 316.488281 35.273438 315.53125 35.613281 314.570312 35.941406 L 311.671875 36.886719 C 310.703125 37.195312 309.738281 37.523438 308.761719 37.808594 L 305.839844 38.6875 L 305.113281 38.910156 L 304.75 39.023438 L 304.378906 39.121094 L 302.910156 39.53125 L 299.96875 40.347656 C 298.984375 40.605469 298 40.847656 297.015625 41.097656 C 295.046875 41.621094 293.0625 42.050781 291.085938 42.511719 L 290.34375 42.6875 C 290.09375 42.75 289.84375 42.792969 289.59375 42.847656 L 288.101562 43.15625 L 286.609375 43.46875 L 285.863281 43.617188 L 285.492188 43.695312 L 285.113281 43.761719 L 282.113281 44.316406 C 281.613281 44.40625 281.113281 44.503906 280.613281 44.589844 L 279.105469 44.832031 L 276.09375 45.308594 L 273.070312 45.722656 C 272.5625 45.792969 272.0625 45.867188 271.554688 45.929688 L 270.042969 46.101562 C 269.035156 46.214844 268.019531 46.335938 267.011719 46.453125 L 263.976562 46.730469 L 263.21875 46.800781 C 262.96875 46.824219 262.710938 46.84375 262.460938 46.859375 L 260.9375 46.964844 L 259.417969 47.074219 C 258.910156 47.109375 258.402344 47.148438 257.894531 47.171875 L 254.851562 47.324219 L 254.085938 47.359375 L 253.320312 47.382812 L 251.796875 47.421875 L 250.277344 47.457031 L 249.898438 47.464844 L 249.519531 47.464844 L 248.753906 47.472656 L 245.703125 47.488281 L 242.648438 47.445312 C 241.632812 47.4375 240.621094 47.382812 239.597656 47.351562 L 238.074219 47.292969 L 237.695312 47.277344 L 237.316406 47.253906 L 236.554688 47.207031 L 235.03125 47.117188 L 234.265625 47.074219 C 234.015625 47.058594 233.757812 47.042969 233.507812 47.027344 L 230.472656 46.785156 C 226.421875 46.429688 222.382812 45.953125 218.363281 45.34375 L 215.347656 44.859375 C 215.097656 44.824219 214.847656 44.777344 214.597656 44.730469 L 213.847656 44.597656 L 212.347656 44.324219 L 211.601562 44.1875 L 210.851562 44.035156 L 209.359375 43.734375 L 208.609375 43.582031 C 208.359375 43.527344 208.109375 43.484375 207.859375 43.421875 L 206.367188 43.097656 C 198.429688 41.347656 190.601562 39.074219 182.964844 36.28125 C 179.148438 34.886719 175.378906 33.359375 171.667969 31.707031 C 169.8125 30.890625 167.972656 30.019531 166.136719 29.140625 C 164.3125 28.238281 162.503906 27.328125 160.707031 26.367188 L 160.035156 26.011719 C 159.808594 25.890625 159.585938 25.769531 159.367188 25.648438 L 158.035156 24.914062 C 157.148438 24.414062 156.261719 23.921875 155.390625 23.40625 C 153.636719 22.382812 151.902344 21.332031 150.191406 20.242188 C 148.476562 19.144531 146.789062 18.023438 145.128906 16.847656 C 143.503906 15.703125 141.867188 14.5 140.308594 13.207031 Z M 140.308594 13.207031 " fill-opacity="1" fill-rule="nonzero"/></g><g clip-path="url(#2523a68fc7)"><path fill="#ffffff" d="M 140.308594 24.390625 C 141.882812 25.671875 143.527344 26.859375 145.191406 28.027344 C 146.859375 29.183594 148.554688 30.296875 150.273438 31.375 C 151.992188 32.457031 153.734375 33.492188 155.5 34.5 C 156.378906 35.007812 157.261719 35.492188 158.15625 35.992188 L 159.496094 36.710938 C 159.722656 36.832031 159.945312 36.953125 160.171875 37.066406 L 160.84375 37.417969 C 162.640625 38.363281 164.457031 39.257812 166.28125 40.144531 C 168.117188 41.015625 169.957031 41.871094 171.820312 42.671875 C 175.535156 44.300781 179.308594 45.792969 183.125 47.164062 C 190.757812 49.90625 198.574219 52.132812 206.503906 53.84375 L 207.988281 54.160156 C 208.238281 54.214844 208.488281 54.265625 208.730469 54.3125 L 209.480469 54.457031 L 210.972656 54.742188 L 211.722656 54.886719 L 212.472656 55.015625 L 213.96875 55.28125 L 214.71875 55.410156 C 214.96875 55.457031 215.21875 55.5 215.46875 55.539062 L 218.476562 56.007812 C 222.488281 56.597656 226.519531 57.0625 230.554688 57.402344 L 233.585938 57.628906 C 233.835938 57.652344 234.09375 57.660156 234.34375 57.675781 L 235.097656 57.710938 L 236.613281 57.796875 L 237.371094 57.832031 L 237.75 57.855469 L 238.128906 57.871094 L 239.652344 57.925781 C 240.664062 57.953125 241.671875 58.007812 242.6875 58.007812 L 245.722656 58.046875 L 248.761719 58.023438 L 249.519531 58.015625 L 249.898438 58.015625 L 250.277344 58.007812 L 251.796875 57.960938 L 253.320312 57.917969 L 254.078125 57.894531 L 254.835938 57.855469 L 257.871094 57.703125 C 258.378906 57.683594 258.886719 57.644531 259.386719 57.605469 L 260.902344 57.492188 L 262.414062 57.378906 C 262.664062 57.363281 262.921875 57.339844 263.171875 57.3125 L 263.929688 57.242188 L 266.960938 56.957031 C 267.964844 56.839844 268.972656 56.71875 269.980469 56.605469 L 271.488281 56.433594 C 271.988281 56.363281 272.496094 56.296875 272.996094 56.226562 L 276.007812 55.804688 L 279.007812 55.320312 C 287.011719 54.015625 294.925781 52.207031 302.726562 50.027344 L 304.1875 49.617188 L 304.550781 49.519531 L 304.914062 49.40625 L 305.644531 49.183594 L 308.550781 48.308594 C 309.519531 48.027344 310.480469 47.691406 311.445312 47.382812 L 314.335938 46.445312 C 315.296875 46.117188 316.253906 45.777344 317.207031 45.445312 L 320.078125 44.4375 L 322.953125 43.421875 C 323.917969 43.082031 324.871094 42.742188 325.832031 42.421875 C 341.230469 37.203125 357.003906 33.085938 373.011719 30.261719 C 381.015625 28.828125 389.074219 27.753906 397.164062 26.957031 C 401.207031 26.578125 405.257812 26.246094 409.316406 26.035156 L 410.839844 25.941406 L 412.363281 25.875 C 413.378906 25.828125 414.390625 25.785156 415.40625 25.746094 L 418.453125 25.65625 L 419.214844 25.632812 C 419.472656 25.625 419.722656 25.625 419.980469 25.617188 L 421.503906 25.59375 C 422.519531 25.578125 423.53125 25.558594 424.546875 25.566406 L 427.59375 25.558594 L 430.636719 25.585938 L 431.402344 25.59375 L 432.167969 25.609375 L 433.6875 25.648438 C 437.746094 25.753906 441.8125 25.929688 445.867188 26.207031 C 453.976562 26.761719 462.058594 27.632812 470.09375 28.867188 C 478.121094 30.109375 486.09375 31.699219 493.976562 33.675781 C 495.945312 34.175781 497.910156 34.691406 499.863281 35.242188 C 501.816406 35.796875 503.761719 36.363281 505.699219 36.96875 C 507.640625 37.574219 509.570312 38.210938 511.480469 38.886719 C 512.441406 39.21875 513.386719 39.566406 514.34375 39.929688 C 515.289062 40.285156 516.234375 40.65625 517.175781 41.050781 C 515.296875 40.277344 513.378906 39.597656 511.464844 38.9375 C 509.539062 38.28125 507.609375 37.667969 505.671875 37.074219 C 503.730469 36.484375 501.777344 35.933594 499.816406 35.394531 C 497.863281 34.855469 495.894531 34.363281 493.925781 33.871094 C 486.042969 31.957031 478.058594 30.410156 470.03125 29.230469 C 453.976562 26.859375 437.726562 25.867188 421.503906 26.171875 L 419.980469 26.199219 C 419.730469 26.207031 419.472656 26.207031 419.222656 26.214844 L 418.464844 26.238281 L 415.429688 26.335938 C 414.414062 26.375 413.40625 26.429688 412.394531 26.472656 L 410.871094 26.550781 L 409.355469 26.640625 C 405.304688 26.867188 401.269531 27.207031 397.230469 27.59375 C 389.160156 28.40625 381.117188 29.496094 373.140625 30.941406 C 365.160156 32.378906 357.222656 34.085938 349.378906 36.136719 C 341.523438 38.175781 333.753906 40.507812 326.074219 43.113281 C 325.113281 43.429688 324.160156 43.769531 323.195312 44.105469 L 320.328125 45.117188 L 317.449219 46.125 C 316.488281 46.457031 315.53125 46.800781 314.570312 47.125 L 311.671875 48.070312 C 310.703125 48.382812 309.738281 48.707031 308.761719 48.996094 L 305.839844 49.875 L 305.113281 50.09375 L 304.75 50.207031 L 304.378906 50.304688 L 302.910156 50.714844 L 299.96875 51.53125 C 298.984375 51.789062 298 52.03125 297.015625 52.28125 C 295.046875 52.804688 293.0625 53.238281 291.085938 53.699219 L 290.34375 53.871094 C 290.09375 53.933594 289.84375 53.980469 289.59375 54.03125 L 288.101562 54.34375 L 286.609375 54.652344 L 285.863281 54.804688 L 285.492188 54.878906 L 285.113281 54.949219 L 282.113281 55.5 C 281.613281 55.59375 281.113281 55.691406 280.613281 55.773438 L 279.105469 56.015625 L 276.09375 56.492188 L 273.070312 56.910156 C 272.5625 56.976562 272.0625 57.054688 271.554688 57.113281 L 270.042969 57.289062 C 269.035156 57.402344 268.019531 57.523438 267.011719 57.636719 L 263.976562 57.917969 L 263.21875 57.984375 C 262.96875 58.007812 262.710938 58.03125 262.460938 58.046875 L 260.9375 58.152344 L 259.417969 58.257812 C 258.910156 58.296875 258.402344 58.332031 257.894531 58.355469 L 254.851562 58.507812 L 254.085938 58.546875 L 253.320312 58.566406 L 251.796875 58.605469 L 250.277344 58.644531 L 249.898438 58.652344 L 249.519531 58.652344 L 248.753906 58.660156 L 245.703125 58.675781 L 242.648438 58.628906 C 241.632812 58.621094 240.621094 58.566406 239.597656 58.539062 L 238.074219 58.476562 L 237.695312 58.460938 L 237.316406 58.441406 L 236.554688 58.394531 L 235.03125 58.304688 L 234.265625 58.257812 C 234.015625 58.242188 233.757812 58.226562 233.507812 58.210938 L 230.472656 57.96875 C 226.421875 57.613281 222.382812 57.136719 218.363281 56.53125 L 215.347656 56.046875 C 215.097656 56.007812 214.847656 55.964844 214.597656 55.917969 L 212.347656 55.507812 L 211.601562 55.371094 L 210.851562 55.222656 L 209.359375 54.917969 L 208.609375 54.765625 C 208.359375 54.714844 208.109375 54.667969 207.859375 54.609375 L 206.367188 54.28125 C 198.429688 52.53125 190.601562 50.261719 182.964844 47.464844 C 179.148438 46.074219 175.378906 44.542969 171.667969 42.890625 C 169.8125 42.074219 167.972656 41.203125 166.136719 40.324219 C 164.3125 39.421875 162.503906 38.515625 160.707031 37.554688 L 160.035156 37.195312 C 159.808594 37.074219 159.585938 36.953125 159.367188 36.832031 L 158.035156 36.097656 C 157.148438 35.597656 156.261719 35.105469 155.390625 34.59375 C 153.636719 33.570312 151.902344 32.515625 150.191406 31.425781 C 148.476562 30.328125 146.789062 29.207031 145.128906 28.035156 C 143.503906 26.890625 141.867188 25.6875 140.308594 24.390625 Z M 140.308594 24.390625 " fill-opacity="1" fill-rule="nonzero"/></g><g clip-path="url(#b01a55ca8f)"><path fill="#ffffff" d="M 140.308594 35.578125 C 141.882812 36.855469 143.527344 38.046875 145.191406 39.210938 C 146.859375 40.371094 148.554688 41.484375 150.273438 42.558594 C 151.992188 43.640625 153.734375 44.679688 155.5 45.6875 C 156.378906 46.195312 157.261719 46.679688 158.15625 47.179688 L 159.496094 47.898438 C 159.722656 48.019531 159.945312 48.140625 160.171875 48.253906 L 160.84375 48.601562 C 162.640625 49.546875 164.457031 50.441406 166.28125 51.328125 C 168.117188 52.199219 169.957031 53.054688 171.820312 53.859375 C 175.535156 55.484375 179.308594 56.976562 183.125 58.347656 C 190.757812 61.089844 198.574219 63.316406 206.503906 65.027344 L 207.988281 65.347656 C 208.238281 65.398438 208.488281 65.453125 208.730469 65.496094 L 209.480469 65.640625 L 210.972656 65.9375 L 211.722656 66.082031 L 212.472656 66.210938 L 213.96875 66.476562 L 214.71875 66.601562 C 214.96875 66.648438 215.21875 66.695312 215.46875 66.730469 L 218.476562 67.203125 C 222.488281 67.792969 226.519531 68.253906 230.554688 68.59375 L 233.585938 68.824219 C 233.835938 68.84375 234.09375 68.851562 234.34375 68.867188 L 235.097656 68.90625 L 236.613281 68.988281 L 237.371094 69.027344 L 237.75 69.050781 L 238.128906 69.066406 L 239.652344 69.117188 C 240.664062 69.148438 241.671875 69.199219 242.6875 69.199219 L 245.722656 69.238281 L 248.761719 69.214844 L 249.519531 69.207031 L 249.898438 69.207031 L 250.277344 69.199219 L 251.796875 69.15625 L 253.320312 69.109375 L 254.078125 69.085938 L 254.835938 69.050781 L 257.871094 68.898438 C 258.378906 68.875 258.886719 68.835938 259.386719 68.800781 L 260.902344 68.6875 L 262.414062 68.574219 C 262.664062 68.558594 262.921875 68.535156 263.171875 68.503906 L 263.929688 68.4375 L 266.960938 68.148438 C 267.964844 68.035156 268.972656 67.914062 269.980469 67.800781 L 271.488281 67.625 C 271.988281 67.558594 272.496094 67.488281 272.996094 67.421875 L 276.007812 66.996094 L 279.007812 66.511719 C 287.011719 65.210938 294.925781 63.398438 302.726562 61.21875 L 304.1875 60.808594 L 304.550781 60.710938 L 304.914062 60.597656 L 305.644531 60.378906 L 308.550781 59.5 C 309.519531 59.21875 310.480469 58.886719 311.445312 58.574219 L 314.335938 57.636719 C 315.296875 57.3125 316.253906 56.96875 317.207031 56.636719 L 320.078125 55.628906 L 322.953125 54.613281 C 323.917969 54.273438 324.871094 53.933594 325.832031 53.617188 C 341.230469 48.398438 357.003906 44.277344 373.011719 41.453125 C 381.015625 40.023438 389.074219 38.945312 397.164062 38.152344 C 401.207031 37.773438 405.257812 37.4375 409.316406 37.226562 L 410.839844 37.136719 L 412.363281 37.066406 C 413.378906 37.023438 414.390625 36.976562 415.40625 36.941406 L 419.214844 36.824219 C 419.472656 36.816406 419.722656 36.816406 419.980469 36.8125 L 421.503906 36.789062 C 422.519531 36.773438 423.53125 36.75 424.546875 36.757812 L 427.59375 36.75 L 430.636719 36.78125 L 431.402344 36.789062 L 432.167969 36.804688 L 433.6875 36.839844 C 437.746094 36.945312 441.8125 37.121094 445.867188 37.402344 C 453.976562 37.953125 462.058594 38.824219 470.09375 40.058594 C 478.121094 41.300781 486.09375 42.890625 493.976562 44.867188 C 495.945312 45.367188 497.910156 45.882812 499.863281 46.4375 C 501.816406 46.988281 503.761719 47.558594 505.699219 48.164062 C 507.640625 48.769531 509.570312 49.40625 511.480469 50.078125 C 512.441406 50.410156 513.386719 50.761719 514.34375 51.125 C 515.289062 51.480469 516.234375 51.851562 517.175781 52.246094 C 515.296875 51.472656 513.378906 50.789062 511.464844 50.132812 C 509.539062 49.472656 507.609375 48.859375 505.671875 48.269531 C 503.730469 47.679688 501.777344 47.125 499.816406 46.585938 C 497.863281 46.050781 495.894531 45.558594 493.925781 45.066406 C 486.042969 43.148438 478.058594 41.605469 470.03125 40.421875 C 453.976562 38.054688 437.726562 37.0625 421.503906 37.363281 L 419.980469 37.394531 C 419.730469 37.402344 419.472656 37.402344 419.222656 37.410156 L 418.464844 37.433594 L 415.429688 37.53125 C 414.414062 37.566406 413.40625 37.621094 412.394531 37.667969 L 410.871094 37.742188 L 409.355469 37.832031 C 405.304688 38.058594 401.269531 38.402344 397.230469 38.789062 C 389.160156 39.597656 381.117188 40.6875 373.140625 42.132812 C 365.160156 43.574219 357.222656 45.277344 349.378906 47.328125 C 341.523438 49.367188 333.753906 51.699219 326.074219 54.304688 C 325.113281 54.621094 324.160156 54.964844 323.195312 55.296875 L 320.328125 56.3125 L 317.449219 57.320312 C 316.488281 57.652344 315.53125 57.992188 314.570312 58.316406 L 311.671875 59.265625 C 310.703125 59.574219 309.738281 59.902344 308.761719 60.1875 L 305.839844 61.066406 L 305.113281 61.285156 L 304.75 61.402344 L 304.378906 61.5 L 302.910156 61.90625 L 299.96875 62.726562 C 298.984375 62.984375 298 63.226562 297.015625 63.476562 C 295.046875 64 293.0625 64.429688 291.085938 64.890625 L 290.34375 65.066406 C 290.09375 65.125 289.84375 65.171875 289.59375 65.226562 L 288.101562 65.535156 L 286.609375 65.847656 L 285.863281 65.996094 L 285.492188 66.074219 L 285.113281 66.140625 L 282.113281 66.695312 C 281.613281 66.785156 281.113281 66.882812 280.613281 66.96875 L 279.105469 67.210938 L 276.09375 67.6875 L 273.070312 68.101562 C 272.5625 68.171875 272.0625 68.246094 271.554688 68.308594 L 270.042969 68.480469 C 269.035156 68.59375 268.019531 68.714844 267.011719 68.828125 L 263.976562 69.109375 L 263.21875 69.179688 C 262.96875 69.199219 262.710938 69.222656 262.460938 69.238281 L 260.9375 69.34375 L 259.417969 69.449219 C 258.910156 69.488281 258.402344 69.527344 257.894531 69.550781 L 254.851562 69.699219 L 254.085938 69.738281 L 253.320312 69.761719 L 251.796875 69.800781 L 250.277344 69.835938 L 249.898438 69.84375 L 249.519531 69.84375 L 248.753906 69.851562 L 245.703125 69.867188 L 242.648438 69.820312 C 241.632812 69.8125 240.621094 69.761719 239.597656 69.730469 L 238.074219 69.671875 L 237.695312 69.65625 L 237.316406 69.632812 L 236.554688 69.585938 L 235.03125 69.496094 L 234.265625 69.449219 C 234.015625 69.4375 233.757812 69.421875 233.507812 69.40625 L 230.472656 69.164062 C 226.421875 68.808594 222.382812 68.328125 218.363281 67.722656 L 215.347656 67.238281 C 215.097656 67.203125 214.847656 67.15625 214.597656 67.109375 L 213.847656 66.972656 L 212.347656 66.703125 L 211.601562 66.566406 L 210.851562 66.414062 L 209.359375 66.109375 L 208.609375 65.960938 C 208.359375 65.90625 208.109375 65.859375 207.859375 65.800781 L 206.367188 65.476562 C 198.429688 63.726562 190.601562 61.453125 182.964844 58.660156 C 179.148438 57.265625 175.378906 55.734375 171.667969 54.085938 C 169.8125 53.265625 167.972656 52.394531 166.136719 51.519531 C 164.3125 50.617188 162.503906 49.707031 160.707031 48.746094 L 160.035156 48.390625 C 159.808594 48.269531 159.585938 48.148438 159.367188 48.027344 L 158.035156 47.292969 C 157.148438 46.792969 156.261719 46.300781 155.390625 45.785156 C 153.636719 44.761719 151.902344 43.710938 150.191406 42.621094 C 148.476562 41.519531 146.789062 40.402344 145.128906 39.226562 C 143.503906 38.074219 141.867188 36.871094 140.308594 35.578125 Z M 140.308594 35.578125 " fill-opacity="1" fill-rule="nonzero"/></g><g clip-path="url(#5055e0d91f)"><path fill="#ffffff" d="M 140.308594 46.753906 C 141.882812 48.035156 143.527344 49.222656 145.191406 50.390625 C 146.859375 51.546875 148.554688 52.660156 150.273438 53.738281 C 151.992188 54.820312 153.734375 55.855469 155.5 56.863281 C 156.378906 57.371094 157.261719 57.855469 158.15625 58.355469 L 159.496094 59.074219 C 159.722656 59.195312 159.945312 59.316406 160.171875 59.429688 L 160.84375 59.78125 C 162.640625 60.726562 164.457031 61.621094 166.28125 62.507812 C 168.117188 63.378906 169.957031 64.234375 171.820312 65.035156 C 175.535156 66.664062 179.308594 68.15625 183.125 69.527344 C 190.757812 72.269531 198.574219 74.496094 206.503906 76.207031 L 207.988281 76.523438 C 208.238281 76.578125 208.488281 76.628906 208.730469 76.675781 L 209.480469 76.820312 L 210.972656 77.113281 L 211.722656 77.257812 L 212.472656 77.386719 L 213.96875 77.652344 L 214.71875 77.78125 C 214.96875 77.828125 215.21875 77.871094 215.46875 77.910156 L 218.476562 78.378906 C 222.488281 78.96875 226.519531 79.433594 230.554688 79.773438 L 233.585938 80 C 233.835938 80.023438 234.09375 80.03125 234.34375 80.046875 L 235.097656 80.082031 L 236.613281 80.167969 L 237.371094 80.203125 L 237.75 80.226562 L 238.128906 80.242188 L 239.652344 80.296875 C 240.664062 80.324219 241.671875 80.378906 242.6875 80.378906 L 245.722656 80.417969 L 248.761719 80.394531 L 249.519531 80.386719 L 249.898438 80.386719 L 250.277344 80.378906 L 251.796875 80.332031 L 253.320312 80.289062 L 254.078125 80.265625 L 254.835938 80.226562 L 257.871094 80.074219 C 258.378906 80.054688 258.886719 80.015625 259.386719 79.976562 L 260.902344 79.863281 L 262.414062 79.75 C 262.664062 79.734375 262.921875 79.710938 263.171875 79.683594 L 263.929688 79.613281 L 266.960938 79.324219 C 267.964844 79.210938 268.972656 79.089844 269.980469 78.976562 L 271.488281 78.804688 C 271.988281 78.734375 272.496094 78.667969 272.996094 78.597656 L 276.007812 78.175781 L 279.007812 77.691406 C 287.011719 76.386719 294.925781 74.578125 302.726562 72.398438 L 304.1875 71.988281 L 304.550781 71.890625 L 304.914062 71.777344 L 305.644531 71.554688 L 308.550781 70.675781 C 309.519531 70.398438 310.480469 70.0625 311.445312 69.753906 L 314.335938 68.816406 C 315.296875 68.488281 316.253906 68.148438 317.207031 67.816406 L 320.078125 66.808594 L 322.953125 65.792969 C 323.917969 65.453125 324.871094 65.113281 325.832031 64.792969 C 341.230469 59.574219 357.003906 55.457031 373.011719 52.632812 C 381.015625 51.199219 389.074219 50.125 397.164062 49.328125 C 401.207031 48.949219 405.257812 48.617188 409.316406 48.40625 L 410.839844 48.3125 L 412.363281 48.246094 C 413.378906 48.199219 414.390625 48.15625 415.40625 48.117188 L 418.453125 48.027344 L 419.214844 48.003906 C 419.472656 47.996094 419.722656 47.996094 419.980469 47.988281 L 421.503906 47.964844 C 422.519531 47.949219 423.53125 47.929688 424.546875 47.9375 L 427.59375 47.929688 L 430.636719 47.957031 L 431.402344 47.964844 L 432.167969 47.980469 L 433.6875 48.019531 C 437.746094 48.125 441.8125 48.300781 445.867188 48.578125 C 453.976562 49.132812 462.058594 50.003906 470.09375 51.238281 C 478.121094 52.480469 486.09375 54.070312 493.976562 56.046875 C 495.945312 56.546875 497.910156 57.0625 499.863281 57.613281 C 501.816406 58.167969 503.761719 58.734375 505.699219 59.339844 C 507.640625 59.945312 509.570312 60.582031 511.480469 61.257812 C 512.441406 61.589844 513.386719 61.9375 514.34375 62.300781 C 515.289062 62.65625 516.234375 63.027344 517.175781 63.421875 C 515.296875 62.648438 513.378906 61.96875 511.464844 61.308594 C 509.539062 60.652344 507.609375 60.039062 505.671875 59.445312 C 503.730469 58.855469 501.777344 58.304688 499.816406 57.765625 C 497.863281 57.226562 495.894531 56.734375 493.925781 56.242188 C 486.042969 54.328125 478.058594 52.78125 470.03125 51.601562 C 453.976562 49.230469 437.726562 48.238281 421.503906 48.542969 L 419.980469 48.570312 C 419.730469 48.578125 419.472656 48.578125 419.222656 48.585938 L 418.464844 48.609375 L 415.429688 48.707031 C 414.414062 48.746094 413.40625 48.800781 412.394531 48.84375 L 410.871094 48.921875 L 409.355469 49.011719 C 405.304688 49.238281 401.269531 49.578125 397.230469 49.964844 C 389.160156 50.777344 381.117188 51.867188 373.140625 53.3125 C 365.160156 54.75 357.222656 56.457031 349.378906 58.507812 C 341.523438 60.542969 333.753906 62.878906 326.074219 65.484375 C 325.113281 65.800781 324.160156 66.140625 323.195312 66.472656 L 320.328125 67.488281 L 317.449219 68.496094 C 316.488281 68.828125 315.53125 69.171875 314.570312 69.503906 L 311.671875 70.449219 C 310.703125 70.761719 309.738281 71.085938 308.761719 71.375 L 305.839844 72.253906 L 305.113281 72.472656 L 304.75 72.585938 L 304.378906 72.683594 L 302.910156 73.09375 L 299.96875 73.910156 C 298.984375 74.167969 298 74.410156 297.015625 74.660156 C 295.046875 75.183594 293.0625 75.617188 291.085938 76.078125 L 290.34375 76.25 C 290.09375 76.3125 289.84375 76.355469 289.59375 76.410156 L 288.101562 76.722656 L 286.609375 77.03125 L 285.863281 77.183594 L 285.492188 77.257812 L 285.113281 77.328125 L 282.113281 77.878906 C 281.613281 77.96875 281.113281 78.070312 280.613281 78.152344 L 279.105469 78.394531 L 276.09375 78.871094 L 273.070312 79.289062 C 272.5625 79.355469 272.0625 79.433594 271.554688 79.492188 L 270.042969 79.667969 C 269.035156 79.78125 268.019531 79.902344 267.011719 80.015625 L 263.976562 80.296875 L 263.21875 80.363281 C 262.96875 80.386719 262.710938 80.410156 262.460938 80.425781 L 260.9375 80.53125 L 259.417969 80.636719 C 258.910156 80.675781 258.402344 80.710938 257.894531 80.734375 L 254.851562 80.886719 L 254.085938 80.925781 L 253.320312 80.945312 L 251.796875 80.984375 L 250.277344 81.023438 L 249.898438 81.03125 L 249.519531 81.03125 L 248.753906 81.039062 L 245.703125 81.050781 L 242.648438 81.007812 C 241.632812 81 240.621094 80.945312 239.597656 80.917969 L 238.074219 80.855469 L 237.695312 80.839844 L 237.316406 80.816406 L 236.554688 80.773438 L 235.03125 80.683594 L 234.265625 80.636719 C 234.015625 80.621094 233.757812 80.605469 233.507812 80.589844 L 230.472656 80.347656 C 226.421875 79.992188 222.382812 79.515625 218.363281 78.910156 L 215.347656 78.425781 C 215.097656 78.386719 214.847656 78.339844 214.597656 78.296875 L 212.347656 77.886719 L 211.601562 77.75 L 210.851562 77.597656 L 209.359375 77.296875 L 208.609375 77.144531 C 208.359375 77.09375 208.109375 77.046875 207.859375 76.984375 L 206.390625 76.691406 C 198.453125 74.941406 190.621094 72.667969 182.988281 69.875 C 179.171875 68.480469 175.402344 66.953125 171.691406 65.300781 C 169.835938 64.484375 167.992188 63.613281 166.160156 62.734375 C 164.335938 61.832031 162.527344 60.921875 160.730469 59.960938 L 160.058594 59.605469 C 159.832031 59.484375 159.609375 59.363281 159.390625 59.242188 L 158.058594 58.507812 C 157.171875 58.007812 156.285156 57.515625 155.414062 57 C 153.660156 55.976562 151.925781 54.925781 150.210938 53.835938 C 148.5 52.738281 146.8125 51.617188 145.152344 50.441406 C 143.503906 49.261719 141.867188 48.058594 140.308594 46.753906 Z M 140.308594 46.753906 " fill-opacity="1" fill-rule="nonzero"/></g><g clip-path="url(#30dd769ed5)"><path fill="#ffffff" d="M 140.308594 57.941406 C 141.882812 59.21875 143.527344 60.410156 145.191406 61.574219 C 146.859375 62.734375 148.554688 63.847656 150.273438 64.921875 C 151.992188 66.003906 153.734375 67.042969 155.5 68.050781 C 156.378906 68.558594 157.261719 69.042969 158.15625 69.542969 L 159.496094 70.261719 C 159.722656 70.382812 159.945312 70.503906 160.171875 70.617188 L 160.84375 70.964844 C 162.640625 71.910156 164.457031 72.804688 166.28125 73.691406 C 168.117188 74.5625 169.957031 75.417969 171.820312 76.222656 C 175.535156 77.847656 179.308594 79.339844 183.125 80.710938 C 190.757812 83.453125 198.574219 85.679688 206.503906 87.390625 L 207.988281 87.710938 C 208.238281 87.761719 208.488281 87.816406 208.730469 87.859375 L 209.480469 88.003906 L 210.972656 88.300781 L 211.722656 88.445312 L 212.472656 88.574219 L 213.96875 88.839844 L 214.71875 88.964844 C 214.96875 89.011719 215.21875 89.058594 215.46875 89.09375 L 218.476562 89.566406 C 222.488281 90.15625 226.519531 90.617188 230.554688 90.957031 L 233.585938 91.1875 C 233.835938 91.207031 234.09375 91.214844 234.34375 91.230469 L 235.097656 91.269531 L 236.613281 91.351562 L 237.371094 91.390625 L 237.75 91.414062 L 238.128906 91.429688 L 239.652344 91.480469 C 240.664062 91.511719 241.671875 91.5625 242.6875 91.5625 L 245.722656 91.601562 L 248.761719 91.578125 L 249.519531 91.570312 L 249.898438 91.570312 L 250.277344 91.5625 L 251.796875 91.519531 L 253.320312 91.472656 L 254.078125 91.449219 L 254.835938 91.414062 L 257.871094 91.261719 C 258.378906 91.238281 258.886719 91.199219 259.386719 91.164062 L 260.902344 91.050781 L 262.414062 90.9375 C 262.664062 90.921875 262.921875 90.898438 263.171875 90.867188 L 263.929688 90.800781 L 266.960938 90.511719 C 267.964844 90.398438 268.972656 90.277344 269.980469 90.164062 L 271.488281 89.988281 C 271.988281 89.921875 272.496094 89.851562 272.996094 89.785156 L 276.007812 89.359375 L 279.007812 88.875 C 287.011719 87.574219 294.925781 85.761719 302.726562 83.582031 L 304.1875 83.171875 L 304.550781 83.074219 L 304.914062 82.960938 L 305.644531 82.742188 L 308.550781 81.863281 C 309.519531 81.582031 310.480469 81.25 311.445312 80.9375 L 314.335938 80 C 315.296875 79.675781 316.253906 79.332031 317.207031 79 L 320.078125 77.992188 L 322.953125 76.976562 C 323.917969 76.636719 324.871094 76.296875 325.832031 75.980469 C 341.230469 70.761719 357.003906 66.640625 373.011719 63.816406 C 381.015625 62.386719 389.074219 61.308594 397.164062 60.515625 C 401.207031 60.136719 405.257812 59.800781 409.316406 59.589844 L 410.839844 59.5 L 412.363281 59.429688 C 413.378906 59.386719 414.390625 59.339844 415.40625 59.304688 L 419.214844 59.1875 C 419.472656 59.183594 419.722656 59.183594 419.980469 59.175781 L 421.503906 59.152344 C 422.519531 59.136719 423.53125 59.113281 424.546875 59.121094 L 427.59375 59.113281 L 430.636719 59.144531 L 431.402344 59.152344 L 432.167969 59.167969 L 433.6875 59.203125 C 437.746094 59.308594 441.8125 59.484375 445.867188 59.765625 C 453.976562 60.316406 462.058594 61.1875 470.09375 62.421875 C 478.121094 63.664062 486.09375 65.253906 493.976562 67.230469 C 495.945312 67.730469 497.910156 68.246094 499.863281 68.800781 C 501.816406 69.351562 503.761719 69.921875 505.699219 70.527344 C 507.640625 71.132812 509.570312 71.769531 511.480469 72.441406 C 512.441406 72.773438 513.386719 73.125 514.34375 73.488281 C 515.289062 73.84375 516.234375 74.214844 517.175781 74.609375 C 515.296875 73.835938 513.378906 73.152344 511.464844 72.496094 C 509.539062 71.835938 507.609375 71.222656 505.671875 70.632812 C 503.730469 70.042969 501.777344 69.488281 499.816406 68.949219 C 497.863281 68.414062 495.894531 67.921875 493.925781 67.429688 C 486.042969 65.511719 478.058594 63.96875 470.03125 62.785156 C 453.976562 60.417969 437.726562 59.425781 421.503906 59.726562 L 419.980469 59.757812 C 419.730469 59.765625 419.472656 59.765625 419.222656 59.773438 L 418.464844 59.796875 L 415.429688 59.894531 C 414.414062 59.929688 413.40625 59.984375 412.394531 60.03125 L 410.871094 60.105469 L 409.355469 60.195312 C 405.304688 60.421875 401.269531 60.765625 397.230469 61.152344 C 389.160156 61.960938 381.117188 63.050781 373.140625 64.496094 C 365.160156 65.9375 357.222656 67.640625 349.378906 69.691406 C 341.523438 71.730469 333.753906 74.0625 326.074219 76.667969 C 325.113281 76.984375 324.160156 77.328125 323.195312 77.660156 L 320.328125 78.675781 L 317.449219 79.683594 C 316.488281 80.015625 315.53125 80.355469 314.570312 80.6875 L 311.671875 81.636719 C 310.703125 81.945312 309.738281 82.273438 308.761719 82.558594 L 305.839844 83.4375 L 305.113281 83.65625 L 304.75 83.769531 L 304.378906 83.871094 L 302.910156 84.277344 L 299.96875 85.097656 C 298.984375 85.355469 298 85.597656 297.015625 85.847656 C 295.046875 86.367188 293.0625 86.800781 291.085938 87.261719 L 290.34375 87.4375 C 290.09375 87.496094 289.84375 87.542969 289.59375 87.597656 L 288.101562 87.90625 L 286.609375 88.21875 L 285.863281 88.367188 L 285.492188 88.445312 L 285.113281 88.511719 L 282.113281 89.066406 C 281.613281 89.15625 281.113281 89.253906 280.613281 89.335938 L 279.105469 89.578125 L 276.09375 90.058594 L 273.070312 90.472656 C 272.5625 90.542969 272.0625 90.617188 271.554688 90.679688 L 270.042969 90.851562 C 269.035156 90.964844 268.019531 91.085938 267.011719 91.199219 L 263.976562 91.480469 L 263.21875 91.550781 C 262.96875 91.570312 262.710938 91.59375 262.460938 91.609375 L 260.9375 91.714844 L 259.417969 91.820312 C 258.910156 91.859375 258.402344 91.898438 257.894531 91.921875 L 254.851562 92.070312 L 254.085938 92.109375 L 253.320312 92.132812 L 251.796875 92.171875 L 250.277344 92.207031 L 249.898438 92.214844 L 249.519531 92.214844 L 248.753906 92.222656 L 245.703125 92.238281 L 242.648438 92.191406 C 241.632812 92.183594 240.621094 92.132812 239.597656 92.101562 L 238.074219 92.042969 L 237.695312 92.027344 L 237.316406 92.003906 L 236.554688 91.957031 L 235.03125 91.867188 L 234.265625 91.820312 C 234.015625 91.804688 233.757812 91.792969 233.507812 91.777344 L 230.472656 91.535156 C 226.421875 91.179688 222.382812 90.699219 218.363281 90.09375 L 215.347656 89.609375 C 215.097656 89.574219 214.847656 89.527344 214.597656 89.480469 L 213.847656 89.34375 L 212.347656 89.074219 L 211.601562 88.9375 L 210.851562 88.785156 L 209.359375 88.480469 L 208.609375 88.332031 C 208.359375 88.277344 208.109375 88.230469 207.859375 88.171875 L 206.367188 87.847656 C 198.429688 86.097656 190.601562 83.824219 182.964844 81.03125 C 179.148438 79.636719 175.378906 78.105469 171.667969 76.457031 C 169.8125 75.636719 167.972656 74.765625 166.136719 73.886719 C 164.3125 72.988281 162.503906 72.078125 160.707031 71.117188 L 160.035156 70.761719 C 159.808594 70.640625 159.585938 70.519531 159.367188 70.398438 L 158.035156 69.664062 C 157.148438 69.164062 156.261719 68.671875 155.390625 68.15625 C 153.636719 67.132812 151.902344 66.082031 150.191406 64.988281 C 148.476562 63.890625 146.789062 62.769531 145.128906 61.597656 C 143.503906 60.445312 141.867188 59.242188 140.308594 57.941406 Z M 140.308594 57.941406 " fill-opacity="1" fill-rule="nonzero"/></g></svg>